<?xml version="1.0" encoding="utf-8"?>
<!-- Generator: Adobe Illustrator 25.2.1, SVG Export Plug-In . SVG Version: 6.00 Build 0) -->
<svg version="1.1" id="Layer_1" xmlns="http://www.w3.org/2000/svg"
	xmlns:xlink="http://www.w3.org/1999/xlink" x="0px" y="0px" viewBox="0 0 1366 768"
	style="enable-background:new 0 0 1366 768;" xml:space="preserve">
<style type="text/css">
	.st0{fill:#0D9488;}
	.st1{fill:#FFFFFF;}
	.st2{fill:#61909B;}
	.st3{fill:#82B2BF;}
	.st4{fill:#0f766e;}
	.st5{fill:#ccfbf1;}
	.st6{fill:#DFEDF2;}
	.st7{fill:#B7C9CE;}
	.st8{fill:#51666B;}
	.st9{fill:#DFECF2;}
	.st10{fill:#F3DD28;}
	.st11{fill:#fbbf24;}
	.st12{fill:#002244;}
	.st13{fill:#88939A;}
	.st14{fill:#ABB4B9;}
	.st15{fill:#93A8B2;}
</style>
<g>
	<path class="st1" d="M499.5,435c0,0,17.4,74.5,85.7,37.7C816.2,348.4,482-2.7,1097.7,111.8c81.2,15.1,164.7,11.1,244.2-11.3
		l24.1-6.8V765H894c-99.8,0-171.6-96.9-141.3-192c15-46.9,9-88.6-44.5-106.1c-123.1-40-89.8,112.5-254.5,97.5l-72.3-26.9l52.5-137.3
		L499.5,435z"/>
	<g>
		<g>
			<path class="st2" d="M381.6,230.5c-0.7-0.8-1.5-1.3-2.5-1.5c-3.4-0.7-7.2,3.2-8.4,8.8c-0.4,2.1-0.5,4.1-0.1,5.9c0,0,0,0,0,0
				c0.6,2.9,2.1,5,4.2,5.5c0.8,0.2,1.6,0.1,2.4-0.2c-1.9,2-4.2,2.9-6.4,2.5c-1.1-0.2-2-0.8-2.8-1.6c-1.1-1.1-1.9-2.7-2.5-4.5
				c-0.7-2.5-0.8-5.6-0.1-8.8c0.6-2.8,1.7-5.2,3-7.2c0.9-1.3,2-2.4,3.1-3.2c1.6-1.1,3.3-1.5,4.9-1.2
				C378.8,225.4,380.6,227.5,381.6,230.5z"/>
			<path class="st3" d="M381.6,230.5c0.8,2.6,1,5.9,0.2,9.3c-0.8,3.8-2.5,7-4.6,9c-0.8,0.3-1.6,0.4-2.4,0.2
				c-2.1-0.5-3.7-2.6-4.2-5.5c0,0,0,0,0,0c-0.3-1.8-0.3-3.8,0.1-5.9c1.2-5.6,4.9-9.5,8.4-8.8C380.1,229.2,380.9,229.7,381.6,230.5
				C381.6,230.5,381.6,230.5,381.6,230.5z"/>
			<path class="st4" d="M348.1,361.4c1.8,2.2,5,2.3,6.9,0.3c-6.9,7.8-18.6,3.9-18.6,3.9s0,0,0,0c0.2-0.2,3.7-3.1,8.1-8.6
				L348.1,361.4z"/>
			<path class="st5" d="M377.7,267.2c7.3,1.2,12,8.4,10.3,15.5c-1.5,6.2-3.6,14-6.3,22.6c-4.2-8.7-8.4-14.1-8.4-14.1
				s-3.1-4.1-7.7-6.7c0-1.1,0.1-5.4-1.1-11.1c3-2.1,5.7-4.4,8.2-7L377.7,267.2z"/>
			<path class="st6" d="M364.5,273.4c-7.5,5.2-16.3,8.6-26,9.5c-14.7,1.4-28.7-3.3-39.5-12.1c0,0,0,0,0,0c-0.3-0.3-0.7-0.5-1-0.8
				c-1.5-1.3-2.9-2.6-4.2-4c31.2,20.3,63.1,4.3,74.1-16.3c0.8,0.8,1.8,1.4,2.8,1.6c2.2,0.5,4.5-0.5,6.4-2.5c2.1-2.1,3.8-5.3,4.6-9
				c0.7-3.4,0.6-6.7-0.2-9.3c0,0,0,0,0,0c-0.9-3-2.7-5.1-5.1-5.6c-1.6-0.3-3.3,0.1-4.9,1.2c-2.6-19.8-14.8-38.5-42.2-41.9
				c-30.5-3.8-42.9,12-43.6,12.8c8.7-14.9,24-25.5,42.2-27.2c30.4-2.8,57.5,20.2,60.4,51.4c1.6,17.4-4.6,33.6-15.6,45.1
				C370.3,269,367.5,271.3,364.5,273.4z"/>
			<path class="st5" d="M371.5,226.1c-1.1,0.8-2.2,1.8-3.1,3.2c-26.8-62.6-84.4-27.7-85.3-27.2c0.8-1.7,1.7-3.4,2.6-5c0,0,0,0,0,0
				c0.6-0.8,13-16.6,43.6-12.8C356.7,187.6,368.9,206.3,371.5,226.1z"/>
			<path class="st3" d="M284.9,213.1l16.2-4.9c0.7-3.6,1.8-7.2,3.3-10.5c0,0-12,3.9-17.7,8.6C286.6,206.2,285.7,208.8,284.9,213.1z
				 M368.5,229.3c-1.3,1.9-2.4,4.4-3,7.2c-0.7,3.2-0.6,6.3,0.1,8.8c0,0-33.1,41.6-78.7,11.8c-4.7-7.4-7.7-16.1-8.6-25.5
				c-1-10.5,0.9-20.5,5-29.4c0,0,0,0,0,0C284,201.6,341.7,166.6,368.5,229.3z M300.2,213.2l-15.9,2.7c-1.4,8.9-1.8,22.6,5.1,35.3
				c0,0,8.5,6.4,15.6,6.8C305.1,258,297.4,235.3,300.2,213.2z"/>
			<path class="st5" d="M365.6,245.2c0.5,1.9,1.3,3.5,2.5,4.5c-11.1,20.6-43,36.6-74.1,16.3c-0.1-0.1-0.1-0.1-0.2-0.2
				c-2.6-2.7-4.9-5.7-6.9-8.8C332.4,286.9,365.6,245.2,365.6,245.2z"/>
			<path class="st3" d="M364.5,273.4c1.2,5.7,1.1,10.1,1.1,11.1c-4.4-2.5-10.1-3.6-15.7,1.7c-2.5,2.3-3.8,4.6-4.3,6.8c0,0,0,0,0,0
				c-0.2,0.4-2.7,5.8,3.1,17.9c6.1,12.6,6.7,28.2,6.7,28.2c-0.8,1.8-1.7,3.4-2.6,5c-29.6-39.7-69.7-34.2-69.7-34.2
				c3.2-5.6,6.1-12.2,8.6-18.4c4.4-10.9,7.3-20.5,7.4-20.8c10.8,8.8,24.7,13.4,39.5,12.1C348.2,282,357.1,278.6,364.5,273.4z"/>
			<path class="st5" d="M364.6,336.4c0.3,2.7,0.3,5,0.1,6.8c-0.3,3.1-0.9,4.8-0.9,4.8c-5.4,1.4-6.9,5.9-6.1,10
				c-0.8,1.1-1.5,2.2-2.3,3.3c-0.1,0.2-0.3,0.3-0.4,0.5c-1.9,2-5.1,1.9-6.9-0.3l-3.6-4.5c0.7-0.8,1.3-1.7,2.1-2.7
				c2-2.8,4.2-6.1,6.3-10c0.9-1.6,1.7-3.2,2.6-5c2.2-4.6,4.2-9.9,5.8-15.7C363.3,328.5,364.2,332.8,364.6,336.4z"/>
			<path class="st2" d="M358.3,317.3c1.2,2.2,2.2,4.3,3,6.3c-1.6,5.9-3.6,11.1-5.8,15.7c0,0-0.7-15.6-6.7-28.2
				c-5.9-12.2-3.3-17.6-3.1-17.9c-1.2,5,1.7,9.4,3.9,12C352.8,308.8,355.9,312.8,358.3,317.3z"/>
			<path class="st5" d="M352.9,344.3c-2.1,3.9-4.3,7.2-6.3,10c-23.2-36.4-68.4-36.6-68.4-36.6c1.7-2.2,3.3-4.7,4.9-7.6
				C283.1,310,323.3,304.5,352.9,344.3z"/>
			<path class="st3" d="M346.6,354.3c-0.7,1-1.4,1.9-2.1,2.7c-4.4,5.5-7.8,8.4-8.1,8.6c0.1-0.5,1.9-14.2-8.7-16.2
				c-9.6-1.8-20.2,0.4-25.4,15.3c-3-0.1-5.7-0.6-8.2-1.4c-12-4-18.8-15.4-20.2-26.5c-0.9-7.2,0.5-14.3,4.3-19.1
				C278.2,317.6,323.4,317.8,346.6,354.3z"/>
			<path class="st6" d="M304.4,197.6c-1.5,3.4-2.6,6.9-3.3,10.5l-16.2,4.9c0.8-4.2,1.8-6.8,1.8-6.8
				C292.3,201.5,304.4,197.6,304.4,197.6z"/>
			<path class="st6" d="M284.4,215.9l15.9-2.7c-2.8,22.1,4.9,44.8,4.9,44.8c-7.1-0.4-15.6-6.8-15.6-6.8
				C282.6,238.5,283,224.8,284.4,215.9z"/>
			<path class="st7" d="M299.1,270.8C299.1,270.8,299.1,270.8,299.1,270.8c-0.1,0.3-3,9.9-7.4,20.8c-2.8-0.1-5.5-0.4-8-0.8
				c0,0,13.3-13.7,14.4-20.8C298.4,270.3,298.7,270.6,299.1,270.8z"/>
			<path class="st6" d="M293.9,266c1.3,1.4,2.8,2.7,4.2,4c-1.1,7.1-14.4,20.8-14.4,20.8c-23.3-4.1-33.7-21.3-38.3-33.9
				c13,7.8,23.2-5,23.2-5c6.4,16.5,24.9,14,24.9,14l0.1-0.1C293.7,265.9,293.8,266,293.9,266z"/>
			<path class="st7" d="M294.1,363.2c0,0-3.5,2.8-7.3,7.6c-21.3-4.7-12.9-34-12.9-34C275.3,347.9,282.2,359.3,294.1,363.2z"/>
			<path class="st6" d="M286.8,370.8c-2.6,3.3-5.4,7.6-7.3,12.7c-15-12.5-30.3-8.1-30.8-8c7.7-24.2,25.1-38.7,25.1-38.7
				S265.5,366.1,286.8,370.8z"/>
			<path class="st6" d="M271.4,228.1c4.9,2.5-0.2,8.9-3.1,12c-1.1,1.1-1.6,2.7-1.4,4.3c0,0-11.9,11.8-24.1,3.1
				c-0.4-2-0.7-3.5-0.8-4.1c-0.7-4.3-2.3-25.5,11.2-25.2c13.5,0.3,12.3,14.5,12.3,14.5S267.1,225.9,271.4,228.1z"/>
			<path class="st5" d="M266.8,244.4c0.4,2.9,1,5.4,1.8,7.6c0,0-10.2,12.7-23.2,5c-1.3-3.7-2.2-7-2.7-9.5
				C255,256.2,266.8,244.4,266.8,244.4z"/>
			<path class="st5" d="M279.6,383.5c-0.7,1.9-1.3,3.9-1.7,6c-0.5-0.4-14.2-11.8-30.8-7.7c0.5-2.2,1.1-4.3,1.7-6.3c0,0,0,0,0,0
				C249.2,375.3,264.5,370.9,279.6,383.5z"/>
			<path class="st3" d="M277.9,389.5c-0.3,1.9-0.6,3.8-0.6,5.8c0,3.5-0.4,6-1.1,8c-28.1,13.5-39.2,9-39.6,8.8c0,0,0,0,0,0
				c-5-9.3,8.6-15.8,8.6-15.8c0.1-5.1,0.8-10,1.8-14.5C263.7,377.7,277.3,389.1,277.9,389.5z"/>
			<path class="st2" d="M276.2,403.3c-1.8,6-5.8,6.4-8.9,8.1c-4.2,2.3-25.7,10-30.7,0.7C237,412.3,248.1,416.8,276.2,403.3z"/>
			<g>
				<path class="st8" d="M294.2,363.7c-0.1,0-0.1,0-0.2,0c-10.9-3.6-19-14.2-20.6-26.9c0-0.3,0.2-0.5,0.4-0.6c0.3,0,0.5,0.2,0.6,0.4
					c1.2,9.4,7.1,21.8,19.9,26.1c0.3,0.1,0.4,0.4,0.3,0.6C294.6,363.6,294.4,363.7,294.2,363.7z"/>
			</g>
			<g>
				<path class="st8" d="M291.8,292.1c-0.1,0-0.2,0-0.2,0c-0.3-0.1-0.4-0.4-0.3-0.6c3.9-9.6,6.6-18.2,7.3-20.6l0-0.1
					c0.1-0.3,0.4-0.4,0.6-0.3c0.3,0.1,0.4,0.4,0.3,0.6l0,0.1c-0.7,2.4-3.5,11-7.3,20.7C292.1,292,291.9,292.1,291.8,292.1z"/>
			</g>
			<g>
				<g>
					<path class="st8" d="M317,283.8c-0.1,0-0.2,0-0.3,0c-0.2-0.1-0.4-0.4-0.2-0.7c0.4-0.9,0.6-1.3,0.6-1.3c0.1-0.3,0.4-0.4,0.7-0.2
						c0.2,0.1,0.4,0.4,0.2,0.7c0,0-0.2,0.5-0.6,1.4C317.3,283.7,317.2,283.8,317,283.8z"/>
				</g>
				<g>
					<path class="st8" d="M290.5,349.1c-0.2,0-0.4-0.1-0.5-0.3c-0.3-0.9-0.6-1.9-0.9-3c-0.1-0.3,0.1-0.5,0.4-0.6
						c0.3-0.1,0.5,0.1,0.6,0.4c0.2,1,0.5,2,0.8,2.9c0.1,0.3,0,0.5-0.3,0.6C290.6,349.1,290.5,349.1,290.5,349.1z M289,343.2
						c-0.3,0-0.5-0.2-0.5-0.4c-0.1-0.7-0.2-1.5-0.3-2.2c0-0.3,0-0.6-0.1-0.8c0-0.3,0.1-0.5,0.5-0.5c0.3,0,0.5,0.2,0.5,0.5
						c0,0.3,0,0.6,0.1,0.8c0.1,0.7,0.2,1.4,0.3,2.2C289.5,342.9,289.3,343.1,289,343.2C289.1,343.2,289,343.2,289,343.2z
						 M288.6,337.1C288.6,337.1,288.6,337.1,288.6,337.1c-0.3,0-0.6-0.2-0.5-0.5c0-1.1,0.1-2.1,0.2-3.1c0-0.3,0.3-0.5,0.6-0.4
						c0.3,0,0.5,0.3,0.4,0.6c-0.1,1-0.2,2-0.2,3C289.1,336.9,288.9,337.1,288.6,337.1z M289.5,331.1c-0.1,0-0.1,0-0.2,0
						c-0.3-0.1-0.4-0.3-0.4-0.6c0.3-1,0.6-2,1-3c0.1-0.3,0.4-0.4,0.6-0.3c0.3,0.1,0.4,0.4,0.3,0.6c-0.4,0.9-0.7,1.9-0.9,2.8
						C289.8,330.9,289.7,331.1,289.5,331.1z M291.8,325.5c-0.1,0-0.2,0-0.3-0.1c-0.2-0.1-0.3-0.4-0.2-0.7c0.5-0.9,1.1-1.8,1.8-2.5
						c0.2-0.2,0.5-0.2,0.7-0.1c0.2,0.2,0.2,0.5,0.1,0.7c-0.6,0.8-1.2,1.6-1.7,2.4C292.1,325.4,291.9,325.4,291.8,325.5z
						 M295.6,320.7c-0.1,0-0.3,0-0.4-0.1c-0.2-0.2-0.2-0.5,0-0.7c0.6-0.7,1.3-1.5,1.9-2.3c0.2-0.2,0.5-0.3,0.7-0.1
						c0.2,0.2,0.3,0.5,0.1,0.7c-0.7,0.9-1.3,1.7-2,2.4C295.8,320.7,295.7,320.7,295.6,320.7z M299.4,315.9c-0.1,0-0.2,0-0.3-0.1
						c-0.2-0.2-0.3-0.5-0.1-0.7c0.6-0.8,1.1-1.6,1.7-2.5c0.2-0.2,0.5-0.3,0.7-0.1c0.2,0.2,0.3,0.5,0.1,0.7c-0.6,0.9-1.2,1.7-1.7,2.5
						C299.6,315.8,299.5,315.9,299.4,315.9z M302.7,310.8c-0.1,0-0.2,0-0.3-0.1c-0.2-0.1-0.3-0.5-0.2-0.7c0.5-0.9,1.1-1.7,1.6-2.6
						c0.1-0.2,0.4-0.3,0.7-0.2c0.2,0.1,0.3,0.4,0.2,0.7c-0.5,0.9-1.1,1.8-1.6,2.6C303,310.7,302.9,310.8,302.7,310.8z M305.8,305.6
						c-0.1,0-0.2,0-0.3-0.1c-0.2-0.1-0.3-0.4-0.2-0.7c0.5-0.9,1-1.8,1.5-2.7c0.1-0.2,0.4-0.3,0.7-0.2c0.2,0.1,0.3,0.4,0.2,0.7
						c-0.5,0.9-1,1.8-1.5,2.7C306.1,305.5,306,305.6,305.8,305.6z M308.8,300.2c-0.1,0-0.2,0-0.3-0.1c-0.2-0.1-0.3-0.4-0.2-0.7
						c0.5-0.9,1-1.8,1.4-2.7c0.1-0.2,0.4-0.3,0.7-0.2c0.2,0.1,0.3,0.4,0.2,0.7c-0.5,0.9-0.9,1.8-1.4,2.7
						C309.1,300.1,309,300.2,308.8,300.2z M311.6,294.8c-0.1,0-0.2,0-0.3-0.1c-0.2-0.1-0.3-0.4-0.2-0.7c0.5-0.9,0.9-1.8,1.4-2.7
						c0.1-0.2,0.4-0.3,0.7-0.2c0.2,0.1,0.3,0.4,0.2,0.7c-0.4,0.9-0.9,1.8-1.4,2.7C312,294.7,311.8,294.8,311.6,294.8z M314.4,289.4
						c-0.1,0-0.2,0-0.3,0c-0.2-0.1-0.3-0.4-0.2-0.7c0.5-1,0.9-1.9,1.3-2.7c0.1-0.2,0.4-0.4,0.7-0.2c0.2,0.1,0.4,0.4,0.2,0.7
						c-0.4,0.8-0.8,1.7-1.3,2.8C314.7,289.2,314.5,289.3,314.4,289.4z"/>
				</g>
				<g>
					<path class="st8" d="M292.4,353.2c-0.2,0-0.3-0.1-0.5-0.2c-0.3-0.4-0.5-0.8-0.8-1.3c-0.1-0.2,0-0.5,0.2-0.7
						c0.2-0.1,0.5,0,0.7,0.2c0.2,0.5,0.5,0.9,0.7,1.2c0.2,0.2,0.1,0.5-0.1,0.7C292.6,353.2,292.5,353.2,292.4,353.2z"/>
				</g>
			</g>
			<g>
				<path class="st8" d="M330.9,197.6c-0.1,0-0.1,0-0.2,0c-2.2-0.7-4.5-1.1-6.7-1.3c-0.3,0-0.5-0.3-0.5-0.5c0-0.3,0.3-0.5,0.5-0.5
					c2.3,0.2,4.6,0.7,6.9,1.3c0.3,0.1,0.4,0.4,0.3,0.6C331.3,197.4,331.1,197.6,330.9,197.6z"/>
			</g>
			<g>
				<path class="st8" d="M365.1,230.1c-0.2,0-0.4-0.1-0.5-0.3c-0.1-0.2-11.8-23.8-31.3-31.3c-0.3-0.1-0.4-0.4-0.3-0.6
					c0.1-0.3,0.4-0.4,0.6-0.3c19.9,7.7,31.7,31.6,31.8,31.8c0.1,0.2,0,0.5-0.2,0.7C365.3,230,365.2,230.1,365.1,230.1z"/>
			</g>
		</g>
		<g>
			<g id="XMLID_00000156588012956882844630000008962691412971469455_">
				<g>
					<path class="st4" d="M412.6,349.2c11.1,2.5,21.4,7.9,30.8,14.8c-45-25.8-70.5-6.3-67.3,27.2c-2.4-1.4-4.8-2.8-7.2-4.1
						C368,382.4,361.5,337.5,412.6,349.2z"/>
					<path class="st5" d="M407.2,410.5c-10.7-7-21-13.4-31.2-19.3c-3.3-33.5,22.3-53,67.3-27.2c28.8,21.2,49,57,56.2,71
						c-3.9,0.4-7.5,3.1-8.9,7c-0.4,1.1-0.6,2.2-0.6,3.3l0,0c-18.4-13-59.1-39.6-50.2-12.1C428.7,425,417.8,417.4,407.2,410.5z"/>
					<path class="st9" d="M368.8,387.1c2.4,1.3,4.8,2.7,7.2,4.1c10.1,5.8,20.5,12.2,31.2,19.3c0.1,17.7-3.3,34.8-8.2,50.2
						c-0.6-0.2-1.2-0.4-1.7-0.6c-37.6-12.2-66.9-18-68.7-13.1l-18.5-6.6c8-22.5-3.8-47.2-26.2-55.2c-22.5-8-47.2,3.8-55.2,26.2
						l-24.5-8.7c6.5-17.7,8.8-39.5,1.2-65.5C247.9,338.2,302.6,350.3,368.8,387.1z"/>
					<path class="st4" d="M499.5,435c1.6-0.2,3.2,0,4.8,0.6c5.6,2,8.5,8.1,6.5,13.6c-2,5.6-8.1,8.5-13.6,6.5
						c-4.5-1.6-7.2-5.8-7.1-10.3c0-1.1,0.2-2.2,0.6-3.3C492.1,438.1,495.6,435.4,499.5,435z"/>
					<path class="st10" d="M188.7,337.6c5.4-0.3,11-0.4,16.8-0.3c7.6,25.9,5.3,47.8-1.2,65.5l-16.1-5.7
						C194.1,381.1,196.1,361.2,188.7,337.6L188.7,337.6z"/>
					<path class="st5" d="M188.7,337.6L188.7,337.6c7.4,23.6,5.4,43.5-0.5,59.5L99,365.4C99,365.4,129.7,340.7,188.7,337.6z"/>
					<path class="st11" d="M439.8,433.3c1.7,1.3,3.4,2.5,5.1,3.8c2.8,14.8,1.8,28.1-1.2,39.8c-8.7-3.6-18.2-7.2-28.2-10.7
						c-5.6-2-11.1-3.9-16.4-5.6c4.9-15.4,8.3-32.5,8.2-50.2C417.8,417.4,428.7,425,439.8,433.3z"/>
					<path class="st12" d="M265.8,395.7c-2.6,0.3-5.2,1-7.6,1.9c-3.6,1.4-7,3.6-9.8,6.3c-2.1,2-3.8,4.2-5.3,6.7
						c-0.9,1.6-1.7,3.3-2.4,5.1c-5.6,15.9,2.7,33.4,18.6,39c1.8,0.6,3.7,1.1,5.5,1.4c2.9,0.5,5.8,0.5,8.6,0.1
						c3.9-0.5,7.7-1.8,11-3.7c2.3-1.3,4.4-2.9,6.3-4.7c1.6-1.5,3-3.2,4.2-5c0.9-1.4,1.7-2.8,2.4-4.3c0.3-0.8,0.7-1.6,1-2.4
						c5.6-15.9-2.7-33.4-18.6-39c-0.8-0.3-1.7-0.5-2.5-0.8c-1.6-0.4-3.2-0.7-4.8-0.9C270.2,395.4,268,395.4,265.8,395.7z
						 M228.8,411.5c8-22.5,32.7-34.2,55.2-26.2c22.5,8,34.2,32.7,26.2,55.2c-8,22.5-32.7,34.2-55.2,26.2
						C232.5,458.7,220.8,434,228.8,411.5z"/>
					<path class="st13" d="M277.2,396.4c0.8,0.2,1.7,0.5,2.5,0.8c15.9,5.6,24.2,23.1,18.6,39c-0.3,0.8-0.6,1.6-1,2.4
						C291.2,425.7,283.3,409.3,277.2,396.4z"/>
					<path class="st14" d="M272.4,395.6c1.6,0.2,3.2,0.4,4.8,0.9c6.1,12.9,14,29.3,20.1,42.1c-0.7,1.5-1.5,3-2.4,4.3
						C289,430.4,279.7,410.9,272.4,395.6z"/>
					<path class="st13" d="M265.8,395.7c2.2-0.3,4.4-0.3,6.6-0.1c7.3,15.4,16.6,34.8,22.5,47.3c-1.2,1.8-2.6,3.5-4.2,5
						C283.3,432.4,272.7,410,265.8,395.7z"/>
					<path class="st14" d="M258.2,397.6c2.4-1,5-1.6,7.6-1.9c6.8,14.3,17.5,36.7,24.9,52.3c-1.9,1.8-4,3.4-6.3,4.7
						C278.2,439.5,266.5,414.9,258.2,397.6z"/>
					<path class="st13" d="M248.4,403.9c2.8-2.7,6.2-4.8,9.8-6.3c8.3,17.3,20,41.9,26.2,55c-3.4,1.9-7.1,3.2-11,3.7
						C266.5,441.8,255.8,419.4,248.4,403.9z"/>
					<path class="st5" d="M399.1,460.6c5.3,1.7,10.8,3.6,16.4,5.6c10,3.6,19.5,7.2,28.2,10.7c19.6,8,35.3,15.6,44,21.3
						c-1.2,1.1-2.2,2.6-2.8,4.2c-0.6,1.7-0.7,3.4-0.5,5.1c-10.4-1.1-27.5-5.1-47.9-11.3c-8.9-2.7-18.5-5.9-28.3-9.4
						c-5.7-2-11.3-4.1-16.6-6.1c-0.5-0.2-0.9-0.3-1.4-0.5c0,0-105.8-49,7.2-20.1C397.9,460.2,398.5,460.4,399.1,460.6z"/>
					<path class="st4" d="M328.7,447c1.7-4.9,31.1,0.8,68.7,13.1c-112.9-28.9-7.2,20.1-7.2,20.1C353.3,465.9,326.9,451.9,328.7,447z
						"/>
					<path class="st4" d="M487.7,498.2c2.8-2.6,7-3.6,10.8-2.2c5.6,2,8.5,8.1,6.5,13.6c-2,5.6-8.1,8.5-13.6,6.5
						c-3.9-1.4-6.5-4.8-7-8.6c-0.2-1.7-0.1-3.4,0.5-5.1C485.5,500.8,486.5,499.4,487.7,498.2z"/>
					<path class="st14" d="M243.1,410.6c1.5-2.5,3.3-4.8,5.3-6.7c7.4,15.5,18.1,38,25,52.4c-2.8,0.4-5.7,0.3-8.6-0.1
						C259.4,444.8,250.5,426.2,243.1,410.6z"/>
					<path class="st13" d="M240.7,415.7c0.6-1.8,1.5-3.5,2.4-5.1c7.5,15.6,16.3,34.2,21.7,45.5c-1.9-0.3-3.7-0.8-5.5-1.4
						C243.4,449.1,235.1,431.6,240.7,415.7z"/>
					<path class="st9" d="M310.2,440.4l18.5,6.6c-1.7,4.9,24.6,18.9,61.5,33.2c0.4,0.2,0.9,0.4,1.4,0.5
						c-11.4,26.3-24.7,43.9-25,44.2c-12.6-1.3-24.7-2.8-36.2-4.7c-2.8-0.4-5.5-0.9-8.2-1.4c-74.4-13.2-124.4-38.1-157.9-64.1
						c7.4-5.3,29.3-22.9,39.9-51.9l24.5,8.7c-8,22.5,3.8,47.2,26.2,55.2C277.5,474.7,302.2,462.9,310.2,440.4z"/>
					<path class="st11" d="M188.2,397.1l16.1,5.7c-10.7,29-32.5,46.6-39.9,51.9c-4.6-3.6-8.9-7.2-12.9-10.8
						C155.7,441.1,177.9,425.2,188.2,397.1z"/>
					<path class="st5" d="M99,365.4l89.2,31.7c-10.3,28.1-32.5,44-36.7,46.8C107.3,404.2,99,365.4,99,365.4z"/>
					<path class="st11" d="M391.6,480.7c5.3,2,10.9,4.1,16.6,6.1c9.9,3.5,19.4,6.7,28.3,9.4c-10,20.1-23.9,31.8-23.9,31.8
						c-2-0.1-4-0.2-6-0.2c-13.9-0.6-27.3-1.6-40-2.8C366.8,524.6,380.2,507,391.6,480.7z"/>
					<path class="st4" d="M453.6,564.4c-2.8-2.8-3.9-7.1-2.5-11.1c0.4-1.1,0.9-2.1,1.6-3c2.7-3.5,7.6-5.1,12-3.5
						c5.6,2,8.5,8.1,6.5,13.6c-2,5.6-8.1,8.5-13.6,6.5C456,566.4,454.7,565.5,453.6,564.4z"/>
					<path class="st5" d="M366.6,524.9c12.7,1.3,26.1,2.2,40,2.8c-25.3,16,23.6,21.1,46.1,22.6l0,0c-0.7,0.9-1.2,1.9-1.6,3
						c-1.4,4-0.3,8.2,2.5,11.1c-14.4,6.3-52.7,21.4-88.4,19.6c-51.4-8.4-58.8-39.8-34.8-63.8l0,0
						C341.9,522.1,353.9,523.7,366.6,524.9z"/>
					<path class="st4" d="M330.4,520.2L330.4,520.2c-24,24-16.5,55.4,34.8,63.8c-11.6-0.6-23-2.9-33.2-7.9
						c-49.6-24.4-9.8-57.3-9.8-57.3l0,0C324.9,519.3,327.6,519.8,330.4,520.2z"/>
				</g>
			</g>
			<g>
				<g>
					<path class="st15" d="M209.7,469.2c0,0.1-0.1,0.3-0.2,0.4c-0.8,1.4-2.5,1.9-3.9,1.2c-5.9-3.2-11.7-6.5-17.2-10
						c-1.4-0.8-1.8-2.6-0.9-4c0.8-1.4,2.6-1.8,4-0.9c5.4,3.4,11.1,6.7,16.9,9.8C209.6,466.3,210.2,467.8,209.7,469.2z"/>
				</g>
				<g>
					<path class="st15" d="M313.2,505.4c-0.5,1.3-1.9,2.2-3.3,1.9c-35-7.3-66.7-17.8-94.2-31.3c-1.4-0.7-2-2.4-1.3-3.9
						c0.7-1.4,2.4-2,3.9-1.3c27.1,13.3,58.4,23.7,92.9,30.9c1.6,0.3,2.6,1.9,2.2,3.4C313.3,505.1,313.3,505.2,313.2,505.4z"/>
				</g>
			</g>
		</g>
		<g>
			<g>
				<path class="st6" d="M365.6,284.5c4.6,2.6,7.7,6.7,7.7,6.7s4.2,5.4,8.4,14.1l0,0c4.7,9.7,9.2,23.3,7.7,37.9
					c-8.4-12.1-24.8-6.9-24.8-6.9l0,0c-0.4-3.6-1.4-7.9-3.4-12.8c-0.8-2-1.8-4.1-3-6.3c-2.4-4.4-5.4-8.4-8.8-12.2
					c-2.3-2.5-5.1-6.9-3.9-12c0,0,0,0,0,0c0.5-2.2,1.8-4.5,4.3-6.8C355.5,281,361.2,282,365.6,284.5z"/>
				<path class="st5" d="M389.4,343.2c-0.1,1-0.2,1.9-0.4,2.9c-0.4,2.5-0.9,4.8-1.6,6.8c-4.4-11.4-22.7-9.8-22.7-9.8l0,0
					c0.2-1.8,0.2-4.1-0.1-6.8l0,0C364.6,336.4,381,331.1,389.4,343.2z"/>
				<path class="st6" d="M364.7,343.2c0,0,18.3-1.6,22.7,9.8c-6.5,20.7-23.5,14.4-27.1,10.4c-1.3-1.4-2.2-3.3-2.6-5.4
					c-0.8-4.1,0.7-8.6,6.1-10C363.8,348,364.5,346.3,364.7,343.2L364.7,343.2z"/>
				<path class="st6" d="M302.4,364.7c5.2-14.9,15.8-17,25.4-15.3c10.6,1.9,8.7,15.6,8.7,16.2c0,0,0,0,0,0s-10.5,15.6-4.2,33.2
					c-16-4.5-30.8,7.2-30.8,7.2c-2.4-10.8-3-23.2-0.8-34.8C301.1,368.8,301.7,366.7,302.4,364.7z"/>
				<path class="st2" d="M338.3,411.7c3.4,9.3,0.4,13.3-1.2,17.2c-2,4.8-15.7,28.2-25.3,21.4C311.8,450.3,334.3,437.8,338.3,411.7z"
					/>
				<path class="st3" d="M334.8,404.3c1.6,2.8,2.7,5.2,3.5,7.4c-4,26.1-26.5,38.6-26.5,38.6c-9.6-6.7-1.6-23-1.6-23
					c-2.9-4.1-5.5-9.5-7.3-15.8C302.9,411.5,320.4,398.9,334.8,404.3z"/>
				<path class="st5" d="M332.3,398.8c0.7,1.8,1.5,3.7,2.5,5.5c-14.4-5.4-31.9,7.2-31.9,7.2c-0.5-1.8-1-3.6-1.4-5.5
					C301.4,406,316.2,394.3,332.3,398.8z"/>
				<g>
					<path class="st8" d="M302.4,365.2c-0.1,0-0.1,0-0.2,0c-0.3-0.1-0.4-0.4-0.3-0.6c5.5-15.8,17.1-17.2,25.9-15.6
						c0.3,0.1,0.4,0.3,0.4,0.6c0,0.3-0.3,0.5-0.6,0.4c-12.2-2.3-20.6,2.8-24.8,14.9C302.8,365,302.6,365.2,302.4,365.2z"/>
				</g>
				<g>
					<path class="st8" d="M336.5,366c0,0-0.1,0-0.1,0c-0.3,0-0.5-0.3-0.4-0.5c0.3-2.3,1.2-13.9-8.3-15.6c-0.3-0.1-0.4-0.3-0.4-0.6
						c0.1-0.3,0.3-0.4,0.6-0.4c10.6,2,9.3,15.2,9.1,16.7C336.9,365.8,336.7,366,336.5,366z"/>
				</g>
				<g>
					<path class="st8" d="M361,355.3c-0.1,0-0.2,0-0.2,0c-0.3-0.1-0.4-0.4-0.3-0.7l2.9-6.8c0.1-0.3,0.4-0.4,0.7-0.3
						c0.3,0.1,0.4,0.4,0.3,0.7l-2.9,6.8C361.3,355.2,361.2,355.3,361,355.3z"/>
				</g>
			</g>
			<g>
				<path class="st8" d="M301.4,406.5c-0.2,0-0.4-0.2-0.4-0.4c-2.6-11.6-2.9-24-0.8-35c0.5-2.4,1.1-4.6,1.8-6.7
					c0.1-0.3,0.4-0.4,0.6-0.3c0.3,0.1,0.4,0.4,0.3,0.6c-0.7,2-1.3,4.2-1.7,6.5c-2.1,10.8-1.8,23.1,0.8,34.5c0.1,0.3-0.1,0.5-0.4,0.6
					C301.5,406.5,301.4,406.5,301.4,406.5z"/>
			</g>
			<g>
				<path class="st8" d="M332.2,399.3c-0.2,0-0.3-0.1-0.4-0.3c-6.3-17.6,4.1-33.5,4.2-33.7c0.2-0.2,0.5-0.3,0.7-0.1
					c0.2,0.2,0.3,0.5,0.1,0.7c-0.1,0.2-10.2,15.7-4.1,32.8c0.1,0.3,0,0.5-0.3,0.6C332.4,399.3,332.3,399.3,332.2,399.3z"/>
			</g>
		</g>
	</g>
</g>
</svg>