<?xml version="1.0" encoding="utf-8"?>
<!-- Generator: Adobe Illustrator 25.2.1, SVG Export Plug-In . SVG Version: 6.00 Build 0) -->
<svg version="1.1" id="Layer_1" xmlns="http://www.w3.org/2000/svg"
	xmlns:xlink="http://www.w3.org/1999/xlink" x="0px" y="0px" viewBox="0 0 1366 768"
	style="enable-background:new 0 0 1366 768;" xml:space="preserve">
<style type="text/css"> .st0{fill:#0f766e;}
</style>
<g>
	<g>
		<g id="XMLID_00000028291788194332268770000010427812660036356779_">
			<path class="st0" d="M749.5,380.7l-28,62.4c-4.1,0.2-39.7-34.4-115.3-23.1c-10.5,1.6-20.1,4.6-30,7.1
				c-32.3,8.4-70,12.1-104.3,4.3c-11.7-2.7-22.5-6.5-33.6-10.1c-56.2-18.2-121.6-28.7-180.5-18.8c-22.6,3.8-43.8,10.5-67.2,12.4
				c-43.6,3.4-89.4-10.6-132.4-5.4c-21.2,2.6-39.5,9.5-58.3,16v-66c0.4,0,0.7-0.1,1.1-0.1c32.9-4.7,66-9.4,100.2-9.7
				c40.7-0.4,81.5,5.5,120.7,13.9c20.4,4.4,40.6,9.4,61.7,12c7.8,1,15.9,1.5,23.5,0.6c8.1-1,15.3-3.6,22.6-5.8
				c43.4-13.1,97.6-12.8,143.2,0.6c26.1,7.7,49.3,18.9,76.1,25.5C665.4,425,665.4,326.6,749.5,380.7z"/>
			<path class="st0" d="M738.4,312.2v34.2c-12.5,0.5-145.2,3.6-157.7,2.9c-6.4-0.3-12.9-0.8-18.9-2.2c-1.6-0.4-3.3-0.9-4.4-1.8
				c-1-0.9-1.3-2-1.5-3c-0.7-3.8-1.3-7.9,2.3-11c1.9-1.6,4.7-2.7,7.6-3.7C582,321.7,719.9,314.5,738.4,312.2z"/>
			<path class="st0" d="M702.6,175.6l-14.3,89.9c-60.6-36.2-87.1-18.2-93.6-14.1c-15.4,9.7-11.7,25.8-21.2,38
				c-7.5,9.6-23,16.2-39.5,19.6c-16.5,3.4-34.1,4.1-51.4,4.7c-19.5,0.7-39.9,1.3-57.7-3.7c-35.2-9.9-48.4-38.2-82.8-49
				c-14.4-4.5-31-5.5-47.2-6c-15.3-0.5-32-0.5-44.4,5c-16.8,7.5-19.8,22.1-32.8,32c-8.9,6.8-22,10.9-35.4,13.7
				c-36.4,7.6-75.9,6.6-114.3,5.3c-22.5-0.8-45.4-1.6-67.8-0.8v-74.8c12.7-1.2,25.4-2.5,38.1-3.7c19.2-1.9,39.5-4,53.9-12.1
				c14.4-8,18.6-24,3.3-31.3c-7.9-3.8-19-4.5-26.4-8.5c-9.1-5-10.1-14.1-4.8-20.9c5.3-6.8,15.4-11.7,26-15.5
				c43.9-15.9,97.6-16.7,145.7-26.9c3.4-0.7,6.9-1.6,9.2-3.3c2.1-1.6,2.8-3.7,3-5.7c1.3-10.9-8.8-21.5-22.6-28.4
				c-13.9-6.9-31.2-10.6-48.4-13.4C119.4,56.2,59.5,55.6,0,56.2V-0.5h274.7c3.9,1,7.8,2.1,11.7,3.3c20.5,6.2,41.7,17,39.8,31
				c-0.9,6.5-6.5,13.7-0.1,18.8c3.9,3.1,10.8,4,17.1,4.5c16.4,1.3,33.1,1.4,49.6,0.4c8.3-0.5,17.5-1.8,21.9-6.1
				c4.4-4.4,2-10.1-0.3-15.1c-5.2-11.1-8.5-24.1,2.6-33.5c1.4-1.2,3.1-2.3,4.8-3.3h231.8l-35.1,31.2c-8.1,0.8-16.2,1.6-24.3,2.4
				c-15.4,1.5-31.1,3.1-45,7.4c-13.9,4.3-26,12-28.6,21.4c-2.2,8,2.5,16.1,6.2,23.9c6.9,14.5,9.6,31.5-5.2,43.5
				c-16,13-45.8,15.2-68.9,23.1c-34,11.6-53.2,37.5-45.2,60.8c1.4,4.1,3.7,8.2,8.5,11.1c5.2,3.2,12.5,4.6,19.5,5.7
				c13.3,2.2,26.9,3.9,40.6,3.2c13.7-0.7,27.4-4.2,35.8-10.9c18.1-14.4,5.5-37.3,23-52c9-7.6,24.7-10.8,39.9-11.8
				C630.3,154.9,688.4,172.7,702.6,175.6z M435.2,101.3c2.2-2,3.8-4.4,2.9-6.8c-1.3-3.8-8.1-5.8-14.3-6.7c-6.4-1-13.7-1.3-19.2,0.9
				c-7.3,2.9-9,9-14.6,13c-21.8,15.7-90.9-4.7-89.7,28.7c0.2,4,1.9,8.4-2.2,11.5c-1.9,1.4-4.7,2.2-7.4,2.9c-16,4-33.4,6.4-48.2,12
				c-14.8,5.6-26.9,15.8-23.7,26.3c2.7,8.8,15.6,15.4,29.6,18.1c14,2.7,29,2.1,43.6,1.6c7.5-0.3,16.7-1.4,19-5.8
				c2.1-4.2-3.8-8.2-6.1-12.4c-3.6-6.5,2.3-13.9,10.9-18.3c8.6-4.4,19.5-6.7,29.8-9.5c4.6-1.2,9.3-2.6,11.9-5.2
				c4.6-4.5,1.1-10.4,1.9-15.6c1.6-10,18.3-16.3,33.7-19.8C408.7,112.6,426.2,109.7,435.2,101.3z"/>
		</g>
	</g>
	<g>
		<g id="XMLID_00000040543914414535088260000006201303350078944176_">
			<path class="st0" d="M574.5,608.9c-15.2-1-30.9-4.2-39.9-11.8c-17.5-14.7-4.8-37.6-23-52c-8.4-6.7-22.2-10.1-35.8-10.9
				c-13.7-0.7-27.3,1-40.6,3.2c-7,1.1-14.4,2.5-19.5,5.7c-4.8,2.9-7.1,7.1-8.5,11.1c-8,23.3,11.2,49.2,45.2,60.8
				c23.2,7.9,52.9,10.1,68.9,23.1c14.8,12,12.1,29,5.2,43.5c-3.7,7.8-8.4,15.9-6.2,23.9c2.6,9.5,14.7,17.1,28.6,21.4
				c13.9,4.3,29.5,7.4,45,7.4c152.3,0,158.6-99,166.7-98.2L912.4,768H421.7c-1.8-1-3.4-2.1-4.8-3.3c-11.1-9.4-7.8-22.3-2.6-33.5
				c2.3-5,4.7-10.6,0.3-15.1c-4.4-4.3-13.6-5.6-21.9-6.1c-16.5-1.1-33.2-1-49.6,0.4c-6.3,0.5-13.2,1.4-17.1,4.5
				c-6.4,5.1-0.8,12.4,0.1,18.8c2,14-19.3,24.8-39.8,31c-3.8,1.2-7.7,2.2-11.7,3.3H0v-56.7c59.5,0.6,119.4,0,176.8-9.4
				c17.2-2.8,34.5-6.5,48.4-13.4c13.9-6.9,24-17.5,22.6-28.4c-0.3-2-0.9-4.1-3-5.7c-2.3-1.7-5.8-2.6-9.2-3.3
				c-48.1-10.2-101.8-11.1-145.7-26.9c-10.6-3.8-20.7-8.7-26-15.5c-5.3-6.8-4.4-15.8,4.8-20.9c7.5-4.1,18.6-4.8,26.4-8.5
				C110.6,572,106.4,556,92,548c-14.4-8-34.7-10.2-53.9-12.1c-12.7-1.2-25.4-2.5-38.1-3.7v-74.8c22.5,0.8,45.3,0,67.8-0.8
				c38.4-1.3,77.9-2.4,114.3,5.3c13.4,2.8,26.5,7,35.4,13.7c13,9.9,16,24.6,32.8,32c12.4,5.5,29.1,5.5,44.4,5
				c16.2-0.6,32.8-1.5,47.2-6c34.5-10.8,47.6-39.1,82.8-49c17.8-5,38.2-4.4,57.7-3.7c17.4,0.6,35,1.3,51.4,4.7
				c16.5,3.4,32,10,39.5,19.6c9.6,12.2,5.6,28.8,21.2,38c69.5,40.8,55.7-57.6,247.7-55.8l-26,136.4
				C702.4,551.9,630.3,612.7,574.5,608.9z M393.3,651.5c-15.4-3.5-32.1-9.8-33.7-19.8c-0.8-5.3,2.7-11.1-1.9-15.6
				c-2.6-2.6-7.4-4-11.9-5.2c-10.3-2.7-21.2-5-29.8-9.5c-8.6-4.4-14.5-11.8-10.9-18.3c2.3-4.2,8.2-8.2,6.1-12.4
				c-2.2-4.4-11.4-5.5-19-5.8c-14.6-0.6-29.6-1.1-43.6,1.6c-14,2.7-27,9.3-29.6,18.1c-3.2,10.5,9,20.7,23.7,26.3
				c14.8,5.6,32.1,7.9,48.2,12c2.7,0.7,5.5,1.5,7.4,2.9c4.1,3,2.3,7.5,2.2,11.5c-1.3,33.3,67.9,13,89.7,28.7
				c5.6,4.1,7.3,10.1,14.6,13c5.6,2.2,12.8,1.9,19.2,0.9c6.2-0.9,13-2.9,14.3-6.7c0.8-2.4-0.8-4.8-2.9-6.8
				C426.2,657.8,408.7,654.9,393.3,651.5z"/>
		</g>
	</g>
</g>
</svg>