<?xml version="1.0" encoding="utf-8"?>
<!-- Generator: Adobe Illustrator 25.2.1, SVG Export Plug-In . SVG Version: 6.00 Build 0) -->
<svg version="1.1" id="Layer_1" xmlns="http://www.w3.org/2000/svg"
	xmlns:xlink="http://www.w3.org/1999/xlink" x="0px" y="0px" viewBox="0 0 1366 768"
	style="enable-background:new 0 0 1366 768;" xml:space="preserve">
<style type="text/css">
	.st0{fill:#0D9488;}
	.st1{fill:#FFFFFF;}
	.st2{fill:#61909B;}
	.st3{fill:#82B2BF;}
	.st4{fill:#2C6FD1;}
	.st5{fill:#4884DF;}
	.st6{fill:#DFEDF2;}
	.st7{fill:#B7C9CE;}
	.st8{fill:#51666B;}
	.st9{fill:#DFECF2;}
	.st10{fill:#F3DD28;}
	.st11{fill:#F9D82B;}
	.st12{fill:#002244;}
	.st13{fill:#88939A;}
	.st14{fill:#ABB4B9;}
	.st15{fill:#93A8B2;}
	.st16{clip-path:url(#SVGID_2_);}
	.st17{fill:#115e59;}
	.st18{fill:#6BADFC;}
	.st19{fill:#EFA729;}
	.st20{fill:#D1420B;}
	.st21{fill:#E77622;}
	.st22{fill:#E35D1E;}
	.st23{fill:#7D3893;}
	.st24{fill:#AC65C4;}
	.st25{fill:#904DA3;}
	.st26{clip-path:url(#SVGID_2_);fill:#F9D82B;}
	.st27{fill:#9B197A;}
	.st28{fill:#CC3EA1;}
	.st29{fill:#B33185;}
	.st30{clip-path:url(#SVGID_2_);fill:#EFA729;}
</style>
<g>
	<defs>
		<rect id="SVGID_1_" x="-1.8" y="-0.9" width="1373" height="772.3"/>
	</defs>
	<clipPath id="SVGID_2_">
		<use xlink:href="#SVGID_1_"  style="overflow:visible;"/>
	</clipPath>
	<g class="st16">
		<g id="XMLID_3_">
			<path class="st17" d="M751.5,382.2l-28.2,62.7c-4.1,0.2-39.9-34.6-115.8-23.2c-10.6,1.6-20.2,4.6-30.2,7.2
				c-32.5,8.5-70.4,12.1-104.8,4.3c-11.7-2.7-22.7-6.6-33.8-10.2c-56.4-18.3-122.2-28.8-181.4-18.8c-22.7,3.8-44,10.6-67.5,12.4
				c-43.8,3.4-89.8-10.7-133-5.5c-21.3,2.6-39.7,9.6-58.6,16v-66.4c0.4,0,0.7-0.1,1.1-0.1c33-4.7,66.4-9.4,100.7-9.8
				c40.9-0.4,81.9,5.6,121.3,14c20.5,4.4,40.8,9.5,62,12.1c7.9,1,16,1.6,23.6,0.6c8.1-1,15.3-3.6,22.7-5.8
				c43.6-13.1,98.1-12.9,143.9,0.6c26.2,7.7,49.5,19,76.5,25.6C667,426.7,667,327.8,751.5,382.2z"/>
			<path class="st17" d="M740.4,313.4v34.4c-12.6,0.5-145.9,3.6-158.5,3c-6.5-0.3-13-0.8-19-2.2c-1.7-0.4-3.3-0.9-4.4-1.8
				c-1-0.9-1.3-2-1.5-3.1c-0.8-3.8-1.3-8,2.3-11.1c1.9-1.6,4.8-2.8,7.6-3.8C583.2,322.9,721.8,315.7,740.4,313.4z"/>
			<path class="st17" d="M704.3,176l-14.4,90.4c-60.9-36.4-87.5-18.3-94-14.2c-15.4,9.8-11.7,25.9-21.4,38.2
				c-7.6,9.7-23.2,16.3-39.7,19.7c-16.6,3.4-34.3,4.1-51.7,4.7c-19.6,0.7-40.1,1.3-58-3.7c-35.4-10-48.6-38.4-83.2-49.3
				c-14.5-4.6-31.2-5.5-47.5-6.1c-15.4-0.5-32.1-0.5-44.6,5c-16.9,7.5-19.9,22.3-33,32.2c-9,6.8-22.1,11-35.6,13.8
				c-36.6,7.7-76.3,6.6-114.9,5.3c-22.6-0.8-45.6-1.6-68.2-0.8V236c12.8-1.2,25.5-2.5,38.3-3.7c19.3-1.9,39.7-4.1,54.2-12.1
				c14.4-8.1,18.7-24.1,3.3-31.5c-7.9-3.8-19.1-4.5-26.6-8.6c-9.2-5-10.1-14.1-4.8-21c5.3-6.8,15.5-11.8,26.1-15.6
				c44.1-15.9,98.1-16.8,146.4-27c3.4-0.7,7-1.6,9.2-3.3c2.1-1.6,2.8-3.7,3-5.7c1.3-11-8.8-21.6-22.8-28.5
				c-14-6.9-31.4-10.7-48.7-13.5C118.2,56.1,58.1,55.4-1.8,56.1v-57h276.1c4,1,7.9,2.1,11.7,3.3c20.6,6.2,41.9,17.1,40,31.1
				c-0.9,6.5-6.6,13.8-0.1,18.9c3.9,3.1,10.8,4,17.2,4.5c16.5,1.3,33.3,1.4,49.8,0.4c8.3-0.5,17.6-1.8,22-6.1
				c4.5-4.4,2-10.1-0.3-15.1c-5.2-11.2-8.5-24.2,2.6-33.6c1.5-1.2,3.1-2.3,4.9-3.3H655l-35.3,31.3c-8.2,0.8-16.3,1.6-24.4,2.4
				c-15.5,1.5-31.3,3.1-45.2,7.5c-14,4.4-26.1,12-28.8,21.5c-2.2,8.1,2.5,16.2,6.2,24c6.9,14.6,9.7,31.6-5.2,43.7
				c-16.1,13-46,15.3-69.3,23.2c-34.1,11.6-53.5,37.7-45.4,61.1c1.4,4.1,3.7,8.2,8.5,11.2c5.2,3.2,12.5,4.6,19.6,5.7
				c13.3,2.2,27.1,3.9,40.8,3.2c13.7-0.7,27.6-4.2,36-10.9c18.2-14.5,5.5-37.5,23.1-52.3c9.1-7.6,24.8-10.8,40.1-11.8
				C631.7,155.2,690.1,173.2,704.3,176z M435.7,101.4c2.2-2,3.8-4.5,3-6.8c-1.3-3.8-8.2-5.8-14.3-6.8c-6.5-1-13.8-1.3-19.3,0.9
				c-7.3,2.9-9,9-14.7,13.1c-21.9,15.8-91.4-4.7-90.1,28.8c0.2,4,1.9,8.5-2.2,11.5c-1.9,1.4-4.7,2.2-7.4,2.9
				c-16.1,4.1-33.6,6.4-48.4,12c-14.8,5.6-27,15.9-23.8,26.4c2.7,8.9,15.7,15.5,29.8,18.2c14.1,2.7,29.1,2.1,43.8,1.6
				c7.6-0.3,16.8-1.4,19.1-5.8c2.2-4.2-3.8-8.2-6.1-12.5c-3.6-6.6,2.3-13.9,11-18.4c8.7-4.5,19.6-6.8,30-9.5c4.6-1.2,9.3-2.7,12-5.2
				c4.6-4.5,1.1-10.4,1.9-15.7c1.6-10.1,18.4-16.4,33.9-19.9C409,112.7,426.5,109.8,435.7,101.4z"/>
		</g>
	</g>
	<g class="st16">
		<g id="XMLID_2_">
			<path class="st17" d="M575.7,611.5c-15.3-1-31.1-4.2-40.1-11.8c-17.6-14.8-4.8-37.8-23.1-52.3c-8.4-6.7-22.3-10.2-36-10.9
				c-13.7-0.7-27.5,1-40.8,3.2c-7.1,1.2-14.4,2.5-19.6,5.7c-4.8,3-7.1,7.1-8.5,11.2c-8.1,23.5,11.3,49.5,45.4,61.1
				c23.3,7.9,53.2,10.2,69.3,23.2c14.9,12.1,12.1,29.1,5.2,43.7c-3.7,7.9-8.5,15.9-6.2,24c2.6,9.5,14.8,17.2,28.8,21.5
				c14,4.4,29.7,7.5,45.2,7.5c153.1,0,159.4-99.5,167.5-98.7l152.4,132.4H422c-1.8-1-3.4-2.1-4.9-3.3c-11.2-9.4-7.8-22.4-2.6-33.6
				c2.3-5,4.8-10.7,0.3-15.1c-4.4-4.4-13.7-5.6-22-6.1c-16.6-1.1-33.3-1-49.8,0.4c-6.3,0.5-13.3,1.4-17.2,4.5
				c-6.4,5.2-0.8,12.4,0.1,18.9c2,14-19.4,25-40,31.1c-3.8,1.2-7.8,2.3-11.7,3.3H-1.8v-57c59.8,0.6,120,0,177.7-9.4
				c17.3-2.8,34.7-6.6,48.7-13.5c14-6.9,24.1-17.5,22.8-28.5c-0.3-2-0.9-4.1-3-5.7c-2.3-1.7-5.8-2.6-9.2-3.3
				c-48.3-10.3-102.3-11.1-146.4-27c-10.6-3.8-20.8-8.8-26.1-15.6c-5.3-6.8-4.4-15.9,4.8-21c7.5-4.1,18.6-4.8,26.6-8.6
				c15.4-7.4,11.1-23.4-3.3-31.5c-14.4-8.1-34.9-10.3-54.2-12.1c-12.8-1.2-25.5-2.5-38.3-3.7v-75.2c22.6,0.8,45.5,0,68.2-0.8
				c38.6-1.3,78.3-2.4,114.9,5.3c13.4,2.8,26.6,7,35.6,13.8c13.1,9.9,16.1,24.7,33,32.2c12.5,5.6,29.2,5.6,44.6,5
				c16.3-0.6,33-1.5,47.5-6.1c34.6-10.9,47.9-39.3,83.2-49.3c17.9-5,38.4-4.4,58-3.7c17.4,0.6,35.1,1.3,51.7,4.7
				c16.6,3.4,32.1,10,39.7,19.7c9.6,12.3,5.6,28.9,21.4,38.2c69.8,41,55.9-57.9,249-56.1l-26.2,137.1
				C704.2,554.3,631.7,615.3,575.7,611.5z M393.5,654.3c-15.5-3.5-32.3-9.8-33.9-19.9c-0.8-5.3,2.7-11.2-1.9-15.7
				c-2.6-2.6-7.4-4-12-5.2c-10.4-2.8-21.3-5.1-30-9.5c-8.7-4.5-14.6-11.8-11-18.4c2.3-4.2,8.3-8.2,6.1-12.5
				c-2.2-4.4-11.5-5.5-19.1-5.8c-14.7-0.6-29.8-1.1-43.8,1.6c-14.1,2.7-27.1,9.3-29.8,18.2c-3.2,10.5,9,20.8,23.8,26.4
				c14.8,5.6,32.3,8,48.4,12c2.7,0.7,5.5,1.5,7.4,2.9c4.1,3.1,2.4,7.6,2.2,11.5c-1.3,33.5,68.3,13.1,90.1,28.8
				c5.7,4.1,7.4,10.2,14.7,13.1c5.6,2.2,12.9,1.9,19.3,0.9c6.2-0.9,13-2.9,14.3-6.8c0.8-2.4-0.8-4.8-3-6.8
				C426.5,660.7,409,657.8,393.5,654.3z"/>
		</g>
	</g>
	<g class="st16">
		<g id="XMLID_00000039133045286245840610000008172731000038652831_">
			<g>
				<polygon class="st4" points="202.7,93 178.6,151.3 160.6,151.8 183.8,93.6 				"/>
				<polygon class="st18" points="202.7,93 183.8,93.6 154.7,83.8 168.2,82.3 				"/>
				<polygon class="st19" points="183.8,93.6 160.6,151.8 149.8,152.1 172.1,93.9 				"/>
				<polygon class="st11" points="183.8,93.6 172.1,93.9 144.2,84.9 122.4,87.2 110.5,83.6 132.5,81.1 131.1,75.9 130.4,72.9 
					126.2,57 133.9,61.3 140.3,56 142.5,74.4 143.2,79.9 145.9,75.4 161.7,49.4 164.9,59.9 174.1,58.6 158.2,79.2 154.7,83.8 				
					"/>
				<polygon class="st4" points="172.1,93.9 149.8,152.1 127.7,152.7 146.3,94.7 				"/>
				<polygon class="st18" points="172.1,93.9 146.3,94.7 122.4,87.2 144.2,84.9 				"/>
				<polygon class="st19" points="168.2,82.3 154.7,83.8 158.2,79.2 				"/>
				<polygon class="st5" points="146.3,94.7 127.7,152.7 104.3,145.5 122.4,87.2 				"/>
				<polygon class="st18" points="145.9,75.4 143.2,79.9 142.5,74.4 				"/>
				<polygon class="st19" points="131.1,75.9 132.5,81.1 110.7,74.1 123.5,73.3 123.5,73.3 				"/>
				<polygon class="st18" points="132.5,81.1 110.5,83.6 84.7,75.6 110.7,74.1 				"/>
				<polygon class="st18" points="130.4,72.9 131.1,75.9 123.5,73.3 				"/>
				<path class="st19" d="M122.4,87.2l-18.1,58.3l-10.2-3.1c-0.4-1.4,16.4-58.8,16.4-58.8L122.4,87.2z"/>
				<path class="st5" d="M94.2,142.3l-22-6.8l12.6-60l25.8,8C110.5,83.6,93.8,141,94.2,142.3z"/>
			</g>
		</g>
	</g>
	<g class="st16">
		<g id="XMLID_00000006706989013612849540000010538998867132632969_">
			<g>
				<polygon class="st20" points="666,644.7 651.2,686.1 638.7,687.1 652.9,645.7 				"/>
				<polygon class="st21" points="666,644.7 652.9,645.7 632.3,639.8 641.6,638.4 				"/>
				<polygon class="st19" points="652.9,645.7 638.7,687.1 631.2,687.6 644.8,646.3 				"/>
				<polygon class="st11" points="652.9,645.7 644.8,646.3 625,641 609.9,643.3 601.5,641.1 616.7,638.7 615.6,635.1 615,633.1 
					611.5,622.1 617,624.8 621.3,621 623.5,633.7 624.1,637.5 625.9,634.3 636.1,615.6 638.6,622.9 645,621.6 634.6,636.5 
					632.3,639.8 				"/>
				<polygon class="st20" points="644.8,646.3 631.2,687.6 615.8,688.8 626.8,647.7 				"/>
				<polygon class="st21" points="644.8,646.3 626.8,647.7 609.9,643.3 625,641 				"/>
				<polygon class="st19" points="641.6,638.4 632.3,639.8 634.6,636.5 				"/>
				<polygon class="st22" points="626.8,647.7 615.8,688.8 599.2,684.5 609.9,643.3 				"/>
				<polygon class="st21" points="625.9,634.3 624.1,637.5 623.5,633.7 				"/>
				<polygon class="st19" points="615.6,635.1 616.7,638.7 601.3,634.5 610.2,633.6 610.2,633.6 				"/>
				<polygon class="st21" points="616.7,638.7 601.5,641.1 583.3,636.4 601.3,634.5 				"/>
				<polygon class="st21" points="615,633.1 615.6,635.1 610.2,633.6 				"/>
				<path class="st19" d="M609.9,643.3l-10.7,41.2l-7.2-1.9c-0.3-0.9,9.5-41.5,9.5-41.5L609.9,643.3z"/>
				<path class="st22" d="M592,682.7l-15.6-4l6.8-42.2l18.2,4.7C601.5,641.1,591.7,681.7,592,682.7z"/>
			</g>
		</g>
	</g>
	<g class="st16">
		<g id="XMLID_00000103968690567246804940000006309633347267689914_">
			<g>
				<polygon class="st20" points="525.5,-8 591.9,-31 605.6,-16.4 539.9,7.4 				"/>
				<polygon class="st21" points="525.5,-8 539.9,7.4 553.3,38.9 542.1,28.7 				"/>
				<polygon class="st19" points="539.9,7.4 605.6,-16.4 613.9,-7.6 548.8,16.9 				"/>
				<polygon class="st11" points="539.9,7.4 548.8,16.9 561.9,46.8 580,63.3 585.7,75.9 567.4,59.4 564.1,64.4 562.2,67.2 
					551.9,82.5 549.9,72.9 540.7,71.4 554.4,56 558.5,51.3 552.8,52.4 519.3,58.4 525.8,48 517.8,41.3 546.9,39.3 553.3,38.9 				
					"/>
				<polygon class="st20" points="548.8,16.9 613.9,-7.6 630.7,10.4 568.5,37.8 				"/>
				<polygon class="st21" points="548.8,16.9 568.5,37.8 580,63.3 561.9,46.8 				"/>
				<polygon class="st19" points="542.1,28.7 553.3,38.9 546.9,39.3 				"/>
				<polygon class="st22" points="568.5,37.8 630.7,10.4 642,35.3 580,63.3 				"/>
				<polygon class="st21" points="552.8,52.4 558.5,51.3 554.4,56 				"/>
				<polygon class="st19" points="564.1,64.4 567.4,59.4 577.7,82.8 567.6,72.7 567.6,72.7 				"/>
				<polygon class="st21" points="567.4,59.4 585.7,75.9 598.1,103.3 577.7,82.8 				"/>
				<polygon class="st21" points="562.2,67.2 564.1,64.4 567.6,72.7 				"/>
				<path class="st19" d="M580,63.3l62-28l4.9,10.8c-0.9,1.3-61.2,29.8-61.2,29.8L580,63.3z"/>
				<path class="st22" d="M646.9,46.1l10.6,23.4l-59.3,33.9l-12.4-27.4C585.7,75.9,646,47.4,646.9,46.1z"/>
			</g>
		</g>
	</g>
	<g class="st16">
		<g id="XMLID_00000155837047850469488020000003710963387912049043_">
			<g>
				<polygon class="st20" points="285.9,694.1 291.7,773.6 271.6,784.4 264.9,705.4 				"/>
				<polygon class="st21" points="285.9,694.1 264.9,705.4 226.4,710.8 240.8,701.5 				"/>
				<polygon class="st19" points="264.9,705.4 271.6,784.4 259.6,790.8 251.9,712.4 				"/>
				<polygon class="st11" points="264.9,705.4 251.9,712.4 215.2,718 191.8,733 176.4,735.5 199.8,720.3 195.3,715.2 192.8,712.2 
					179,696.6 190.1,697.1 194.4,687.5 207.3,707 211.2,712.9 211.8,706.3 215,667.9 224.4,678.1 234.1,671.3 227.8,703.7 
					226.4,710.8 				"/>
				<polygon class="st20" points="251.9,712.4 259.6,790.8 235,804 223.1,727.8 				"/>
				<polygon class="st21" points="251.9,712.4 223.1,727.8 191.8,733 215.2,718 				"/>
				<polygon class="st19" points="240.8,701.5 226.4,710.8 227.8,703.7 				"/>
				<polygon class="st22" points="223.1,727.8 235,804 204.4,809.1 191.8,733 				"/>
				<polygon class="st21" points="211.8,706.3 211.2,712.9 207.3,707 				"/>
				<polygon class="st19" points="195.3,715.2 199.8,720.3 171.1,724.7 185.2,716.6 185.2,716.6 				"/>
				<polygon class="st21" points="199.8,720.3 176.4,735.5 142.7,741.1 171.1,724.7 				"/>
				<polygon class="st21" points="192.8,712.2 195.3,715.2 185.2,716.6 				"/>
				<path class="st19" d="M191.8,733l12.5,76.1l-13.3,2.2c-1.2-1.3-14.7-75.8-14.7-75.8L191.8,733z"/>
				<path class="st22" d="M191.1,811.3l-28.7,4.7l-19.7-74.9l33.7-5.6C176.4,735.5,189.9,809.9,191.1,811.3z"/>
			</g>
		</g>
	</g>
	<g class="st16">
		<g id="XMLID_00000146462080876987951040000002163107766491426987_">
			<g>
				<polygon class="st23" points="122.2,628.9 58.5,659.2 43.2,646.1 106.1,615.2 				"/>
				<polygon class="st24" points="122.2,628.9 106.1,615.2 89.3,585.2 101.6,594.1 				"/>
				<polygon class="st19" points="106.1,615.2 43.2,646.1 34,638.2 96.2,606.7 				"/>
				<polygon class="st11" points="106.1,615.2 96.2,606.7 79.8,578.2 59.9,563.8 52.9,551.8 72.9,566.3 75.7,560.9 77.3,557.9 
					85.8,541.5 89,550.9 98.2,551.3 86.3,568.2 82.7,573.3 88.3,571.7 121,562 115.7,573 124.4,578.8 95.6,584 89.3,585.2 				"/>
				<polygon class="st23" points="96.2,606.7 34,638.2 15.2,622.2 74.2,587.9 				"/>
				<polygon class="st24" points="96.2,606.7 74.2,587.9 59.9,563.8 79.8,578.2 				"/>
				<polygon class="st19" points="101.6,594.1 89.3,585.2 95.6,584 				"/>
				<polygon class="st25" points="74.2,587.9 15.2,622.2 1.2,598.6 59.9,563.8 				"/>
				<polygon class="st24" points="88.3,571.7 82.7,573.3 86.3,568.2 				"/>
				<polygon class="st19" points="75.7,560.9 72.9,566.3 60.1,544 71.3,553 71.3,553.1 				"/>
				<polygon class="st24" points="72.9,566.3 52.9,551.8 37.5,525.8 60.1,544 				"/>
				<polygon class="st24" points="77.3,557.9 75.7,560.9 71.3,553.1 				"/>
				<path class="st19" d="M59.9,563.8L1.2,598.6l-6.1-10.2c0.7-1.4,57.7-36.5,57.7-36.5L59.9,563.8z"/>
				<path class="st25" d="M-4.9,588.3L-18,566.2l55.5-40.3l15.4,26C52.9,551.8-4.1,586.9-4.9,588.3z"/>
			</g>
		</g>
	</g>
	<g class="st16">
		<g id="XMLID_00000085243078756990262570000008590125086232480146_">
			<g>
				<polygon class="st23" points="112.1,251.2 102.1,265.5 97.2,264.5 107,250.2 				"/>
				<polygon class="st24" points="112.1,251.2 107,250.2 99.8,245.8 103.5,246.2 				"/>
				<polygon class="st19" points="107,250.2 97.2,264.5 94.3,263.9 103.8,249.6 				"/>
				<polygon class="st11" points="107,250.2 103.8,249.6 96.9,245.5 90.8,244.8 87.9,243.1 93.9,243.7 93.9,242.2 93.9,241.4 
					93.7,236.8 95.5,238.5 97.6,237.4 97.1,242.5 96.9,244.1 97.9,243 103.8,237 104,240 106.5,240.2 101,244.8 99.8,245.8 				"/>
				<polygon class="st23" points="103.8,249.6 94.3,263.9 88.3,262.8 96.8,248.2 				"/>
				<polygon class="st24" points="103.8,249.6 96.8,248.2 90.8,244.8 96.9,245.5 				"/>
				<polygon class="st19" points="103.5,246.2 99.8,245.8 101,244.8 				"/>
				<polygon class="st25" points="96.8,248.2 88.3,262.8 82.4,259.4 90.8,244.8 				"/>
				<polygon class="st24" points="97.9,243 96.9,244.1 97.1,242.5 				"/>
				<polygon class="st19" points="93.9,242.2 93.9,243.7 88.5,240.5 92,241.1 92,241.1 				"/>
				<polygon class="st24" points="93.9,243.7 87.9,243.1 81.4,239.3 88.5,240.5 				"/>
				<polygon class="st24" points="93.9,241.4 93.9,242.2 92,241.1 				"/>
				<path class="st19" d="M90.8,244.8l-8.4,14.6l-2.5-1.5c0-0.4,8-14.8,8-14.8L90.8,244.8z"/>
				<path class="st25" d="M79.9,257.9l-5.5-3.2l7-15.4l6.5,3.7C87.9,243.1,79.9,257.5,79.9,257.9z"/>
			</g>
		</g>
	</g>
	<g class="st16">
		<g id="XMLID_00000034799398017666040120000003158146858922121142_">
			<g>
				<polygon class="st23" points="439.4,60.8 447.3,85.6 441.7,90.6 433.5,66 				"/>
				<polygon class="st24" points="439.4,60.8 433.5,66 421.7,70.7 425.6,66.6 				"/>
				<polygon class="st19" points="433.5,66 441.7,90.6 438.4,93.6 429.9,69.2 				"/>
				<polygon class="st11" points="433.5,66 429.9,69.2 418.7,73.8 412.4,80.3 407.7,82.3 414,75.7 412.2,74.4 411.1,73.7 
					405.6,69.7 409.1,69.1 409.8,65.7 415.4,70.9 417.1,72.5 416.7,70.3 414.8,57.9 418.6,60.4 421.2,57.5 421.6,68.3 421.7,70.7 
									"/>
				<polygon class="st23" points="429.9,69.2 438.4,93.6 431.6,99.6 422,76.3 				"/>
				<polygon class="st24" points="429.9,69.2 422,76.3 412.4,80.3 418.7,73.8 				"/>
				<polygon class="st19" points="425.6,66.6 421.7,70.7 421.6,68.3 				"/>
				<polygon class="st25" points="422,76.3 431.6,99.6 422.2,103.6 412.4,80.3 				"/>
				<polygon class="st24" points="416.7,70.3 417.1,72.5 415.4,70.9 				"/>
				<polygon class="st19" points="412.2,74.4 414,75.7 405.2,79.3 409.1,75.6 409.1,75.6 				"/>
				<polygon class="st24" points="414,75.7 407.7,82.3 397.4,86.7 405.2,79.3 				"/>
				<polygon class="st24" points="411.1,73.7 412.2,74.4 409.1,75.6 				"/>
				<path class="st19" d="M412.4,80.3l9.8,23.2l-4.1,1.7c-0.5-0.3-10.5-23-10.5-23L412.4,80.3z"/>
				<path class="st25" d="M418.2,105.3l-8.8,3.7l-12-22.3l10.3-4.3C407.7,82.3,417.7,104.9,418.2,105.3z"/>
			</g>
		</g>
	</g>
	<g class="st16">
		<polygon class="st1" points="170.4,511.1 173.1,516.5 179,517.4 174.7,521.5 175.7,527.4 170.4,524.6 165.2,527.4 166.2,521.5 
			161.9,517.4 167.8,516.5 		"/>
		<polygon class="st1" points="60.5,721.6 63.1,727 69,727.8 64.8,732 65.8,737.9 60.5,735.1 55.2,737.9 56.2,732 51.9,727.8 
			57.8,727 		"/>
		<polygon class="st1" points="534,714.2 536.6,719.5 542.5,720.4 538.3,724.5 539.3,730.4 534,727.6 528.7,730.4 529.7,724.5 
			525.4,720.4 531.3,719.5 		"/>
		<polygon class="st1" points="684.3,516.7 687,522 692.9,522.9 688.6,527.1 689.6,532.9 684.3,530.2 679.1,532.9 680.1,527.1 
			675.8,522.9 681.7,522 		"/>
		<polygon class="st1" points="495.2,142.3 497.9,147.6 503.8,148.5 499.5,152.7 500.5,158.5 495.2,155.8 490,158.5 491,152.7 
			486.7,148.5 492.6,147.6 		"/>
		<polygon class="st1" points="269.3,64.1 272,69.5 277.9,70.3 273.6,74.5 274.6,80.4 269.3,77.6 264,80.4 265,74.5 260.8,70.3 
			266.7,69.5 		"/>
		<polygon class="st1" points="38.9,196.5 41.6,201.9 47.5,202.7 43.2,206.9 44.2,212.8 38.9,210 33.6,212.8 34.6,206.9 30.4,202.7 
			36.3,201.9 		"/>
		<polygon class="st1" points="604.2,319.9 606.9,325.2 612.8,326.1 608.5,330.2 609.5,336.1 604.2,333.3 599,336.1 600,330.2 
			595.7,326.1 601.6,325.2 		"/>
		<polygon class="st11" points="175.9,599.9 177.1,602.3 179.8,602.7 177.8,604.6 178.3,607.2 175.9,606 173.5,607.2 174,604.6 
			172,602.7 174.7,602.3 		"/>
		<polygon class="st11" points="609.3,135.4 610.5,137.8 613.1,138.2 611.2,140.1 611.7,142.7 609.3,141.5 606.9,142.7 607.3,140.1 
			605.4,138.2 608.1,137.8 		"/>
		<polygon class="st11" points="710.8,26.4 712,28.8 714.7,29.2 712.8,31.1 713.2,33.8 710.8,32.5 708.4,33.8 708.9,31.1 707,29.2 
			709.6,28.8 		"/>
		<polygon class="st11" points="458.5,625.8 459.7,628.3 462.3,628.6 460.4,630.5 460.9,633.2 458.5,631.9 456.1,633.2 456.5,630.5 
			454.6,628.6 457.3,628.3 		"/>
		<polygon class="st11" points="522.7,392.4 523.9,394.8 526.6,395.2 524.7,397.1 525.1,399.7 522.7,398.5 520.3,399.7 520.8,397.1 
			518.9,395.2 521.5,394.8 		"/>
		<polygon class="st11" points="40.5,476.7 41.7,479.1 44.3,479.5 42.4,481.4 42.8,484 40.5,482.8 38.1,484 38.5,481.4 36.6,479.5 
			39.3,479.1 		"/>
		<polygon class="st11" points="586.2,578.2 587.3,580.6 590,581 588.1,582.9 588.5,585.6 586.2,584.3 583.8,585.6 584.2,582.9 
			582.3,581 585,580.6 		"/>
		<polygon class="st11" points="690.7,725.6 691.9,728 694.5,728.4 692.6,730.3 693,733 690.7,731.7 688.3,733 688.7,730.3 
			686.8,728.4 689.5,728 		"/>
		<polygon class="st11" points="721,571.2 722.2,573.6 724.9,574 723,575.9 723.4,578.6 721,577.3 718.6,578.6 719.1,575.9 
			717.2,574 719.8,573.6 		"/>
		<polygon class="st11" points="511,512.7 512.2,515.2 514.9,515.6 512.9,517.4 513.4,520.1 511,518.8 508.6,520.1 509.1,517.4 
			507.1,515.6 509.8,515.2 		"/>
		<polygon class="st11" points="654.2,221.9 655.4,224.3 658.1,224.7 656.1,226.6 656.6,229.2 654.2,228 651.8,229.2 652.3,226.6 
			650.3,224.7 653,224.3 		"/>
		<polygon class="st11" points="619.3,394.4 620.5,396.8 623.2,397.2 621.2,399.1 621.7,401.8 619.3,400.5 616.9,401.8 617.4,399.1 
			615.4,397.2 618.1,396.8 		"/>
		<polygon class="st11" points="411.3,170.3 412.4,172.7 415.1,173.1 413.2,175 413.6,177.7 411.3,176.4 408.9,177.7 409.3,175 
			407.4,173.1 410.1,172.7 		"/>
		<polygon class="st11" points="266.2,141.8 267.4,144.3 270.1,144.6 268.2,146.5 268.6,149.2 266.2,147.9 263.8,149.2 264.3,146.5 
			262.4,144.6 265,144.3 		"/>
		<polygon class="st11" points="352.2,40.1 353.4,42.6 356.1,42.9 354.2,44.8 354.6,47.5 352.2,46.2 349.9,47.5 350.3,44.8 
			348.4,42.9 351.1,42.6 		"/>
		<polygon class="st11" points="23.5,679.4 24.6,681.8 27.3,682.2 25.4,684.1 25.8,686.8 23.5,685.5 21.1,686.8 21.5,684.1 
			19.6,682.2 22.3,681.8 		"/>
		<polygon class="st11" points="58.4,310.1 59.6,312.6 62.3,313 60.3,314.8 60.8,317.5 58.4,316.2 56,317.5 56.5,314.8 54.5,313 
			57.2,312.6 		"/>
		<polygon class="st11" points="433.9,319.9 435.1,322.3 437.8,322.7 435.9,324.6 436.3,327.2 433.9,326 431.5,327.2 432,324.6 
			430.1,322.7 432.7,322.3 		"/>
		<polygon class="st11" points="180.3,281.3 181.5,283.7 184.1,284.1 182.2,286 182.7,288.6 180.3,287.4 177.9,288.6 178.3,286 
			176.4,284.1 179.1,283.7 		"/>
		<polygon class="st11" points="287.2,646.8 288.4,649.2 291,649.6 289.1,651.4 289.6,654.1 287.2,652.8 284.8,654.1 285.2,651.4 
			283.3,649.6 286,649.2 		"/>
		<polygon class="st11" points="375,746.6 376.2,749 378.9,749.4 376.9,751.3 377.4,754 375,752.7 372.6,754 373.1,751.3 
			371.1,749.4 373.8,749 		"/>
		<polygon class="st11" points="120.5,729.8 121.7,732.2 124.4,732.6 122.4,734.5 122.9,737.1 120.5,735.9 118.1,737.1 118.6,734.5 
			116.6,732.6 119.3,732.2 		"/>
		<polygon class="st11" points="131.9,181.4 133.1,183.9 135.8,184.3 133.8,186.1 134.3,188.8 131.9,187.5 129.5,188.8 130,186.1 
			128,184.3 130.7,183.9 		"/>
		<polygon class="st11" points="39.7,39.4 40.9,41.8 43.6,42.2 41.6,44.1 42.1,46.7 39.7,45.5 37.3,46.7 37.8,44.1 35.8,42.2 
			38.5,41.8 		"/>
	</g>
	<path class="st26" d="M450.2,455.7c0,0,29.4,10.6,44.7,27.7c0,0-8.9-2.1-18.1-1.1c0,0,23.8,3.9,39.4,13.1c0,0-11-1.4-17.7,1.4
		c0,0,29.8,14.2,59.6,5.3c0,0-23.4,34-81.9,24.8c0,0,7.1,7.4,13.5,9.2c0,0-32.3,4.3-60.3-13.5L450.2,455.7z"/>
	<g class="st16">
		<g id="XMLID_00000160910194463845793650000018222139168689958840_">
			<g>
				<polygon class="st27" points="576.1,270.2 552.4,319 536.9,318.5 559.9,269.7 				"/>
				<polygon class="st28" points="576.1,270.2 559.9,269.7 535.4,259.8 547.1,259.2 				"/>
				<polygon class="st19" points="559.9,269.7 536.9,318.5 527.7,318.2 549.9,269.4 				"/>
				<polygon class="st11" points="559.9,269.7 549.9,269.4 526.4,260.2 507.5,261 497.5,257.3 516.5,256.3 515.6,251.7 515.1,249.2 
					512.4,235.2 518.7,239.4 524.5,235.2 525.5,251.1 525.7,255.9 528.3,252.1 543.3,230.6 545.4,239.8 553.4,239.1 538.6,256 
					535.4,259.8 				"/>
				<polygon class="st27" points="549.9,269.4 527.7,318.2 508.7,317.6 527.7,268.7 				"/>
				<polygon class="st28" points="549.9,269.4 527.7,268.7 507.5,261 526.4,260.2 				"/>
				<polygon class="st19" points="547.1,259.2 535.4,259.8 538.6,256 				"/>
				<polygon class="st29" points="527.7,268.7 508.7,317.6 488.9,310.1 507.5,261 				"/>
				<polygon class="st28" points="528.3,252.1 525.7,255.9 525.5,251.1 				"/>
				<polygon class="st19" points="515.6,251.7 516.5,256.3 498.1,249.1 509.2,249.1 509.2,249.1 				"/>
				<polygon class="st28" points="516.5,256.3 497.5,257.3 475.8,249 498.1,249.1 				"/>
				<polygon class="st28" points="515.1,249.2 515.6,251.7 509.2,249.1 				"/>
				<path class="st19" d="M507.5,261l-18.6,49.1l-8.6-3.2c-0.2-1.2,17.1-49.6,17.1-49.6L507.5,261z"/>
				<path class="st29" d="M480.4,306.9l-18.5-7l13.9-50.9l21.7,8.2C497.5,257.3,480.1,305.7,480.4,306.9z"/>
			</g>
		</g>
	</g>
	<path class="st30" d="M450.1,461.8c0,0,18.6,4.9,26.6,15.4c0,0-8.3,0-17,3c0,0,22.9,3.2,38.5,12.4c0,0-10.8-0.9-17.6,2
		c0,0,19.1,14.6,49.1,18.2c0,0-30.6,11.4-68.1,5.3c0,0,0.2,5.9,8.7,11.4c0,0-10.9,4.1-38.9-13.6L450.1,461.8z"/>
	<g class="st16">
		<g id="XMLID_00000083771147711045826980000013670153462388839315_">
			<g>
				<polygon class="st27" points="475.9,689.4 453.4,715.6 443.9,712.8 465.9,686.4 				"/>
				<polygon class="st28" points="475.9,689.4 465.9,686.4 452.4,676.4 459.7,677.9 				"/>
				<polygon class="st19" points="465.9,686.4 443.9,712.8 438.2,711.2 459.8,684.6 				"/>
				<polygon class="st11" points="465.9,686.4 459.8,684.6 446.8,675.2 435,672.7 429.5,668.7 441.3,671.2 441.5,668.2 441.6,666.6 
					442.2,657.5 445.4,661.1 449.7,659.5 447.7,669.4 447.1,672.4 449.3,670.5 462,659.7 461.8,665.7 466.9,666.6 455,674.6 
					452.4,676.4 				"/>
				<polygon class="st27" points="459.8,684.6 438.2,711.2 426.6,707.7 446.2,680.6 				"/>
				<polygon class="st28" points="459.8,684.6 446.2,680.6 435,672.7 446.8,675.2 				"/>
				<polygon class="st19" points="459.7,677.9 452.4,676.4 455,674.6 				"/>
				<polygon class="st29" points="446.2,680.6 426.6,707.7 415.7,699.9 435,672.7 				"/>
				<polygon class="st28" points="449.3,670.5 447.1,672.4 447.7,669.4 				"/>
				<polygon class="st19" points="441.5,668.2 441.3,671.2 431.1,663.8 438,665.6 438,665.6 				"/>
				<polygon class="st28" points="441.3,671.2 429.5,668.7 417.4,660.2 431.1,663.8 				"/>
				<polygon class="st28" points="441.6,666.6 441.5,668.2 438,665.6 				"/>
				<path class="st19" d="M435,672.7l-19.4,27.3l-4.8-3.4c0-0.8,18.6-27.8,18.6-27.8L435,672.7z"/>
				<path class="st29" d="M410.9,696.6l-10.3-7.3l16.8-29.1l12.1,8.6C429.5,668.7,410.9,695.8,410.9,696.6z"/>
			</g>
		</g>
	</g>
</g>
</svg>