<?xml version="1.0" encoding="utf-8"?>
<!-- Generator: Adobe Illustrator 25.2.1, SVG Export Plug-In . SVG Version: 6.00 Build 0)  -->
<svg version="1.1" id="Layer_1" xmlns="http://www.w3.org/2000/svg" xmlns:xlink="http://www.w3.org/1999/xlink" x="0px" y="0px"
	 viewBox="0 0 1366 768" style="enable-background:new 0 0 1366 768;" xml:space="preserve">
<style type="text/css">
	.st0{fill:#0D9488;}
	.st1{fill:#FFFFFF;}
	.st2{fill:#61909B;}
	.st3{fill:#82B2BF;}
	.st4{fill:#2C6FD1;}
	.st5{fill:#4884DF;}
	.st6{fill:#DFEDF2;}
	.st7{fill:#B7C9CE;}
	.st8{fill:#51666B;}
	.st9{fill:#DFECF2;}
	.st10{fill:#F3DD28;}
	.st11{fill:#F9D82B;}
	.st12{fill:#002244;}
	.st13{fill:#88939A;}
	.st14{fill:#ABB4B9;}
	.st15{fill:#93A8B2;}
	.st16{clip-path:url(#SVGID_2_);}
	.st17{fill:#0F766E;}
	.st18{fill:#232323;}
	.st19{opacity:0.3;}
	.st20{fill:#CCFBF1;}
	.st21{opacity:0.6;}
	.st22{fill:#111010;}
	.st23{opacity:0.5;}
	.st24{fill:#383C3D;}
	.st25{fill:#8993A3;}
	.st26{opacity:0.2;}
	.st27{fill:#BFC5D1;}
	.st28{fill:none;stroke:#232323;stroke-width:20;stroke-linecap:round;stroke-linejoin:round;stroke-miterlimit:10;}
	.st29{fill:#FFFFFF;stroke:#FFFFFF;stroke-width:20;stroke-miterlimit:10;}
	.st30{clip-path:url(#SVGID_4_);}
	.st31{fill:#6BADFC;}
	.st32{fill:#EFA729;}
	.st33{fill:#D1420B;}
	.st34{fill:#E77622;}
	.st35{fill:#E35D1E;}
	.st36{fill:#7D3893;}
	.st37{fill:#AC65C4;}
	.st38{fill:#904DA3;}
	.st39{clip-path:url(#SVGID_4_);fill:#F9D82B;}
	.st40{fill:#9B197A;}
	.st41{fill:#CC3EA1;}
	.st42{fill:#B33185;}
	.st43{clip-path:url(#SVGID_4_);fill:#EFA729;}
</style>
<g>
	<defs>
		<rect id="SVGID_1_" x="-1.8" y="-0.9" width="1373" height="772.3"/>
	</defs>
	<clipPath id="SVGID_2_">
		<use xlink:href="#SVGID_1_"  style="overflow:visible;"/>
	</clipPath>
	<g class="st16">
		<g id="XMLID_3_">
			<path class="st17" d="M751.5,382.2l-28.2,62.7c-4.1,0.2-39.9-34.6-115.8-23.2c-10.6,1.6-20.2,4.6-30.2,7.2
				c-32.5,8.5-70.4,12.1-104.8,4.3c-11.7-2.7-22.7-6.6-33.8-10.2c-56.4-18.3-122.2-28.8-181.4-18.8c-22.7,3.8-44,10.6-67.5,12.4
				c-43.8,3.4-89.8-10.7-133-5.5c-21.3,2.6-39.7,9.6-58.6,16v-66.4c0.4,0,0.7-0.1,1.1-0.1c33-4.7,66.4-9.4,100.7-9.8
				c40.9-0.4,81.9,5.6,121.3,14c20.5,4.4,40.8,9.5,62,12.1c7.9,1,16,1.6,23.6,0.6c8.1-1,15.3-3.6,22.7-5.8
				c43.6-13.1,98.1-12.9,143.9,0.6c26.2,7.7,49.5,19,76.5,25.6C667,426.7,667,327.8,751.5,382.2z"/>
			<path class="st17" d="M740.4,313.4v34.4c-12.6,0.5-145.9,3.6-158.5,3c-6.5-0.3-13-0.8-19-2.2c-1.7-0.4-3.3-0.9-4.4-1.8
				c-1-0.9-1.3-2-1.5-3.1c-0.8-3.8-1.3-8,2.3-11.1c1.9-1.6,4.8-2.8,7.6-3.8C583.2,322.9,721.8,315.7,740.4,313.4z"/>
			<path class="st17" d="M704.3,176l-14.4,90.4c-60.9-36.4-87.5-18.3-94-14.2c-15.4,9.8-11.7,25.9-21.4,38.2
				c-7.6,9.7-23.2,16.3-39.7,19.7c-16.6,3.4-34.3,4.1-51.7,4.7c-19.6,0.7-40.1,1.3-58-3.7c-35.4-10-48.6-38.4-83.2-49.3
				c-14.5-4.6-31.2-5.5-47.5-6.1c-15.4-0.5-32.1-0.5-44.6,5c-16.9,7.5-19.9,22.3-33,32.2c-9,6.8-22.1,11-35.6,13.8
				c-36.6,7.7-76.3,6.6-114.9,5.3c-22.6-0.8-45.6-1.6-68.2-0.8V236c12.8-1.2,25.5-2.5,38.3-3.7c19.3-1.9,39.7-4.1,54.2-12.1
				c14.4-8.1,18.7-24.1,3.3-31.5c-7.9-3.8-19.1-4.5-26.6-8.6c-9.2-5-10.1-14.1-4.8-21c5.3-6.8,15.5-11.8,26.1-15.6
				c44.1-15.9,98.1-16.8,146.4-27c3.4-0.7,7-1.6,9.2-3.3c2.1-1.6,2.8-3.7,3-5.7c1.3-11-8.8-21.6-22.8-28.5
				c-14-6.9-31.4-10.7-48.7-13.5C118.2,56.1,58.1,55.4-1.8,56.1v-57h276.1c4,1,7.9,2.1,11.7,3.3c20.6,6.2,41.9,17.1,40,31.1
				c-0.9,6.5-6.6,13.8-0.1,18.9c3.9,3.1,10.8,4,17.2,4.5c16.5,1.3,33.3,1.4,49.8,0.4c8.3-0.5,17.6-1.8,22-6.1
				c4.5-4.4,2-10.1-0.3-15.1c-5.2-11.2-8.5-24.2,2.6-33.6c1.5-1.2,3.1-2.3,4.9-3.3H655l-35.3,31.3c-8.2,0.8-16.3,1.6-24.4,2.4
				c-15.5,1.5-31.3,3.1-45.2,7.5c-14,4.4-26.1,12-28.8,21.5c-2.2,8.1,2.5,16.2,6.2,24c6.9,14.6,9.7,31.6-5.2,43.7
				c-16.1,13-46,15.3-69.3,23.2c-34.1,11.6-53.5,37.7-45.4,61.1c1.4,4.1,3.7,8.2,8.5,11.2c5.2,3.2,12.5,4.6,19.6,5.7
				c13.3,2.2,27.1,3.9,40.8,3.2c13.7-0.7,27.6-4.2,36-10.9c18.2-14.5,5.5-37.5,23.1-52.3c9.1-7.6,24.8-10.8,40.1-11.8
				C631.7,155.2,690.1,173.2,704.3,176z M435.7,101.4c2.2-2,3.8-4.5,3-6.8c-1.3-3.8-8.2-5.8-14.3-6.8c-6.5-1-13.8-1.3-19.3,0.9
				c-7.3,2.9-9,9-14.7,13.1c-21.9,15.8-91.4-4.7-90.1,28.8c0.2,4,1.9,8.5-2.2,11.5c-1.9,1.4-4.7,2.2-7.4,2.9
				c-16.1,4.1-33.6,6.4-48.4,12c-14.8,5.6-27,15.9-23.8,26.4c2.7,8.9,15.7,15.5,29.8,18.2c14.1,2.7,29.1,2.1,43.8,1.6
				c7.6-0.3,16.8-1.4,19.1-5.8c2.2-4.2-3.8-8.2-6.1-12.5c-3.6-6.6,2.3-13.9,11-18.4c8.7-4.5,19.6-6.8,30-9.5c4.6-1.2,9.3-2.7,12-5.2
				c4.6-4.5,1.1-10.4,1.9-15.7c1.6-10.1,18.4-16.4,33.9-19.9C409,112.7,426.5,109.8,435.7,101.4z"/>
		</g>
	</g>
	<g class="st16">
		<g id="XMLID_2_">
			<path class="st17" d="M575.7,611.5c-15.3-1-31.1-4.2-40.1-11.8c-17.6-14.8-4.8-37.8-23.1-52.3c-8.4-6.7-22.3-10.2-36-10.9
				c-13.7-0.7-27.5,1-40.8,3.2c-7.1,1.2-14.4,2.5-19.6,5.7c-4.8,3-7.1,7.1-8.5,11.2c-8.1,23.5,11.3,49.5,45.4,61.1
				c23.3,7.9,53.2,10.2,69.3,23.2c14.9,12.1,12.1,29.1,5.2,43.7c-3.7,7.9-8.5,15.9-6.2,24c2.6,9.5,14.8,17.2,28.8,21.5
				c14,4.4,29.7,7.5,45.2,7.5c153.1,0,159.4-99.5,167.5-98.7l152.4,132.4H422c-1.8-1-3.4-2.1-4.9-3.3c-11.2-9.4-7.8-22.4-2.6-33.6
				c2.3-5,4.8-10.7,0.3-15.1c-4.4-4.4-13.7-5.6-22-6.1c-16.6-1.1-33.3-1-49.8,0.4c-6.3,0.5-13.3,1.4-17.2,4.5
				c-6.4,5.2-0.8,12.4,0.1,18.9c2,14-19.4,25-40,31.1c-3.8,1.2-7.8,2.3-11.7,3.3H-1.8v-57c59.8,0.6,120,0,177.7-9.4
				c17.3-2.8,34.7-6.6,48.7-13.5c14-6.9,24.1-17.5,22.8-28.5c-0.3-2-0.9-4.1-3-5.7c-2.3-1.7-5.8-2.6-9.2-3.3
				c-48.3-10.3-102.3-11.1-146.4-27c-10.6-3.8-20.8-8.8-26.1-15.6c-5.3-6.8-4.4-15.9,4.8-21c7.5-4.1,18.6-4.8,26.6-8.6
				c15.4-7.4,11.1-23.4-3.3-31.5c-14.4-8.1-34.9-10.3-54.2-12.1c-12.8-1.2-25.5-2.5-38.3-3.7v-75.2c22.6,0.8,45.5,0,68.2-0.8
				c38.6-1.3,78.3-2.4,114.9,5.3c13.4,2.8,26.6,7,35.6,13.8c13.1,9.9,16.1,24.7,33,32.2c12.5,5.6,29.2,5.6,44.6,5
				c16.3-0.6,33-1.5,47.5-6.1c34.6-10.9,47.9-39.3,83.2-49.3c17.9-5,38.4-4.4,58-3.7c17.4,0.6,35.1,1.3,51.7,4.7
				c16.6,3.4,32.1,10,39.7,19.7c9.6,12.3,5.6,28.9,21.4,38.2c69.8,41,55.9-57.9,249-56.1l-26.2,137.1
				C704.2,554.3,631.7,615.3,575.7,611.5z M393.5,654.3c-15.5-3.5-32.3-9.8-33.9-19.9c-0.8-5.3,2.7-11.2-1.9-15.7
				c-2.6-2.6-7.4-4-12-5.2c-10.4-2.8-21.3-5.1-30-9.5c-8.7-4.5-14.6-11.8-11-18.4c2.3-4.2,8.3-8.2,6.1-12.5
				c-2.2-4.4-11.5-5.5-19.1-5.8c-14.7-0.6-29.8-1.1-43.8,1.6c-14.1,2.7-27.1,9.3-29.8,18.2c-3.2,10.5,9,20.8,23.8,26.4
				c14.8,5.6,32.3,8,48.4,12c2.7,0.7,5.5,1.5,7.4,2.9c4.1,3.1,2.4,7.6,2.2,11.5c-1.3,33.5,68.3,13.1,90.1,28.8
				c5.7,4.1,7.4,10.2,14.7,13.1c5.6,2.2,12.9,1.9,19.3,0.9c6.2-0.9,13-2.9,14.3-6.8c0.8-2.4-0.8-4.8-3-6.8
				C426.5,660.7,409,657.8,393.5,654.3z"/>
		</g>
	</g>
	<g class="st16">
		<polygon class="st1" points="170.4,511.1 173.1,516.5 179,517.4 174.7,521.5 175.7,527.4 170.4,524.6 165.2,527.4 166.2,521.5 
			161.9,517.4 167.8,516.5 		"/>
		<polygon class="st1" points="60.5,721.6 63.1,727 69,727.8 64.8,732 65.8,737.9 60.5,735.1 55.2,737.9 56.2,732 51.9,727.8 
			57.8,727 		"/>
		<polygon class="st1" points="534,714.2 536.6,719.5 542.5,720.4 538.3,724.5 539.3,730.4 534,727.6 528.7,730.4 529.7,724.5 
			525.4,720.4 531.3,719.5 		"/>
		<polygon class="st1" points="684.3,516.7 687,522 692.9,522.9 688.6,527.1 689.6,532.9 684.3,530.2 679.1,532.9 680.1,527.1 
			675.8,522.9 681.7,522 		"/>
		<polygon class="st1" points="495.2,142.3 497.9,147.6 503.8,148.5 499.5,152.7 500.5,158.5 495.2,155.8 490,158.5 491,152.7 
			486.7,148.5 492.6,147.6 		"/>
		<polygon class="st1" points="269.3,64.1 272,69.5 277.9,70.3 273.6,74.5 274.6,80.4 269.3,77.6 264,80.4 265,74.5 260.8,70.3 
			266.7,69.5 		"/>
		<polygon class="st1" points="38.9,196.5 41.6,201.9 47.5,202.7 43.2,206.9 44.2,212.8 38.9,210 33.6,212.8 34.6,206.9 30.4,202.7 
			36.3,201.9 		"/>
		<polygon class="st1" points="604.2,319.9 606.9,325.2 612.8,326.1 608.5,330.2 609.5,336.1 604.2,333.3 599,336.1 600,330.2 
			595.7,326.1 601.6,325.2 		"/>
		<polygon class="st11" points="175.9,599.9 177.1,602.3 179.8,602.7 177.8,604.6 178.3,607.2 175.9,606 173.5,607.2 174,604.6 
			172,602.7 174.7,602.3 		"/>
		<polygon class="st11" points="609.3,135.4 610.5,137.8 613.1,138.2 611.2,140.1 611.7,142.7 609.3,141.5 606.9,142.7 607.3,140.1 
			605.4,138.2 608.1,137.8 		"/>
		<polygon class="st11" points="710.8,26.4 712,28.8 714.7,29.2 712.8,31.1 713.2,33.8 710.8,32.5 708.4,33.8 708.9,31.1 707,29.2 
			709.6,28.8 		"/>
		<polygon class="st11" points="458.5,625.8 459.7,628.3 462.3,628.6 460.4,630.5 460.9,633.2 458.5,631.9 456.1,633.2 456.5,630.5 
			454.6,628.6 457.3,628.3 		"/>
		<polygon class="st11" points="522.7,392.4 523.9,394.8 526.6,395.2 524.7,397.1 525.1,399.7 522.7,398.5 520.3,399.7 520.8,397.1 
			518.9,395.2 521.5,394.8 		"/>
		<polygon class="st11" points="40.5,476.7 41.7,479.1 44.3,479.5 42.4,481.4 42.8,484 40.5,482.8 38.1,484 38.5,481.4 36.6,479.5 
			39.3,479.1 		"/>
		<polygon class="st11" points="586.2,578.2 587.3,580.6 590,581 588.1,582.9 588.5,585.6 586.2,584.3 583.8,585.6 584.2,582.9 
			582.3,581 585,580.6 		"/>
		<polygon class="st11" points="690.7,725.6 691.9,728 694.5,728.4 692.6,730.3 693,733 690.7,731.7 688.3,733 688.7,730.3 
			686.8,728.4 689.5,728 		"/>
		<polygon class="st11" points="721,571.2 722.2,573.6 724.9,574 723,575.9 723.4,578.6 721,577.3 718.6,578.6 719.1,575.9 
			717.2,574 719.8,573.6 		"/>
		<polygon class="st11" points="511,512.7 512.2,515.2 514.9,515.6 512.9,517.4 513.4,520.1 511,518.8 508.6,520.1 509.1,517.4 
			507.1,515.6 509.8,515.2 		"/>
		<polygon class="st11" points="654.2,221.9 655.4,224.3 658.1,224.7 656.1,226.6 656.6,229.2 654.2,228 651.8,229.2 652.3,226.6 
			650.3,224.7 653,224.3 		"/>
		<polygon class="st11" points="619.3,394.4 620.5,396.8 623.2,397.2 621.2,399.1 621.7,401.8 619.3,400.5 616.9,401.8 617.4,399.1 
			615.4,397.2 618.1,396.8 		"/>
		<polygon class="st11" points="411.3,170.3 412.4,172.7 415.1,173.1 413.2,175 413.6,177.7 411.3,176.4 408.9,177.7 409.3,175 
			407.4,173.1 410.1,172.7 		"/>
		<polygon class="st11" points="266.2,141.8 267.4,144.3 270.1,144.6 268.2,146.5 268.6,149.2 266.2,147.9 263.8,149.2 264.3,146.5 
			262.4,144.6 265,144.3 		"/>
		<polygon class="st11" points="352.2,40.1 353.4,42.6 356.1,42.9 354.2,44.8 354.6,47.5 352.2,46.2 349.9,47.5 350.3,44.8 
			348.4,42.9 351.1,42.6 		"/>
		<polygon class="st11" points="23.5,679.4 24.6,681.8 27.3,682.2 25.4,684.1 25.8,686.8 23.5,685.5 21.1,686.8 21.5,684.1 
			19.6,682.2 22.3,681.8 		"/>
		<polygon class="st11" points="58.4,310.1 59.6,312.6 62.3,313 60.3,314.8 60.8,317.5 58.4,316.2 56,317.5 56.5,314.8 54.5,313 
			57.2,312.6 		"/>
		<polygon class="st11" points="433.9,319.9 435.1,322.3 437.8,322.7 435.9,324.6 436.3,327.2 433.9,326 431.5,327.2 432,324.6 
			430.1,322.7 432.7,322.3 		"/>
		<polygon class="st11" points="180.3,281.3 181.5,283.7 184.1,284.1 182.2,286 182.7,288.6 180.3,287.4 177.9,288.6 178.3,286 
			176.4,284.1 179.1,283.7 		"/>
		<polygon class="st11" points="287.2,646.8 288.4,649.2 291,649.6 289.1,651.4 289.6,654.1 287.2,652.8 284.8,654.1 285.2,651.4 
			283.3,649.6 286,649.2 		"/>
		<polygon class="st11" points="375,746.6 376.2,749 378.9,749.4 376.9,751.3 377.4,754 375,752.7 372.6,754 373.1,751.3 
			371.1,749.4 373.8,749 		"/>
		<polygon class="st11" points="120.5,729.8 121.7,732.2 124.4,732.6 122.4,734.5 122.9,737.1 120.5,735.9 118.1,737.1 118.6,734.5 
			116.6,732.6 119.3,732.2 		"/>
		<polygon class="st11" points="131.9,181.4 133.1,183.9 135.8,184.3 133.8,186.1 134.3,188.8 131.9,187.5 129.5,188.8 130,186.1 
			128,184.3 130.7,183.9 		"/>
		<polygon class="st11" points="39.7,39.4 40.9,41.8 43.6,42.2 41.6,44.1 42.1,46.7 39.7,45.5 37.3,46.7 37.8,44.1 35.8,42.2 
			38.5,41.8 		"/>
	</g>
	<g class="st16">
		<polygon class="st1" points="1123.2,171.2 1128.5,173.9 1129.4,179.8 1133.5,175.5 1139.4,176.5 1136.6,171.2 1139.4,165.9 
			1133.5,167 1129.4,162.7 1128.5,168.6 		"/>
		<polygon class="st1" points="1333.7,61.3 1339,63.9 1339.9,69.8 1344,65.5 1349.9,66.5 1347.1,61.3 1349.9,56 1344,57 
			1339.9,52.7 1339,58.6 		"/>
		<polygon class="st1" points="1326.2,534.8 1331.5,537.4 1332.4,543.3 1336.5,539 1342.4,540 1339.7,534.8 1342.4,529.5 
			1336.5,530.5 1332.4,526.2 1331.5,532.1 		"/>
		<polygon class="st1" points="1128.7,685.1 1134,687.8 1134.9,693.7 1139.1,689.4 1145,690.4 1142.2,685.1 1145,679.8 
			1139.1,680.8 1134.9,676.6 1134,682.5 		"/>
		<polygon class="st1" points="754.3,496 759.7,498.7 760.5,504.6 764.7,500.3 770.6,501.3 767.8,496 770.6,490.7 764.7,491.7 
			760.5,487.5 759.7,493.4 		"/>
		<polygon class="st1" points="676.2,270.1 681.5,272.7 682.4,278.6 686.5,274.4 692.4,275.4 689.6,270.1 692.4,264.8 686.5,265.8 
			682.4,261.5 681.5,267.5 		"/>
		<polygon class="st1" points="808.6,39.7 813.9,42.3 814.8,48.2 818.9,44 824.8,45 822,39.7 824.8,34.4 818.9,35.4 814.8,31.2 
			813.9,37.1 		"/>
		<polygon class="st1" points="931.9,605 937.2,607.7 938.1,613.6 942.3,609.3 948.1,610.3 945.4,605 948.1,599.7 942.3,600.7 
			938.1,596.5 937.2,602.4 		"/>
		<polygon class="st11" points="1211.9,176.7 1214.3,177.9 1214.7,180.5 1216.6,178.6 1219.3,179.1 1218,176.7 1219.3,174.3 
			1216.6,174.7 1214.7,172.8 1214.3,175.5 		"/>
		<polygon class="st11" points="747.4,610.1 749.8,611.3 750.2,613.9 752.1,612 754.8,612.4 753.5,610.1 754.8,607.7 752.1,608.1 
			750.2,606.2 749.8,608.9 		"/>
		<polygon class="st11" points="638.4,711.6 640.9,712.8 641.2,715.5 643.1,713.5 645.8,714 644.5,711.6 645.8,709.2 643.1,709.7 
			641.2,707.7 640.9,710.4 		"/>
		<polygon class="st11" points="1237.9,459.2 1240.3,460.4 1240.7,463.1 1242.5,461.2 1245.2,461.6 1244,459.2 1245.2,456.9 
			1242.5,457.3 1240.7,455.4 1240.3,458.1 		"/>
		<polygon class="st11" points="1004.4,523.5 1006.8,524.7 1007.2,527.4 1009.1,525.4 1011.7,525.9 1010.5,523.5 1011.7,521.1 
			1009.1,521.6 1007.2,519.6 1006.8,522.3 		"/>
		<polygon class="st11" points="1088.7,41.2 1091.1,42.4 1091.5,45.1 1093.4,43.2 1096.1,43.6 1094.8,41.2 1096.1,38.9 1093.4,39.3 
			1091.5,37.4 1091.1,40 		"/>
		<polygon class="st11" points="1190.2,586.9 1192.7,588.1 1193,590.8 1194.9,588.9 1197.6,589.3 1196.3,586.9 1197.6,584.5 
			1194.9,585 1193,583.1 1192.7,585.7 		"/>
		<polygon class="st11" points="1337.6,691.4 1340.1,692.6 1340.5,695.3 1342.3,693.4 1345,693.8 1343.7,691.4 1345,689 
			1342.3,689.5 1340.5,687.6 1340.1,690.2 		"/>
		<polygon class="st11" points="1183.2,721.8 1185.6,723 1186,725.7 1187.9,723.7 1190.6,724.2 1189.3,721.8 1190.6,719.4 
			1187.9,719.9 1186,717.9 1185.6,720.6 		"/>
		<polygon class="st11" points="1124.8,511.8 1127.2,513 1127.6,515.6 1129.5,513.7 1132.1,514.2 1130.9,511.8 1132.1,509.4 
			1129.5,509.8 1127.6,507.9 1127.2,510.6 		"/>
		<polygon class="st11" points="833.9,655 836.3,656.2 836.7,658.8 838.6,656.9 841.3,657.4 840,655 841.3,652.6 838.6,653 
			836.7,651.1 836.3,653.8 		"/>
		<polygon class="st11" points="1006.4,620.1 1008.9,621.3 1009.3,623.9 1011.1,622 1013.8,622.5 1012.5,620.1 1013.8,617.7 
			1011.1,618.2 1009.3,616.2 1008.9,618.9 		"/>
		<polygon class="st11" points="782.3,412 784.7,413.2 785.1,415.9 787,414 789.7,414.4 788.4,412 789.7,409.6 787,410.1 
			785.1,408.2 784.7,410.8 		"/>
		<polygon class="st11" points="753.9,267 756.3,268.2 756.7,270.9 758.5,268.9 761.2,269.4 760,267 761.2,264.6 758.5,265.1 
			756.7,263.2 756.3,265.8 		"/>
		<polygon class="st11" points="652.2,353 654.6,354.2 655,356.9 656.8,355 659.5,355.4 658.3,353 659.5,350.6 656.8,351.1 
			655,349.2 654.6,351.8 		"/>
		<polygon class="st11" points="1291.4,24.2 1293.8,25.4 1294.2,28.1 1296.1,26.2 1298.8,26.6 1297.5,24.2 1298.8,21.8 1296.1,22.3 
			1294.2,20.4 1293.8,23 		"/>
		<polygon class="st11" points="922.2,59.2 924.6,60.4 925,63.1 926.9,61.1 929.5,61.6 928.3,59.2 929.5,56.8 926.9,57.3 925,55.3 
			924.6,58 		"/>
		<polygon class="st11" points="931.9,434.7 934.3,435.9 934.7,438.6 936.6,436.6 939.2,437.1 938,434.7 939.2,432.3 936.6,432.8 
			934.7,430.8 934.3,433.5 		"/>
		<polygon class="st11" points="893.3,181.1 895.7,182.3 896.1,184.9 898,183 900.6,183.4 899.4,181.1 900.6,178.7 898,179.1 
			896.1,177.2 895.7,179.9 		"/>
		<polygon class="st11" points="1258.8,288 1261.2,289.2 1261.6,291.8 1263.5,289.9 1266.1,290.3 1264.9,288 1266.1,285.6 
			1263.5,286 1261.6,284.1 1261.2,286.8 		"/>
		<polygon class="st11" points="1358.6,375.8 1361.1,377 1361.5,379.7 1363.3,377.7 1366,378.2 1364.7,375.8 1366,373.4 
			1363.3,373.9 1361.5,371.9 1361.1,374.6 		"/>
		<polygon class="st11" points="1341.8,121.3 1344.2,122.5 1344.6,125.1 1346.5,123.2 1349.2,123.7 1347.9,121.3 1349.2,118.9 
			1346.5,119.3 1344.6,117.4 1344.2,120.1 		"/>
		<polygon class="st11" points="793.5,132.7 795.9,133.9 796.3,136.6 798.2,134.6 800.8,135.1 799.6,132.7 800.8,130.3 798.2,130.8 
			796.3,128.8 795.9,131.5 		"/>
		<polygon class="st11" points="651.4,40.5 653.8,41.7 654.2,44.4 656.1,42.4 658.7,42.9 657.5,40.5 658.7,38.1 656.1,38.6 
			654.2,36.6 653.8,39.3 		"/>
	</g>
</g>
</svg>
