<!--?xml version="1.0" standalone="no"?-->
              <svg id="sw-js-blob-svg" viewBox="0 0 100 100" xmlns="http://www.w3.org/2000/svg" version="1.1">
                    <defs> 
                        <linearGradient id="sw-gradient" x1="0" x2="1" y1="1" y2="0">
                            <stop id="stop1" stop-color="rgba(255, 255, 255, 1)" offset="0%"></stop>
                            <stop id="stop2" stop-color="rgba(255, 255, 255, 1)" offset="100%"></stop>
                        </linearGradient>
                    </defs>
                <path fill="url(#sw-gradient)" d="M22.1,-24.9C29.2,-20.5,35.7,-14,38.1,-5.8C40.6,2.3,39.1,12,33.9,18.2C28.7,24.5,19.8,27.2,10.8,31.2C1.7,35.2,-7.4,40.4,-16.4,39.6C-25.4,38.7,-34.1,31.7,-38,23C-41.8,14.2,-40.6,3.6,-38.4,-6.4C-36.2,-16.4,-32.9,-25.8,-26.3,-30.3C-19.7,-34.7,-9.8,-34.3,-1.1,-32.9C7.6,-31.5,15.1,-29.3,22.1,-24.9Z" width="100%" height="100%" transform="translate(50 50)" stroke-width="0" style="transition: all 0.3s ease 0s;"></path>
              </svg>