<?xml version="1.0" encoding="utf-8"?>
<!-- Generator: Adobe Illustrator 25.2.1, SVG Export Plug-In . SVG Version: 6.00 Build 0)  -->
<svg version="1.1" xmlns="http://www.w3.org/2000/svg" xmlns:xlink="http://www.w3.org/1999/xlink" x="0px" y="0px"
	 viewBox="0 0 4000 4000" style="enable-background:new 0 0 4000 4000;" xml:space="preserve">
<style type="text/css">
	.st0{fill:#232323;}
	.st1{fill:#FFFFFF;}
	.st2{opacity:0.3;}
	.st3{fill:#CCFBF1;}
	.st4{opacity:0.6;}
	.st5{fill:#111010;}
	.st6{opacity:0.5;}
	.st7{fill:#383C3D;}
	.st8{fill:#8993A3;}
	.st9{opacity:0.2;}
	.st10{fill:#0D9488;}
	.st11{fill:#BFC5D1;}
	.st12{fill:none;stroke:#232323;stroke-width:20;stroke-linecap:round;stroke-linejoin:round;stroke-miterlimit:10;}
</style>
<g id="Layer_1">
	<g>
		<g>
			<polygon class="st0" points="1117.1,2125.2 1200.1,2178.3 2820.2,2127.8 2673.1,2299.5 917.7,2299.5 			"/>
		</g>
		<g>
			<g>
				<g>
					<path class="st1" d="M2808.4,2082.7c6.3,40.8-5.2,81.4-29.9,112.2c-13,16.4-29.6,30-49.3,39.6c-34.1,16.6-78,27.4-132,20.8
						l-21.9-104.9l-113.4-543c0,0,141.4-83.2,212.9,8C2742.9,1702.5,2788.8,1955.4,2808.4,2082.7z"/>
				</g>
				<g class="st2">
					<path class="st0" d="M2778.5,2194.9c-13,16.4-29.6,30-49.3,39.6c-34.1,16.6-78,27.4-132,20.8l-21.9-104.9l63.6-166
						C2638.8,1989,2636.7,2231.8,2778.5,2194.9z"/>
				</g>
				<g>
					<path class="st0" d="M2629,2270c-11,0-22.1-0.7-33.4-2.1c-5.4-0.7-9.8-4.7-10.9-10L2449.4,1610c-1.1-5.3,1.3-10.8,6-13.6
						c6.2-3.6,151.9-87.8,229.3,11.1c69,88.1,115,334.3,136.3,473.2c10.5,68.6-24.1,135-86.2,165.2
						C2701.9,2261.9,2666.4,2270,2629,2270z M2607.7,2243.6c41.4,3.6,80.4-3.3,115.9-20.6c52-25.3,81-81,72.2-138.5
						c-16.8-109.8-63.3-374.7-131.2-461.4c-54.6-69.7-158.9-24.1-188.4-9.1L2607.7,2243.6z"/>
				</g>
			</g>
			<g>
				<g>
					<path class="st1" d="M2829.4,1925.8c3.2,12.6,6.5,27.5,9.1,43.4c10,63.1,8.1,142-59.3,157.2c-78.8,17.6-112.4-70.9-126.4-139.6
						c-2.2-10.5-3.9-20.6-5.2-29.8c-3.6-24.8,13.5-47.8,38.3-51.3l93.7-13.1C2802.2,1889.3,2823.8,1903.6,2829.4,1925.8z"/>
				</g>
				<g class="st2">
					<path class="st0" d="M2838.5,1969.2c10,63.1,8.1,142-59.3,157.2c-78.8,17.6-112.4-70.9-126.4-139.6
						c8.4,13.9,36.6,59.2,47.1,59.8c12.4,0.7-1-69.3-1-69.3s40.2,77.8,87.3,62.8C2833.3,2025.1,2838.5,1969.2,2838.5,1969.2z"/>
				</g>
				<g>
					<path class="st0" d="M2802,2127.7c-0.1,0-0.3,0-0.4,0c-80.4-3.4-108.5-114.4-118.1-180.2c-3.1-21,5.9-41.5,23.3-53.5
						c4.5-3.1,10.8-2,13.9,2.6c3.1,4.5,2,10.8-2.6,13.9c-11.1,7.6-16.8,20.7-14.8,34.2c8.7,59.7,33.1,160.3,99.1,163.1
						c5.5,0.2,9.8,4.9,9.6,10.4C2811.8,2123.5,2807.3,2127.7,2802,2127.7z"/>
				</g>
				<g>
					<path class="st0" d="M2759.4,2141.3c-17.7,0-34.1-5.1-48.9-15.3c-47-32.3-67-108.8-75.5-167.3c-2.2-15.4,1.7-30.8,11-43.2
						c9.3-12.4,22.8-20.4,38.1-22.5c0,0,0,0,0,0l93.7-13.2c29.2-4.1,56.7,14.3,64,42.8c13.9,54.9,24.5,130.2-4.4,177.2
						c-12.5,20.4-31.2,33.5-55.5,38.9C2774.2,2140.5,2766.7,2141.3,2759.4,2141.3z M2687.7,1918.2c-8.6,1.2-16.1,5.7-21.3,12.6
						c-5.2,7-7.4,15.6-6.2,24.3c6.4,43.8,23.2,121.4,64.7,150c15,10.3,31.9,13.2,51.5,8.8c17.6-3.9,30.4-12.9,39.3-27.4
						c25.5-41.5,11.8-116.6,1.4-157.6c-4-15.9-19.5-26.2-35.8-23.9L2687.7,1918.2L2687.7,1918.2z"/>
				</g>
			</g>
			<g>
				<g>
					<path class="st1" d="M3137.1,1449.4c0,0-4.2,67.4-59.4,85.8c0,0-14.9,323.6-485.3,404.9l-40.6-77.8l-90-172.3l36.8-10.3
						c0,0,169.8-34.8,230.4-58.6c60.6-23.8,124.8-146.1,124.8-146.1s-36.2-57.6-38.6-119.4c-2.4-61.8,2.4-95.4,32.6-102
						c27.6-6.1,39.9,43.2,41.9,52c-3.3-16.5-34.2-178.6,30.6-189.3c55-9.1,55.7,131.8,53.9,187c3.8-59.6,19.8-220.8,83.3-212.6
						c54.5,7.1,31.4,125.7,12.8,196c18.8-56.4,52.9-137.9,91.7-127.8c62.8,16.5-32.2,193-34.4,197.2c1.7-2.4,61.3-88.7,98.4-72.3
						c1.4,0.6,2.8,1.3,4.1,2.2C3281.4,1321.4,3137.1,1449.4,3137.1,1449.4z"/>
				</g>
				<g class="st2">
					<path class="st0" d="M3137.1,1449.4c0,0-4.2,67.4-59.4,85.8c0,0-14.9,323.6-485.3,404.9l-40.6-77.8l17-40.8
						c0,0,144.2-22,262.9-77.6c118.6-55.6,148-197.8,148-197.8s-139,12.9-158.6-201.8c0,0,30.4,148.5,172.4,150.8
						c83.6,1.3,111.3-47,119.5-68.5c2.6-6.9,6.9-13,12.7-17.7c27.5-22.2,104.1-87.7,100.4-125c1.4,0.6,2.8,1.3,4.1,2.2
						C3281.4,1321.4,3137.1,1449.4,3137.1,1449.4z"/>
				</g>
				<g class="st2">
					<path class="st0" d="M2880.6,1238c0,0,19.8,62.6,49.2,62.6s42.2-87.6,42.2-87.6v126l-70.7,11.1
						C2901.2,1350.1,2880.9,1290,2880.6,1238z"/>
				</g>
				<g class="st2">
					<path class="st0" d="M2980.6,1238c0,0,6.8,65.3,34.1,68.8c27.3,3.6,64.2-55.8,64.2-55.8l-26.7,95.6l-76.6-7.1L2980.6,1238z"/>
				</g>
				<g class="st2">
					<path class="st0" d="M3088.8,1250.4c0,0-7,54.1,15.6,64.2s55.2-25.5,55.2-25.5l-32.1,67.1c0,0-12.3,26.1-69.7-7.7
						L3088.8,1250.4z"/>
				</g>
				<g>
					<g>
						<path class="st0" d="M2934.2,1805.8c-1.3,0-2.6-0.2-4-0.6c-176.3-57.6-212.1-175.6-213.6-180.6c-1.9-6.8,2-13.8,8.7-15.7
							c6.8-1.9,13.8,1.9,15.7,8.7c0.4,1.4,34.5,110.4,197,163.4c6.7,2.2,10.3,9.4,8.1,16C2944.6,1802.4,2939.6,1805.8,2934.2,1805.8
							z"/>
					</g>
					<g>
						<path class="st0" d="M2863.8,1467.2c11.2,15.7,25.3,31.8,38.3,46.4c1.2,1.3-0.1,3.5-1.8,3.1c-22.2-4.6-41.6-17.3-56.8-34.1
							C2832.7,1468.8,2853.4,1453,2863.8,1467.2L2863.8,1467.2z"/>
					</g>
					<g>
						<path class="st0" d="M2981,1537c31.7,3,63.8-1.7,93.1-14c15.9-5.2,24.1,18,8.4,24c-8.6,2.7-17.4,5.1-26.3,6.4
							c-17.4,2.9-35.4,2.7-52.8-0.4c-8.7-1.8-17-4.3-25-8.8c-1.8-1-2.5-3.4-1.4-5.2C2977.7,1537.4,2979.4,1536.8,2981,1537
							L2981,1537z"/>
					</g>
					<g>
						<path class="st0" d="M2902.3,1303.9c3.8,16.9,6.4,34.3,8.4,51.4c0,0-14-11.2-14-11.2c3.9-0.3,7.4-0.2,11.2,0.1
							c27.3,1.8,53.9,12.9,74.5,30.6c17.6,14.6,30.8,34.8,39.6,55.7c2.1,4.5-4.2,8.3-7.2,4.3c-5.4-7.3-10.9-15.4-17-22.1
							c-24.1-28-61.3-46.1-98.5-43.4c-6.9,0.7-13.2-4.3-14-11.2c-1-8.2-2.1-16.4-3.4-24.5c-1.1-6.9-3.1-17.5-4.6-24.1
							C2874.2,1293.2,2898.1,1287.6,2902.3,1303.9L2902.3,1303.9z"/>
					</g>
					<g>
						<path class="st0" d="M2892.8,1345.2c55.5-22,121.3-25.2,175.9,0.9c3.6,1.4,8,4,11.2,6.1c3.6,2.2,7.2,4.4,10.7,6.7
							c1.8,1.1,2.3,3.5,1.1,5.3c-1.1,1.6-3.1,2.2-4.8,1.4c-29.7-12-60.9-18.4-92.8-17c-31.1,1.2-62.9,8.2-91.4,20.2
							C2887.3,1374.7,2877.5,1352.1,2892.8,1345.2L2892.8,1345.2z"/>
					</g>
				</g>
				<g>
					<path class="st0" d="M2592.3,1952.9c-4.7,0-9.1-2.6-11.3-6.8l-130.5-250.1c-1.8-3.4-1.9-7.4-0.4-10.9c1.5-3.5,4.5-6.2,8.2-7.2
						l36.7-10.3c0.3-0.1,0.6-0.2,0.9-0.2c1.7-0.3,169.5-34.9,228.3-57.9c43.4-17,94.6-97.3,114.8-134
						c-9.8-17.3-34.7-66.3-36.7-119.2c-2.1-55.2-0.5-105.5,42.7-115c8-1.8,15.9-0.6,23.1,3.2c-3.4-40.9-2.5-90.7,16.6-118.6
						c8.4-12.4,19.7-19.8,33.5-22.1c12.7-2.1,24.4,1.4,34.1,10.2c13.4,12.2,21.8,34.8,27.1,60.8c9-35.6,22.1-68,41.5-84.6
						c11.5-9.8,24.4-13.8,38.3-12c13.8,1.8,25.1,9.2,32.7,21.3c12,19.2,14,50.2,11.2,83.8c9.2-13.7,19.3-24.8,30-31.2
						c10.6-6.3,21.5-8.1,32.3-5.3c12.1,3.2,21.2,11,26.2,22.6c11.9,27.5-1.4,76-17.7,117.7c11-8.5,22.7-15,34.1-17.1
						c10.9-2,21.1,0,29.5,5.8c10,6.9,15.7,17,16.5,29.3c3,49.8-83.1,131.3-104.5,150.8c-2.2,16.9-12.8,68.1-59.6,88.6
						c-2.7,23.6-14.9,93.2-67.7,170.1c-58.4,85.1-180,195.5-427.4,238.3C2593.8,1952.8,2593,1952.9,2592.3,1952.9z M2480.3,1698
						l119,228c183.7-33.5,322.1-111.1,400.8-224.7c60.3-87.2,64.8-165.8,64.9-166.6c0.3-5.2,3.7-9.8,8.7-11.5
						c46.3-15.4,50.7-74,50.7-74.6c0.2-3.3,1.8-6.5,4.3-8.7c39.6-35.1,101.6-102.4,99.7-133.5c-0.3-4.4-1.9-7.4-5.5-9.9
						c-1.8-1.2-4.8-2.8-10.4-1.7c-22.9,4.2-57.8,44.3-74.4,68.6c-3.8,5.6-11.4,7.2-17.1,3.7c-5.8-3.5-7.8-11-4.5-16.9
						c27-49.8,65-140.2,51.7-170.8c-1.9-4.5-4.7-6.9-9.3-8.1c-2.6-0.7-6.7-1.1-12.8,2.5c-24.1,14.3-47,67.8-62.4,113.1
						c-7.4,28-14.4,49.3-16.4,55.3c-2.2,6.5-9.1,10.1-15.6,8.1c-6.5-1.9-10.4-8.7-8.8-15.3c1.4-5.7,7.1-28.1,16.4-55.6
						c15.3-58.9,29.5-137.2,11.1-166.6c-3.6-5.7-8.1-8.8-14.4-9.6c-6.7-0.9-12.5,1.1-18.5,6.1c-33,28.2-46.3,131.1-50.3,190.5
						c-0.4,12.9-1,22.3-1.3,25.8c-0.5,6.9-6.4,12.1-13.3,11.8c-6.9-0.3-12.3-6.1-12.1-13c0.1-3.8,0.4-13.7,1.3-27.4
						c1.7-61.4-3.7-143.6-26.6-164.5c-3.9-3.5-7.8-4.7-12.8-3.9c-6.9,1.1-12.1,4.7-16.6,11.3c-23.5,34.4-10.8,127.9-3.6,162.9
						c0.1,0.7,0.2,1.2,0.3,1.5c1.4,6.9-3.1,13.5-9.9,14.9c-6.8,1.4-13.5-3-15-9.8c-0.1-0.4-0.2-0.9-0.3-1.5
						c-2.8-13-10.4-34.3-20.2-40.7c-2.2-1.4-4.1-1.8-6.5-1.3c-19.4,4.3-25.1,26.8-22.7,89.1c2.2,57.5,36.3,112.6,36.7,113.1
						c2.4,3.8,2.6,8.7,0.5,12.7c-2.7,5.2-67.1,126.9-131.4,152.1c-59.9,23.5-220.3,56.7-232.1,59.1L2480.3,1698z"/>
				</g>
			</g>
			<g>
				<g>
					<path class="st1" d="M2249.2,1745.2l-109.9,314.2l-76.1,217.2l-187.1-9.4l-70.4-3.5l15.7-96.9c0,0-2.8-245.1,241.8-452.8
						L2249.2,1745.2z"/>
				</g>
				<g class="st2">
					<path class="st0" d="M2139.2,2059.5l-76.1,217.2l-167.8-10c-13.2-278.1,211.1-457.3,211.1-457.3S2127.7,1928.8,2139.2,2059.5z"
						/>
				</g>
				<g>
					<path class="st0" d="M1988.8,2020.2c-1.2,0-2.4-0.2-3.6-0.5c-92.6-27.4-118.7-21.2-118.9-21.2c0.4-0.1,0.6-0.2,0.6-0.2
						l-8.7-23.9c4.8-1.7,33.7-8.9,134.2,20.9c6.7,2,10.6,9.1,8.6,15.8C1999.3,2016.6,1994.2,2020.2,1988.8,2020.2z"/>
				</g>
				<g>
					<path class="st0" d="M2063.1,2289.4c-0.2,0-0.4,0-0.6,0l-257.5-12.9c-3.6-0.2-7-1.9-9.3-4.7c-2.3-2.8-3.2-6.5-2.7-10l15.5-95.8
						c0-20.8,5.9-257.4,246.3-461.5c2.9-2.4,6.6-3.5,10.3-2.9l186,31.1c3.7,0.6,6.9,2.8,8.8,6.1c1.9,3.2,2.3,7.1,1.1,10.7
						l-186,531.4C2073.4,2286,2068.5,2289.4,2063.1,2289.4z M1820.5,2251.7l233.8,11.8l177.9-508.2l-165.3-27.6
						c-232.3,200.3-232.9,436.7-232.9,439.1c0,0.7,0,1.5-0.2,2.2L1820.5,2251.7z"/>
				</g>
			</g>
			<g>
				<g>
					<path class="st1" d="M2706.2,2282.1l-478.5-9.8l-202.6-4.1l-45.9-0.9l-27.4-0.5c0,0,10.9-263.1,151.1-460.3l15.1-102.2
						c0,0,328.3-79.6,361.6-48.7c33.2,30.9,67.7,128.9,67.7,128.9s0,0,0.1,0C2667.2,1975.2,2706.2,2282.1,2706.2,2282.1z"/>
				</g>
				<g class="st2">
					<path class="st0" d="M2706.2,2282.1l-478.5-9.8c201.5-17.8,423.1-116.3,319.5-487.9c0,0,0,0,0.1,0
						C2667.2,1975.2,2706.2,2282.1,2706.2,2282.1z"/>
				</g>
				<g>
					<path class="st0" d="M2106.4,1809c-38.9,71.2-74.6,143.2-97.3,221.2c-23.1,77-39,157-45.5,237c0,0-11.6-12.4-11.6-12.3
						c62.9,0.4,125.8,1.7,188.6,3.1c119.8,2.7,442,10,565.8,12.9l-11.4,12.6c-20.8-128.3-51.1-256.5-99.4-377.5
						c-16.5-40.2-35.8-78.6-53.9-118.3c-3.1-6.5,6.1-12.4,10.7-6.6c41.9,52.2,65.8,115.8,88.9,177.9
						c36.6,104.2,61.7,212.2,75.9,321.7c0.9,6.7-4.5,12.8-11.2,12.7c-125.5-2.3-444.8-8-566-10.2c-62.9-1.1-125.7-2.4-188.6-4.6
						c-6.6,0-11.9-5.5-11.6-12.1c1.8-41.9,7.3-82.6,15-123.6c23-115.7,65.6-249.1,144.3-339
						C2102.8,1800.1,2108.9,1804.4,2106.4,1809L2106.4,1809z"/>
				</g>
			</g>
			<g>
				<g>
					<path class="st1" d="M2174.6,2066h-153.7c-19.3,0-35-15.7-35-35v-9.8c0-19.3,15.7-35,35-35h153.7c19.3,0,35,15.7,35,35v9.8
						C2209.6,2050.3,2193.9,2066,2174.6,2066z"/>
				</g>
				<g class="st2">
					<path class="st0" d="M2174.6,2028.6h-153.7c-14.4,0-26.8-8.7-32.1-21.1c-1.8,4.2-2.9,8.9-2.9,13.8v9.8c0,19.3,15.7,35,35,35
						h153.7c19.3,0,35-15.7,35-35v-9.8c0-4.9-1-9.6-2.9-13.8C2201.3,2019.9,2189,2028.6,2174.6,2028.6z"/>
				</g>
				<g>
					<path class="st0" d="M2174.6,2078.7h-153.7c-26.3,0-47.7-21.4-47.7-47.7v-9.8c0-26.3,21.4-47.7,47.7-47.7h153.7
						c26.3,0,47.7,21.4,47.7,47.7v9.8C2222.3,2057.3,2200.9,2078.7,2174.6,2078.7z M2020.9,1999c-12.3,0-22.3,10-22.3,22.3v9.8
						c0,12.3,10,22.3,22.3,22.3h153.7c12.3,0,22.3-10,22.3-22.3v-9.8c0-12.3-10-22.3-22.3-22.3H2020.9z"/>
				</g>
			</g>
			<g>
				<g>
					<g>
						<path class="st1" d="M2063.1,1927.4v186.9c0,18.1,14.6,32.7,32.7,32.7h352.5c18,0,32.7-14.6,32.7-32.7v-186.9
							c0-18.1-14.6-32.7-32.7-32.7h-352.5C2077.8,1894.8,2063.1,1909.4,2063.1,1927.4z"/>
					</g>
					<g class="st2">
						<path class="st0" d="M2063.1,2035v56.9c0,18.1,14.6,32.7,32.7,32.7h352.5c0,0,0.1,0,0.1,0c7.3,0,13.3-6.1,13.4-13.4
							c0,0,0-0.1,0-0.1v-92.6c-12.1,10.9-29.8,19.5-52.6,11.7l-5-16.7c0,0-49.4,67.4-190.7,78.8
							C2072.3,2103.7,2063.1,2035,2063.1,2035z"/>
					</g>
					<g>
						<path class="st0" d="M2371.6,2159.7c-7,0-12.7-5.7-12.7-12.7s5.7-12.7,12.7-12.7c11,0,19.9-9,19.9-19.9v-186.9
							c0-11-9-19.9-19.9-19.9c-7,0-12.7-5.7-12.7-12.7s5.7-12.7,12.7-12.7c25,0,45.4,20.4,45.4,45.4v186.9
							C2417,2139.3,2396.6,2159.7,2371.6,2159.7z"/>
					</g>
					<g>
						<path class="st0" d="M2129.4,2159.7c-7,0-12.7-5.7-12.7-12.7v-95.7c0-4,1.9-7.8,5.1-10.2l61.8-46.3v-100
							c0-7,5.7-12.7,12.7-12.7s12.7,5.7,12.7,12.7v106.4c0,4-1.9,7.8-5.1,10.2l-61.8,46.3v89.4
							C2142.1,2154,2136.4,2159.7,2129.4,2159.7z"/>
					</g>
					<g>
						<path class="st0" d="M2448.3,2159.7h-352.5c-25,0-45.4-20.4-45.4-45.4v-186.9c0-25,20.4-45.4,45.4-45.4h352.5
							c25,0,45.4,20.4,45.4,45.4v186.9C2493.7,2139.3,2473.3,2159.7,2448.3,2159.7z M2095.8,1907.5c-11,0-19.9,9-19.9,19.9v186.9
							c0,11,9,19.9,19.9,19.9h352.5c11,0,19.9-9,19.9-19.9v-186.9c0-11-9-19.9-19.9-19.9H2095.8z"/>
					</g>
				</g>
				<g>
					<g>
						<g>
							<path class="st3" d="M2308.2,2036.2c-5.2,3.1-10.9,4.8-17,4.8h34c23.1,0,41.8-24.5,41.8-54.7c0-30.2-18.7-54.7-41.8-54.7h-34
								c6.1,0,11.8,1.7,17,4.8c14.6,8.5,24.8,27.7,24.8,49.9C2333,2008.6,2322.8,2027.7,2308.2,2036.2z"/>
						</g>
						<g class="st2">
							<path class="st0" d="M2331.2,2002c15.3-2.9,27.8-16.5,33.1-34.9c1.7,6,2.7,12.4,2.7,19.2c0,30.2-18.7,54.7-41.8,54.7h-34
								c6.1,0,11.8-1.7,17-4.8C2319.2,2029.8,2327.7,2017.3,2331.2,2002z"/>
						</g>
						<g class="st4">
							<path class="st1" d="M2325.2,1954h-0.3c-4.3-7.6-10-13.7-16.7-17.6c-5.2-3.1-10.9-4.8-17-4.8h34c23.1,0,41.8,24.5,41.8,54.7
								c0,3.8-0.3,7.6-0.9,11.2C2362.2,1972.6,2345.4,1954,2325.2,1954z"/>
						</g>
						<g>
							<path class="st0" d="M2325.2,2051h-34c-5.5,0-10-4.5-10-10s4.5-10,10-10c4.1,0,8.1-1.1,11.9-3.4c0,0,0,0,0.1,0
								c12-7,19.8-23.2,19.8-41.3c0-18.1-7.8-34.3-19.8-41.3c-3.8-2.3-7.8-3.4-12-3.4c-5.5,0-10-4.5-10-10s4.5-10,10-10h34
								c28.6,0,51.8,29,51.8,64.7C2377,2022,2353.8,2051,2325.2,2051z M2328.9,1941.9c8.9,11.8,14.1,27.6,14.1,44.4
								c0,16.8-5.2,32.6-14.1,44.4c15.8-2.6,28.1-21.5,28.1-44.4C2357,1963.4,2344.7,1944.5,2328.9,1941.9z"/>
						</g>
					</g>
					<g>
						<g>
							<path class="st3" d="M2249.4,1986.3c0,30.2,18.7,54.7,41.8,54.7c6.1,0,11.8-1.7,17-4.8c14.6-8.5,24.8-27.7,24.8-49.9
								c0-22.3-10.2-41.4-24.8-49.9c-5.2-3.1-10.9-4.8-17-4.8C2268.1,1931.6,2249.4,1956.1,2249.4,1986.3z"/>
						</g>
						<g class="st2">
							<path class="st0" d="M2249.4,1986.3c0,26.6,14.5,48.8,33.8,53.7c3.1-0.8,6.1-2,9-3.7c13.5-7.9,23.3-24.9,24.6-45.1
								c-2.6,2.7-5.5,5-8.6,6.8c-5.2,3.1-10.9,4.8-17,4.8c-17.9,0-33.2-14.8-39.1-35.5C2250.4,1973.1,2249.4,1979.5,2249.4,1986.3z"
								/>
						</g>
						<g class="st4">
							<path class="st1" d="M2311.4,1961.9c-5.2-3.1-10.9-4.8-17-4.8c-22,0-40,22.3-41.6,50.6c-2.2-6.6-3.4-13.9-3.4-21.5
								c0-30.2,18.7-54.7,41.8-54.7c6.1,0,11.8,1.7,17,4.8c14.6,8.5,24.8,27.7,24.8,49.9c0,1.4,0,2.9-0.1,4.3
								C2328.7,1977.8,2321,1967.5,2311.4,1961.9z"/>
						</g>
						<g>
							<path class="st0" d="M2291.2,2051c-28.6,0-51.8-29-51.8-64.7c0-35.7,23.2-64.7,51.8-64.7c7.8,0,15.2,2.1,22.1,6.2
								c18,10.5,29.7,33.5,29.7,58.5c0,25-11.7,48-29.7,58.6C2306.4,2048.9,2299,2051,2291.2,2051z M2291.2,1941.6
								c-17.5,0-31.8,20-31.8,44.7s14.3,44.7,31.8,44.7c4.1,0,8.1-1.1,11.9-3.4c12.1-7.1,19.9-23.3,19.9-41.3
								c0-18.1-7.8-34.3-19.8-41.3C2299.4,1942.7,2295.3,1941.6,2291.2,1941.6z"/>
						</g>
					</g>
				</g>
			</g>
			<g>
				<g>
					<path class="st1" d="M2634.4,2066h-153.7c-19.3,0-35-15.7-35-35v-9.8c0-19.3,15.7-35,35-35h153.7c19.3,0,35,15.7,35,35v9.8
						C2669.4,2050.3,2653.7,2066,2634.4,2066z"/>
				</g>
				<g class="st2">
					<path class="st0" d="M2634.4,2028.6h-153.7c-14.4,0-26.8-8.7-32.1-21.1c-1.8,4.2-2.9,8.9-2.9,13.8v9.8c0,19.3,15.7,35,35,35
						h153.7c19.3,0,35-15.7,35-35v-9.8c0-4.9-1-9.6-2.9-13.8C2661.1,2019.9,2648.8,2028.6,2634.4,2028.6z"/>
				</g>
				<g>
					<path class="st0" d="M2634.4,2078.7h-153.7c-26.3,0-47.7-21.4-47.7-47.7v-9.8c0-26.3,21.4-47.7,47.7-47.7h153.7
						c26.3,0,47.7,21.4,47.7,47.7v9.8C2682.1,2057.3,2660.7,2078.7,2634.4,2078.7z M2480.7,1999c-12.3,0-22.3,10-22.3,22.3v9.8
						c0,12.3,10,22.3,22.3,22.3h153.7c12.3,0,22.3-10,22.3-22.3v-9.8c0-12.3-10-22.3-22.3-22.3H2480.7z"/>
				</g>
			</g>
			<g>
				<g>
					<g>
						<path class="st1" d="M1828.4,1263.7c0,0-139.4,14.3-120.9,142c18.5,127.7,55.7,217.3,187.8,156.7L1828.4,1263.7z"/>
					</g>
					<g class="st2">
						<path class="st0" d="M1884.6,1531.3c-89.8,41.2-135.7,13-161.7-49.4c-3.8-13.3-7-27.7-9.9-42.8c28.1,28.2,69.7,34,133.6,4.8
							l-39.4-176.1c7.7-2,13.9-3.1,17.7-3.7L1884.6,1531.3z"/>
					</g>
					<g>
						<path class="st0" d="M1821.1,1591.9c-16.7,0-31.8-3.7-45.2-11c-50.8-27.7-68.1-103.3-78.3-173.7c-5.6-38.7,1.9-71.5,22.3-97.7
							c37.5-48,104.7-55.4,107.5-55.7c5-0.5,9.7,2.8,10.8,7.8l66.9,298.7c1,4.6-1.3,9.3-5.6,11.3
							C1869.9,1585.1,1843.9,1591.9,1821.1,1591.9z M1820.7,1275.1c-18.1,3.5-60.3,14.9-85.1,46.8c-16.9,21.7-23,49.4-18.2,82.4
							c8.9,61.7,24.7,135.5,68.1,159c24.4,13.3,56.6,11.1,98.3-6.7L1820.7,1275.1z"/>
					</g>
				</g>
				<g>
					<g>
						<path class="st1" d="M2613.9,1105.6c0,0,134.3-40.1,166,85c31.7,125.1,31.7,222.1-113.6,216.6L2613.9,1105.6z"/>
					</g>
					<g class="st2">
						<path class="st0" d="M2664.4,1374.4c98.7,3.8,130.4-39.9,130.5-107.4c-1.6-13.8-4.1-28.3-7.3-43.3
							c-15.2,36.8-51.4,58.1-121.6,55.4l-30.9-177.8c-7.9,1.1-14.1,2.5-17.7,3.4L2664.4,1374.4z"/>
					</g>
					<g>
						<path class="st0" d="M2678,1417.5c-3.9,0-7.9-0.1-12-0.2c-4.7-0.2-8.7-3.6-9.5-8.3l-52.4-301.6c-0.9-5,2.1-9.8,7-11.3
							c2.7-0.8,67.7-19.7,120.6,10.4c28.8,16.4,48.3,43.9,57.9,81.7c17.5,69,30.5,145.5-5.9,190.5
							C2762.6,1404.7,2728,1417.5,2678,1417.5z M2674.8,1397.5c45.2,0.4,75.9-9.8,93.4-31.4c31-38.3,17.4-112.6,2.1-173
							c-8.2-32.3-24.5-55.6-48.3-69.2c-35.1-20-78.4-14.4-96.6-10.7L2674.8,1397.5z"/>
					</g>
				</g>
				<g>
					<g>
						<path class="st1" d="M2701.6,1321.4c0,22.4-1.6,44.3-4.8,65.8v0.1c0,0,0,0.1,0,0.2c-31.9,218.6-220.1,386.3-447.6,386.3
							c-153,0-288.2-75.9-370-192.1c-0.5-0.7-0.9-1.2-1.2-1.7c-0.7-1-1.1-1.5-1.1-1.5h-0.1c-40.2-58.2-67.2-126.3-76.5-199.8
							c0,0,0-0.1,0-0.1c-2.4-18.8-3.6-37.9-3.6-57.2c0-249.8,202.6-452.4,452.4-452.4c203,0,374.8,133.6,432,317.8
							C2694.5,1229.3,2701.6,1274.5,2701.6,1321.4z"/>
					</g>
					<g class="st2">
						<path class="st0" d="M2681.2,1186.8c-49.7-159.8-185.7-281.6-353.5-310.9c107.1,49,189.9,141.9,225.4,255.8
							c12.2,39.3,18.8,81.1,18.8,124.3c0,20.6-1.5,41-4.4,60.8v0.1c0,0,0,0,0,0.1c-29.5,201.9-203.3,356.9-413.4,356.9
							c-114.2,0-217.7-45.8-293.1-120.1c5.1,8.4,10.4,16.7,16,24.8h0.1c0,0,0.4,0.6,1.1,1.5c0.3,0.4,0.7,1,1.2,1.7
							c81.8,116.2,217,192.1,370,192.1c227.4,0,415.6-167.8,447.6-386.3c0-0.1,0-0.2,0-0.2v-0.1c3.2-21.5,4.8-43.4,4.8-65.8
							C2701.6,1274.5,2694.5,1229.3,2681.2,1186.8z"/>
					</g>
					<g>
						<path class="st0" d="M2701.6,1321.4c0,22.4-1.6,44.3-4.8,65.8v0.1c0,0,0,0.1,0,0.2c-1.6,6.8-52.6,230.3-339.1,302.5
							c-332.6,83.8-459.4-82.6-478.5-108.3c-0.5-0.7-0.9-1.2-1.2-1.7c-0.7-1-1.1-1.5-1.1-1.5h-0.1c-40.2-58.2-67.2-126.3-76.5-199.8
							c0,0,0-0.1,0-0.1c-0.2-6.9-7.7-309.5,384.5-383.6c364.7-68.9,496.4,191.8,496.4,191.8
							C2694.5,1229.3,2701.6,1274.5,2701.6,1321.4z"/>
					</g>
					<g>
						<path class="st5" d="M2701.6,1321.4c0,22.4-1.6,44.3-4.8,65.8v0.1c0,0,0,0.1,0,0.2c0,0.1,0,0.3-0.1,0.5
							c-3.1,13.3-57.1,231-339,302c-323.5,81.6-452.3-73.7-476.7-105.9c-0.3-0.3-0.5-0.7-0.8-1.1c-0.3-0.4-0.6-0.8-0.9-1.2
							c-0.5-0.7-0.9-1.2-1.2-1.7c-0.7-1-1.1-1.5-1.1-1.5h-0.1c-2.5-3.6-5-7.3-7.4-11c-1.5-2.4-3.1-4.8-4.6-7.2
							c-0.1-0.1-0.1-0.2-0.1-0.2c-1.3-2.1-2.6-4.2-3.9-6.3c75.4,74.2,178.9,120.1,293.1,120.1c210.1,0,383.9-155,413.4-356.9
							c0.1-0.1,0.1-0.1,0.1-0.1v-0.2c3-19.8,4.4-40.1,4.4-60.7c0-43.3-6.6-85.1-18.9-124.3c-11.8-37.9-28.8-73.5-50.3-105.9
							c127.2,59.5,178.5,161.1,178.5,161.1C2694.5,1229.3,2701.6,1274.5,2701.6,1321.4z"/>
					</g>
					<g class="st6">
						<path class="st1" d="M1928.5,1535.9c-37.8-87.5-118.8-351.2,217.8-457.2c7.2-2.3,12.6,6.9,7,12
							c-59.3,54.7-206.2,213-211.2,442.6C1942,1540.9,1931.5,1542.9,1928.5,1535.9z"/>
					</g>
					<g class="st6">
						
							<ellipse transform="matrix(0.2978 -0.9546 0.9546 0.2978 543.832 3370.2751)" class="st1" cx="2562.7" cy="1315.5" rx="70.9" ry="61.7"/>
					</g>
					<g class="st6">
						
							<ellipse transform="matrix(0.2078 -0.9782 0.9782 0.2078 582.5494 3615.5317)" class="st1" cx="2523.3" cy="1448.1" rx="29.3" ry="25.5"/>
					</g>
					<g>
						<path class="st0" d="M1800.4,1274.1c-0.7,0-1.4-0.1-2.2-0.2c-5.4-1.2-8.8-6.5-7.6-11.9c0.6-2.6,14.8-65.7,66.8-136.8
							c47.9-65.5,138.3-150.2,297-181.6c185.4-36.7,311.8,8.1,385.2,52c79.9,47.9,115.3,104.1,116.8,106.5
							c2.9,4.7,1.5,10.9-3.2,13.8c-4.7,2.9-10.9,1.5-13.8-3.2c-0.3-0.5-34.9-55-111-100.4c-70.3-41.9-191.5-84.3-370.1-49
							c-151.9,30.1-238.4,110.7-284.2,173.1c-49.8,67.8-63.8,129.4-63.9,130C1809.1,1270.9,1804.9,1274.1,1800.4,1274.1z"/>
					</g>
					<g>
						<path class="st0" d="M2249.2,1783.8c-255,0-462.4-207.4-462.4-462.4S1994.2,859,2249.2,859s462.4,207.4,462.4,462.4
							S2504.1,1783.8,2249.2,1783.8z M2249.2,879c-244,0-442.4,198.5-442.4,442.4c0,243.9,198.5,442.4,442.4,442.4
							c243.9,0,442.4-198.5,442.4-442.4C2691.6,1077.5,2493.1,879,2249.2,879z"/>
					</g>
				</g>
			</g>
			<g>
				<g>
					<path class="st0" d="M2462.8,2970.8h-298.4c0,0-53-572.7,157.2-577.4C2531.7,2388.6,2531.7,2831.8,2462.8,2970.8z"/>
				</g>
				<g>
					<path class="st0" d="M2462.8,2980.8h-298.4c-5.2,0-9.5-3.9-10-9.1c-1.6-16.9-36.9-415.2,79.9-546.3c24.2-27.1,53.4-41.3,87-42
						c54-1.3,98.1,24.6,131.2,76.6c85.2,133.9,72.5,407.6,19.2,515.2C2470.1,2978.6,2466.6,2980.8,2462.8,2980.8z M2173.6,2960.8
						h282.9c48-105.2,58.2-365.9-20.8-490.1c-29.1-45.8-67.4-68.4-113.9-67.4c-28.2,0.6-51.9,12.2-72.5,35.3
						C2147.6,2552.8,2169,2900.1,2173.6,2960.8z"/>
				</g>
			</g>
			<g>
				<g>
					<path class="st7" d="M1952.7,2467.5c-110.7,0-200.7-90.1-200.7-200.7c0-110.7,90.1-200.7,200.7-200.7
						c110.7,0,200.7,90.1,200.7,200.7C2153.5,2377.4,2063.4,2467.5,1952.7,2467.5z M1952.7,2137.5c-71.3,0-129.3,58-129.3,129.3
						s58,129.3,129.3,129.3s129.3-58,129.3-129.3S2024,2137.5,1952.7,2137.5z"/>
				</g>
				<g class="st2">
					<path class="st0" d="M1952.7,2101.6c-91,0-165.1,74.1-165.1,165.1c0,91,74.1,165.1,165.1,165.1c91,0,165.1-74.1,165.1-165.1
						C2117.8,2175.7,2043.8,2101.6,1952.7,2101.6z M1952.7,2396c-71.3,0-129.3-58-129.3-129.3s58-129.3,129.3-129.3
						s129.3,58,129.3,129.3S2024,2396,1952.7,2396z"/>
				</g>
				<g>
					<path class="st0" d="M1952.7,2477.5c-116.2,0-210.7-94.5-210.7-210.7c0-116.2,94.5-210.7,210.7-210.7s210.7,94.5,210.7,210.7
						C2163.5,2382.9,2068.9,2477.5,1952.7,2477.5z M1952.7,2076c-105.2,0-190.7,85.6-190.7,190.7c0,105.2,85.6,190.7,190.7,190.7
						c105.2,0,190.7-85.6,190.7-190.7C2143.5,2161.6,2057.9,2076,1952.7,2076z M1952.7,2406c-76.8,0-139.3-62.5-139.3-139.3
						c0-76.8,62.5-139.3,139.3-139.3s139.3,62.5,139.3,139.3C2092,2343.5,2029.5,2406,1952.7,2406z M1952.7,2147.5
						c-65.8,0-119.3,53.5-119.3,119.3c0,65.8,53.5,119.3,119.3,119.3s119.3-53.5,119.3-119.3C2072,2201,2018.5,2147.5,1952.7,2147.5
						z"/>
				</g>
			</g>
			<g>
				<g>
					<path class="st1" d="M1651.2,2275.9c0,0,2.5-148.9,71.9-200.3c69.4-51.3,157.3,2.1,119.9,189.9
						C1843,2265.5,1690.1,2280.3,1651.2,2275.9z"/>
				</g>
				<g class="st2">
					<path class="st0" d="M1739.1,2065.9c37.1,22,60.1,86.3,37.6,199.7c0,0-68.5,6.6-125.4,9.6c0,0.4,0,0.7,0,0.7
						c38.8,4.4,191.8-10.3,191.8-10.3C1877.6,2091.8,1805.1,2033.1,1739.1,2065.9z"/>
				</g>
				<g>
					<path class="st0" d="M1671.6,2286.7c-8.8,0-16.1-0.3-21.5-0.9c-5.1-0.6-9-5-8.9-10.1c0.1-6.3,3.4-154.5,76-208.1
						c31.7-23.5,67.4-26.9,95.3-9.2c46.3,29.3,61,105.6,40.4,209.1c-0.9,4.3-4.5,7.6-8.8,8C1838.6,2276,1727.2,2286.7,1671.6,2286.7
						z M1661.6,2266.5c41.6,1.5,144.4-7.6,173-10.3c16.6-90,4.5-157.3-32.9-181c-21-13.3-47.5-10.3-72.7,8.4
						C1674.1,2124.3,1663.6,2233.6,1661.6,2266.5z"/>
				</g>
			</g>
		</g>
		<g>
			<g>
				<g>
					<path class="st0" d="M3582.9,2821.7h-294c0,0-33.8-484.8,166.2-498.1C3655.1,2310.2,3608.7,2775.4,3582.9,2821.7z"/>
				</g>
				<g>
					<path class="st0" d="M3582.9,2831.7h-294c-5.3,0-9.6-4.1-10-9.3c-1-13.8-22.3-338.7,85.2-462c25.1-28.7,55.5-44.5,90.3-46.8
						c46.5-3.2,83.9,17.2,111.2,60.4c43.4,68.6,51.7,178.8,51,259.2c-0.8,90.3-13.6,172.9-25,193.4
						C3589.9,2829.7,3586.5,2831.7,3582.9,2831.7z M3298.3,2811.7h278c17.3-48.7,44.9-312.5-27.6-427c-23.4-37-53.9-53.7-93-51.1
						c-29.4,2-55.1,15.4-76.6,40C3286.9,2479.4,3295.7,2757.2,3298.3,2811.7z"/>
				</g>
			</g>
			<g>
				<g>
					<g>
						<path class="st7" d="M2129.5,2763.3c0,174.4-57.8,315.7-129.2,315.7c-71.3,0-129.2-141.3-129.2-315.7
							c0-174.4,57.8-315.8,129.2-315.8C2071.6,2447.6,2129.5,2588.9,2129.5,2763.3z"/>
					</g>
					<g>
						<path class="st0" d="M2000.3,3087.7c-77.3,0-137.9-142.5-137.9-324.4c0-181.9,60.6-324.4,137.9-324.4
							c77.3,0,137.9,142.5,137.9,324.4C2138.2,2945.2,2077.6,3087.7,2000.3,3087.7z M2000.3,2456.3c-65.3,0-120.5,140.6-120.5,307.1
							c0,166.4,55.2,307,120.5,307c65.3,0,120.5-140.6,120.5-307C2120.8,2596.9,2065.6,2456.3,2000.3,2456.3z"/>
					</g>
				</g>
				<g>
					<g>
						<path class="st7" d="M2000.3,3079h-309.9c-71.3,0-129.2-141.3-129.2-315.7c0-174.4,57.8-315.8,129.2-315.8h309.9
							c-71.3,0-129.2,141.4-129.2,315.8C1871.1,2937.7,1929,3079,2000.3,3079z"/>
					</g>
					<g>
						<g>
							<path class="st0" d="M1724.5,3085.5c-76.1,0-135.7-141.5-135.7-322.2c0-180.7,59.6-322.3,135.7-322.3c3.6,0,6.5,2.9,6.5,6.5
								s-2.9,6.5-6.5,6.5c-66.5,0-122.6,141.6-122.6,309.2c0,167.6,56.2,309.2,122.6,309.2c3.6,0,6.5,2.9,6.5,6.5
								S1728.1,3085.5,1724.5,3085.5z"/>
						</g>
						<g>
							<path class="st0" d="M1796.7,3085.5c-76.1,0-135.7-141.5-135.7-322.2c0-180.7,59.6-322.3,135.7-322.3c3.6,0,6.5,2.9,6.5,6.5
								s-2.9,6.5-6.5,6.5c-66.5,0-122.6,141.6-122.6,309.2c0,167.6,56.2,309.2,122.6,309.2c3.6,0,6.5,2.9,6.5,6.5
								S1800.3,3085.5,1796.7,3085.5z"/>
						</g>
						<g>
							<path class="st0" d="M1868.9,3085.5c-76.1,0-135.7-141.5-135.7-322.2c0-180.7,59.6-322.3,135.7-322.3c3.6,0,6.5,2.9,6.5,6.5
								s-2.9,6.5-6.5,6.5c-66.5,0-122.6,141.6-122.6,309.2c0,167.6,56.2,309.2,122.6,309.2c3.6,0,6.5,2.9,6.5,6.5
								S1872.5,3085.5,1868.9,3085.5z"/>
						</g>
						<g>
							<path class="st0" d="M1941.1,3085.5c-76.1,0-135.7-141.5-135.7-322.2c0-180.7,59.6-322.3,135.7-322.3c3.6,0,6.5,2.9,6.5,6.5
								s-2.9,6.5-6.5,6.5c-66.5,0-122.6,141.6-122.6,309.2c0,167.6,56.2,309.2,122.6,309.2c3.6,0,6.5,2.9,6.5,6.5
								S1944.7,3085.5,1941.1,3085.5z"/>
						</g>
					</g>
					<g>
						<path class="st0" d="M2000.3,3087.7h-309.9c-77.3,0-137.9-142.5-137.9-324.4c0-181.9,60.6-324.4,137.9-324.4h309.9
							c4.8,0,8.7,3.9,8.7,8.7s-3.9,8.7-8.7,8.7c-65.3,0-120.5,140.6-120.5,307.1c0,166.4,55.2,307,120.5,307c4.8,0,8.7,3.9,8.7,8.7
							S2005.1,3087.7,2000.3,3087.7z M1690.4,2456.3c-65.3,0-120.5,140.6-120.5,307.1c0,166.4,55.2,307,120.5,307h264.4
							c-54.3-43.3-92.4-162.7-92.4-307c0-144.3,38.1-263.8,92.4-307.1H1690.4z"/>
					</g>
				</g>
				<g>
					<g>
						<ellipse class="st0" cx="2017.2" cy="2766" rx="86.7" ry="257.2"/>
					</g>
					<g>
						<polygon class="st8" points="2019.6,2657.6 2066.5,2553.2 2077.6,2581.4 2038.8,2671.5 						"/>
					</g>
					<g>
						<polygon class="st8" points="1974.4,2785 1944.9,2908.1 1958.1,2948.3 1991.2,2822.4 						"/>
					</g>
					<g>
						<polygon class="st8" points="2013.2,2882.4 2057.5,2993.8 2071.6,2965.9 2033.2,2868.4 2014.1,2869.9 						"/>
					</g>
					<g>
						<path class="st8" d="M1960.9,2570.4l15.5,136l14.8-21.2l-14.8-146.1C1976.3,2539,1964.2,2561.6,1960.9,2570.4z"/>
					</g>
					<g class="st2">
						<polygon class="st0" points="2019.6,2657.6 2066.5,2553.2 2077.6,2581.4 2038.8,2671.5 						"/>
					</g>
					<g class="st2">
						<polygon class="st0" points="1974.4,2785 1944.9,2908.1 1958.1,2948.3 1991.2,2822.4 						"/>
					</g>
					<g class="st2">
						<polygon class="st0" points="2013.2,2882.4 2057.5,2993.8 2071.6,2965.9 2033.2,2868.4 2014.1,2869.9 						"/>
					</g>
					<g class="st2">
						<path class="st0" d="M1960.9,2570.4l15.5,136l14.8-21.2l-14.8-146.1C1976.3,2539,1964.2,2561.6,1960.9,2570.4z"/>
					</g>
					<g>
						<path class="st8" d="M1976.3,2539l14.8,146.1l-17.8,25.5l-40.6-4.2l-2.3,50.3l43.9,28.1l11.5,38.8l-28.6,128.2
							c0,0,7.2,28.4,24.4,48.8l33.8-127.2l17.9-2.5l37.8,96.3c0,0,14.5-36.3,20-66.9l-37.6-89.1l2.7-56.4l39.5-97.9
							c0,0-9-45.1-18.2-75.6l-38.8,90.1l-12.6-3.6l-13-158.9C2013.2,2509,1994.1,2508.7,1976.3,2539z"/>
					</g>
					<g class="st2">
						<polygon class="st0" points="2013.4,2780.3 1996.3,2515.9 2013.2,2514.4 2026.2,2668 						"/>
					</g>
					<g class="st9">
						<polygon class="st0" points="2013.4,2780.3 1979,2800.4 1990.2,2838.6 						"/>
					</g>
					<g class="st2">
						<polygon class="st0" points="2013.4,2780.3 1935,2736.6 1935,2710.7 1976,2715.5 						"/>
					</g>
					<g class="st2">
						<polygon class="st0" points="2013.4,2780.3 2015.5,2873.5 1981.7,3000.7 1970.3,2984 2008.6,2811 						"/>
					</g>
					<g class="st2">
						<polygon class="st0" points="2013.4,2780.3 2082.4,2926.2 2087.8,2900.2 2053.8,2808.2 						"/>
					</g>
					<g class="st2">
						<polygon class="st0" points="2088.3,2622.7 2013.4,2780.3 2056.3,2754.9 2095.8,2653.1 						"/>
					</g>
					<g class="st9">
						<polygon class="st0" points="2013.4,2780.3 2040.1,2868.4 2015.5,2873.5 						"/>
					</g>
					<g>
						<path class="st0" d="M1981.7,3009.4c-2.5,0-5-1.1-6.6-3.1c-18.4-21.7-25.9-51.1-26.2-52.3c-0.3-1.3-0.4-2.7-0.1-4l28.1-126
							l-9.9-33.5l-41.1-26.3c-2.6-1.7-4.1-4.6-4-7.7l2.3-50.3c0.1-2.4,1.2-4.6,3-6.2c1.8-1.6,4.2-2.3,6.6-2.1l35.5,3.6l13-18.7
							l-14.5-142.9c-0.2-1.8,0.2-3.7,1.2-5.3c19.8-33.7,42-34.2,44.5-34.3c4.5,0.1,8.2,3.5,8.5,8l12.4,151.7l35.4-82
							c1.5-3.4,5-5.4,8.5-5.2c3.6,0.2,6.8,2.7,7.8,6.2c9.2,30.5,18,74.5,18.4,76.4c0.3,1.7,0.2,3.4-0.5,5l-38.9,96.5l-2.5,52.9
							l36.8,87.3c0.6,1.5,0.8,3.2,0.5,4.9c-5.5,31.1-19.9,67.1-20.5,68.6c-1.3,3.3-4.5,5.5-8.1,5.5c0,0,0,0,0,0
							c-3.6,0-6.8-2.2-8.1-5.5l-35.3-89.9l-5.4,0.8l-32.3,121.7c-0.8,3.1-3.3,5.5-6.5,6.3C1983,3009.4,1982.4,3009.4,1981.7,3009.4z
							 M1966.2,2951.7c1.3,4.5,5.2,16.4,11.9,28.5l28.9-108.9c0.9-3.4,3.7-5.9,7.2-6.4l17.9-2.5c4-0.6,7.8,1.7,9.3,5.4l29.4,74.8
							c4-11.9,8.6-27.1,11.3-41.3l-36.6-86.7c-0.5-1.2-0.7-2.5-0.7-3.8l2.7-56.4c0-1,0.3-1.9,0.6-2.8l38.5-95.4
							c-1.5-7.1-5.8-27.8-11-48.5l-29,67.3c-1.7,4-6.1,6.1-10.4,4.9l-12.6-3.6c-3.5-1-6-4-6.3-7.7l-12.2-148.3
							c-5.2,2.8-12.6,8.7-20.1,20.7l14.6,143.2c0.2,2.1-0.3,4.1-1.5,5.8l-17.8,25.5c-1.8,2.6-4.9,4-8,3.7l-31.4-3.2l-1.6,36.1
							l39.7,25.4c1.8,1.1,3.1,2.9,3.7,4.9l11.5,38.8c0.4,1.4,0.5,2.9,0.2,4.4L1966.2,2951.7z"/>
					</g>
					<g>
						<path class="st0" d="M2017.2,3031.9c-62,0-95.4-137-95.4-265.9s33.4-265.9,95.4-265.9c62,0,95.4,137,95.4,265.9
							S2079.2,3031.9,2017.2,3031.9z M2017.2,2517.4c-36.9,0-78.1,102.1-78.1,248.5c0,146.5,41.1,248.5,78.1,248.5
							s78-102.1,78-248.5C2095.3,2619.5,2054.1,2517.4,2017.2,2517.4z"/>
					</g>
				</g>
			</g>
			<g>
				<g>
					<g>
						<path class="st7" d="M2466.9,2782.2c0,174.4-76.4,315.7-170.8,315.7c-94.2,0-170.7-141.3-170.7-315.7
							c0-174.4,76.4-315.8,170.7-315.8C2390.4,2466.4,2466.9,2607.8,2466.9,2782.2z"/>
					</g>
					<g>
						<path class="st0" d="M2296.1,3107.9c-49.4,0-95.4-34.7-129.5-97.7c-33-61.1-51.2-142-51.2-228c0-86,18.2-167,51.2-228
							c34.1-63,80.1-97.7,129.5-97.7c49.5,0,95.5,34.7,129.5,97.7c33,61.1,51.2,142.1,51.2,228c0,86-18.2,166.9-51.2,228
							C2391.6,3073.2,2345.6,3107.9,2296.1,3107.9z M2296.1,2476.5c-88.6,0-160.7,137.2-160.7,305.7c0,168.6,72.1,305.7,160.7,305.7
							c88.6,0,160.8-137.1,160.8-305.7C2456.9,2613.6,2384.7,2476.5,2296.1,2476.5z"/>
					</g>
				</g>
				<g>
					<g>
						<path class="st7" d="M2296.1,3097.9h-409.5c-94.2,0-170.7-141.3-170.7-315.7c0-174.4,76.5-315.8,170.7-315.8h409.5
							c-94.2,0-170.7,141.4-170.7,315.8C2125.4,2956.6,2201.9,3097.9,2296.1,3097.9z"/>
					</g>
					<g>
						<g>
							<path class="st0" d="M1931.5,3105.4c-98.3,0-178.2-145-178.2-323.2c0-178.2,79.9-323.2,178.2-323.2c4.1,0,7.5,3.4,7.5,7.5
								c0,4.1-3.4,7.5-7.5,7.5c-90,0-163.2,138.3-163.2,308.2c0,169.9,73.2,308.2,163.2,308.2c4.1,0,7.5,3.4,7.5,7.5
								C1939,3102,1935.7,3105.4,1931.5,3105.4z"/>
						</g>
						<g>
							<path class="st0" d="M2027,3105.4c-98.3,0-178.2-145-178.2-323.2c0-178.2,79.9-323.2,178.2-323.2c4.1,0,7.5,3.4,7.5,7.5
								c0,4.1-3.4,7.5-7.5,7.5c-90,0-163.2,138.3-163.2,308.2c0,169.9,73.2,308.2,163.2,308.2c4.1,0,7.5,3.4,7.5,7.5
								C2034.5,3102,2031.1,3105.4,2027,3105.4z"/>
						</g>
						<g>
							<path class="st0" d="M2122.4,3105.4c-98.3,0-178.2-145-178.2-323.2c0-178.2,79.9-323.2,178.2-323.2c4.1,0,7.5,3.4,7.5,7.5
								c0,4.1-3.4,7.5-7.5,7.5c-90,0-163.2,138.3-163.2,308.2c0,169.9,73.2,308.2,163.2,308.2c4.1,0,7.5,3.4,7.5,7.5
								C2129.9,3102,2126.6,3105.4,2122.4,3105.4z"/>
						</g>
						<g>
							<path class="st0" d="M2217.9,3105.4c-98.3,0-178.2-145-178.2-323.2c0-178.2,79.9-323.2,178.2-323.2c4.1,0,7.5,3.4,7.5,7.5
								c0,4.1-3.4,7.5-7.5,7.5c-90,0-163.2,138.3-163.2,308.2c0,169.9,73.2,308.2,163.2,308.2c4.1,0,7.5,3.4,7.5,7.5
								C2225.4,3102,2222,3105.4,2217.9,3105.4z"/>
						</g>
					</g>
					<g>
						<path class="st0" d="M2296.1,3107.9h-409.6c-49.4,0-95.4-34.7-129.5-97.7c-33-61.1-51.2-142-51.2-228c0-86,18.2-167,51.2-228
							c34.1-63,80.1-97.7,129.5-97.7h409.6c5.5,0,10,4.5,10,10s-4.5,10-10,10c-88.6,0-160.7,137.2-160.7,305.7
							c0,168.6,72.1,305.7,160.7,305.7c5.5,0,10,4.5,10,10C2306.1,3103.4,2301.6,3107.9,2296.1,3107.9z M1886.5,2476.5
							c-88.6,0-160.7,137.2-160.7,305.7c0,168.6,72.1,305.7,160.7,305.7H2233c-24.8-16.4-47.4-42.7-66.4-77.7
							c-33-61.1-51.2-142-51.2-228c0-86,18.2-167,51.2-228c18.9-35,41.5-61.3,66.4-77.7H1886.5z"/>
					</g>
				</g>
				<g>
					<g>
						<ellipse class="st0" cx="2318.5" cy="2784.9" rx="114.7" ry="257.2"/>
					</g>
					<g>
						<polygon class="st8" points="2321.6,2676.4 2383.7,2572.1 2398.3,2600.3 2347,2690.4 						"/>
					</g>
					<g>
						<polygon class="st8" points="2261.9,2803.9 2222.9,2927 2240.3,2967.2 2284.1,2841.3 						"/>
					</g>
					<g>
						<polygon class="st8" points="2313.1,2901.3 2371.7,3012.7 2390.3,2984.8 2339.6,2887.3 2314.3,2888.8 						"/>
					</g>
					<g>
						<path class="st8" d="M2244,2589.3l20.6,136l19.5-21.2l-19.6-146.1C2264.4,2557.9,2248.3,2580.5,2244,2589.3z"/>
					</g>
					<g class="st2">
						<polygon class="st0" points="2321.6,2676.4 2383.7,2572.1 2398.3,2600.3 2347,2690.4 						"/>
					</g>
					<g class="st2">
						<polygon class="st0" points="2261.9,2803.9 2222.9,2927 2240.3,2967.2 2284.1,2841.3 						"/>
					</g>
					<g class="st2">
						<polygon class="st0" points="2313.1,2901.3 2371.7,3012.7 2390.3,2984.8 2339.6,2887.3 2314.3,2888.8 						"/>
					</g>
					<g class="st2">
						<path class="st0" d="M2244,2589.3l20.6,136l19.5-21.2l-19.6-146.1C2264.4,2557.9,2248.3,2580.5,2244,2589.3z"/>
					</g>
					<g>
						<path class="st8" d="M2264.4,2557.9l19.6,146.1l-23.5,25.5l-53.6-4.2l-3,50.3l58,28.1l15.1,38.8l-37.8,128.2
							c0,0,9.5,28.4,32.3,48.8l44.7-127.2l23.6-2.5l50,96.3c0,0,19.2-36.3,26.4-66.9l-49.7-89.1l3.6-56.4l52.2-97.9
							c0,0-11.9-45.1-24-75.6l-51.3,90.1l-16.6-3.6l-17.2-158.9C2313.1,2527.9,2287.9,2527.6,2264.4,2557.9z"/>
					</g>
					<g class="st2">
						<polygon class="st0" points="2313.4,2799.2 2290.8,2534.8 2313.1,2533.3 2330.3,2686.8 						"/>
					</g>
					<g class="st9">
						<polygon class="st0" points="2313.4,2799.2 2267.9,2819.3 2282.8,2857.5 						"/>
					</g>
					<g class="st2">
						<polygon class="st0" points="2313.4,2799.2 2209.8,2755.5 2209.8,2729.6 2264,2734.4 						"/>
					</g>
					<g class="st2">
						<polygon class="st0" points="2313.4,2799.2 2316.2,2892.4 2271.6,3019.6 2256.5,3002.9 2307.1,2829.9 						"/>
					</g>
					<g class="st2">
						<polygon class="st0" points="2313.4,2799.2 2404.6,2945.1 2411.7,2919.1 2366.8,2827 						"/>
					</g>
					<g class="st2">
						<polygon class="st0" points="2412.5,2641.6 2313.4,2799.2 2370.2,2773.8 2422.4,2672 						"/>
					</g>
					<g class="st9">
						<polygon class="st0" points="2313.4,2799.2 2348.8,2887.3 2316.2,2892.4 						"/>
					</g>
					<g>
						<path class="st0" d="M2271.6,3029.6c-2.4,0-4.8-0.9-6.7-2.5c-24.6-21.9-34.7-51.9-35.1-53.1c-0.6-1.9-0.7-4-0.1-6l36.8-124.9
							l-12.5-31.9l-54.5-26.4c-3.6-1.8-5.9-5.6-5.6-9.6l3-50.3c0.2-2.7,1.4-5.2,3.4-6.9c2-1.8,4.7-2.6,7.3-2.4l48.8,3.8l17-18.5
							l-19-141.5c-0.4-2.7,0.4-5.3,2-7.5c26.2-33.8,55.3-33.8,56.7-33.9c5.1,0.1,9.3,3.9,9.8,8.9l16.5,151.7l2.4,0.5l47.7-83.7
							c1.9-3.3,5.5-5.3,9.4-5c3.8,0.3,7.2,2.7,8.6,6.3c12.2,30.7,23.9,74.9,24.4,76.7c0.6,2.4,0.3,5-0.8,7.3l-51.2,95.9l-3.3,51.3
							l48.2,86.6c1.2,2.2,1.6,4.7,1,7.1c-7.4,31.5-26.5,67.8-27.3,69.3c-1.7,3.3-5.1,5.3-8.8,5.3c0,0,0,0,0,0
							c-3.7,0-7.1-2.1-8.8-5.4l-46.8-90.2l-10.5,1.1l-42.6,121.3c-1.1,3.1-3.7,5.5-6.9,6.4
							C2273.2,3029.5,2272.4,3029.6,2271.6,3029.6z M2249.8,2970.4c2.2,5.5,7.9,18.2,17.8,30.4l39.2-111.8c1.3-3.6,4.5-6.2,8.4-6.6
							l23.6-2.5c4.1-0.4,8,1.7,9.9,5.3l40.8,78.6c5.4-11.9,12.1-28.1,16-43.2l-47.7-85.7c-0.9-1.7-1.4-3.6-1.2-5.5l3.6-56.4
							c0.1-1.4,0.5-2.8,1.2-4.1l50.3-94.4c-2.3-8.5-8.4-30.1-15.4-50.7l-40.6,71.3c-2.2,3.8-6.5,5.7-10.8,4.8l-16.6-3.6
							c-4.2-0.9-7.4-4.4-7.8-8.7l-16.1-148.2c-7.3,2.4-18.3,8-29.4,21.2l19,141.9c0.4,2.9-0.5,5.9-2.6,8.1l-23.5,25.5
							c-2.1,2.3-5.1,3.4-8.1,3.2l-43.5-3.4l-2,33.5l52,25.2c2.3,1.1,4,3,5,5.4l15.2,38.8c0.8,2.1,0.9,4.3,0.3,6.5L2249.8,2970.4z"/>
					</g>
					<g>
						<path class="st0" d="M2318.5,3052.1c-69.9,0-124.7-117.4-124.7-267.2c0-149.8,54.8-267.2,124.7-267.2s124.7,117.4,124.7,267.2
							C2443.1,2934.7,2388.4,3052.1,2318.5,3052.1z M2318.5,2537.6c-56.7,0-104.7,113.2-104.7,247.2c0,134,47.9,247.2,104.7,247.2
							s104.7-113.2,104.7-247.2C2423.1,2650.8,2375.2,2537.6,2318.5,2537.6z"/>
					</g>
				</g>
			</g>
			<g>
				<g>
					<g>
						<path class="st7" d="M3591.6,2729.6c0,174.3-76.4,315.7-170.8,315.7c-94.2,0-170.7-141.3-170.7-315.7
							c0-174.4,76.4-315.8,170.7-315.8C3515.1,2413.9,3591.6,2555.2,3591.6,2729.6z"/>
					</g>
					<g>
						<path class="st0" d="M3420.8,3055.3c-49.4,0-95.4-34.7-129.5-97.7c-33-61.1-51.2-142-51.2-228c0-86,18.2-167,51.2-228
							c34.1-63,80.1-97.7,129.5-97.7c49.5,0,95.5,34.7,129.5,97.7c33,61.1,51.2,142.1,51.2,228c0,86-18.2,166.9-51.2,228
							C3516.3,3020.6,3470.3,3055.3,3420.8,3055.3z M3420.8,2423.9c-88.6,0-160.7,137.2-160.7,305.7c0,168.6,72.1,305.7,160.7,305.7
							c88.6,0,160.7-137.1,160.7-305.7C3581.6,2561,3509.5,2423.9,3420.8,2423.9z"/>
					</g>
				</g>
				<g>
					<g>
						<path class="st7" d="M3420.8,3045.3h-409.5c-94.2,0-170.7-141.3-170.7-315.7c0-174.4,76.5-315.8,170.7-315.8h409.5
							c-94.2,0-170.7,141.3-170.7,315.8C3250.1,2904,3326.6,3045.3,3420.8,3045.3z"/>
					</g>
					<g>
						<g>
							<path class="st0" d="M3056.3,3052.8c-98.3,0-178.2-145-178.2-323.2c0-178.2,79.9-323.2,178.2-323.2c4.1,0,7.5,3.4,7.5,7.5
								s-3.4,7.5-7.5,7.5c-90,0-163.2,138.3-163.2,308.2c0,169.9,73.2,308.2,163.2,308.2c4.1,0,7.5,3.4,7.5,7.5
								S3060.4,3052.8,3056.3,3052.8z"/>
						</g>
						<g>
							<path class="st0" d="M3151.7,3052.8c-98.3,0-178.2-145-178.2-323.2c0-178.2,79.9-323.2,178.2-323.2c4.1,0,7.5,3.4,7.5,7.5
								s-3.4,7.5-7.5,7.5c-90,0-163.2,138.3-163.2,308.2c0,169.9,73.2,308.2,163.2,308.2c4.1,0,7.5,3.4,7.5,7.5
								S3155.9,3052.8,3151.7,3052.8z"/>
						</g>
						<g>
							<path class="st0" d="M3247.2,3052.8c-98.3,0-178.2-145-178.2-323.2c0-178.2,79.9-323.2,178.2-323.2c4.1,0,7.5,3.4,7.5,7.5
								s-3.4,7.5-7.5,7.5c-90,0-163.2,138.3-163.2,308.2c0,169.9,73.2,308.2,163.2,308.2c4.1,0,7.5,3.4,7.5,7.5
								S3251.3,3052.8,3247.2,3052.8z"/>
						</g>
						<g>
							<path class="st0" d="M3342.6,3052.8c-98.3,0-178.2-145-178.2-323.2c0-178.2,79.9-323.2,178.2-323.2c4.1,0,7.5,3.4,7.5,7.5
								s-3.4,7.5-7.5,7.5c-90,0-163.2,138.3-163.2,308.2c0,169.9,73.2,308.2,163.2,308.2c4.1,0,7.5,3.4,7.5,7.5
								S3346.8,3052.8,3342.6,3052.8z"/>
						</g>
					</g>
					<g>
						<path class="st0" d="M3420.8,3055.3h-409.6c-49.4,0-95.4-34.7-129.5-97.7c-33-61.1-51.2-142-51.2-228c0-86,18.2-167,51.2-228
							c34.1-63,80.1-97.7,129.5-97.7h409.6c5.5,0,10,4.5,10,10c0,5.5-4.5,10-10,10c-88.6,0-160.7,137.2-160.7,305.7
							c0,168.6,72.1,305.7,160.7,305.7c5.5,0,10,4.5,10,10C3430.8,3050.8,3426.4,3055.3,3420.8,3055.3z M3011.3,2423.9
							c-88.6,0-160.7,137.2-160.7,305.7c0,168.6,72.1,305.7,160.7,305.7h346.4c-24.8-16.4-47.4-42.7-66.4-77.7
							c-33-61.1-51.2-142-51.2-228c0-86,18.2-167,51.2-228c18.9-35,41.5-61.3,66.4-77.7H3011.3z"/>
					</g>
				</g>
				<g>
					<g>
						<ellipse class="st0" cx="3443.2" cy="2732.3" rx="114.7" ry="257.2"/>
					</g>
					<g>
						<polygon class="st8" points="3446.3,2623.9 3508.4,2519.5 3523.1,2547.7 3471.7,2637.8 						"/>
					</g>
					<g>
						<polygon class="st8" points="3386.6,2751.3 3347.6,2874.4 3365,2914.6 3408.8,2788.7 						"/>
					</g>
					<g>
						<polygon class="st8" points="3437.9,2848.7 3496.5,2960.1 3515.1,2932.2 3464.3,2834.7 3439,2836.2 						"/>
					</g>
					<g>
						<path class="st8" d="M3368.7,2536.7l20.6,136l19.5-21.2l-19.6-146.1C3389.2,2505.3,3373.1,2527.9,3368.7,2536.7z"/>
					</g>
					<g class="st2">
						<polygon class="st0" points="3446.3,2623.9 3508.4,2519.5 3523.1,2547.7 3471.7,2637.8 						"/>
					</g>
					<g class="st2">
						<polygon class="st0" points="3386.6,2751.3 3347.6,2874.4 3365,2914.6 3408.8,2788.7 						"/>
					</g>
					<g class="st2">
						<polygon class="st0" points="3437.9,2848.7 3496.5,2960.1 3515.1,2932.2 3464.3,2834.7 3439,2836.2 						"/>
					</g>
					<g class="st2">
						<path class="st0" d="M3368.7,2536.7l20.6,136l19.5-21.2l-19.6-146.1C3389.2,2505.3,3373.1,2527.9,3368.7,2536.7z"/>
					</g>
					<g>
						<path class="st8" d="M3389.2,2505.3l19.6,146.1l-23.5,25.5l-53.6-4.2l-3,50.3l58,28.1l15.1,38.8l-37.8,128.2
							c0,0,9.5,28.4,32.3,48.8l44.7-127.2l23.6-2.5l50,96.3c0,0,19.2-36.3,26.4-66.9l-49.7-89.1l3.6-56.4l52.2-97.9
							c0,0-11.9-45.1-24-75.6l-51.3,90.1l-16.6-3.6l-17.2-158.9C3437.9,2475.3,3412.7,2475,3389.2,2505.3z"/>
					</g>
					<g class="st2">
						<polygon class="st0" points="3438.1,2746.6 3415.6,2482.2 3437.9,2480.7 3455.1,2634.3 						"/>
					</g>
					<g class="st9">
						<polygon class="st0" points="3438.1,2746.6 3392.7,2766.7 3407.6,2804.9 						"/>
					</g>
					<g class="st2">
						<polygon class="st0" points="3438.1,2746.6 3334.5,2702.9 3334.5,2677 3388.8,2681.8 						"/>
					</g>
					<g class="st2">
						<polygon class="st0" points="3438.1,2746.6 3441,2839.8 3396.3,2967 3381.2,2950.3 3431.8,2777.3 						"/>
					</g>
					<g class="st2">
						<polygon class="st0" points="3438.1,2746.6 3529.3,2892.5 3536.5,2866.5 3491.5,2774.5 						"/>
					</g>
					<g class="st2">
						<polygon class="st0" points="3537.2,2589 3438.1,2746.6 3494.9,2721.2 3547.1,2619.4 						"/>
					</g>
					<g class="st9">
						<polygon class="st0" points="3438.1,2746.6 3473.5,2834.7 3441,2839.8 						"/>
					</g>
					<g>
						<path class="st0" d="M3396.3,2977c-2.4,0-4.8-0.9-6.7-2.5c-24.6-21.9-34.7-51.9-35.1-53.1c-0.6-1.9-0.7-4-0.1-6l36.8-124.9
							l-12.5-31.9l-54.5-26.4c-3.6-1.8-5.9-5.6-5.6-9.6l3-50.3c0.2-2.7,1.4-5.2,3.4-6.9c2-1.8,4.7-2.6,7.3-2.4l48.8,3.8l17.1-18.5
							l-19-141.5c-0.4-2.7,0.4-5.3,2-7.5c26.2-33.8,55.3-33.9,56.7-33.9c5.1,0.1,9.3,3.9,9.8,8.9l16.5,151.7l2.4,0.5l47.7-83.7
							c1.9-3.3,5.5-5.3,9.4-5c3.8,0.3,7.2,2.7,8.6,6.3c12.2,30.7,23.9,74.9,24.4,76.7c0.6,2.4,0.3,5-0.8,7.3l-51.2,95.9l-3.3,51.3
							l48.2,86.6c1.2,2.2,1.6,4.7,1,7.1c-7.4,31.5-26.5,67.8-27.3,69.3c-1.7,3.3-5.1,5.3-8.8,5.3c0,0,0,0,0,0
							c-3.7,0-7.1-2.1-8.8-5.4l-46.8-90.2l-10.5,1.1l-42.6,121.3c-1.1,3.1-3.7,5.5-6.9,6.4C3398,2976.9,3397.1,2977,3396.3,2977z
							 M3374.5,2917.8c2.2,5.5,7.9,18.2,17.8,30.4l39.2-111.8c1.3-3.6,4.5-6.2,8.4-6.6l23.6-2.5c4.1-0.4,8.1,1.7,10,5.3l40.8,78.6
							c5.4-11.9,12.1-28.1,16-43.2l-47.7-85.7c-0.9-1.7-1.4-3.6-1.2-5.5l3.6-56.4c0.1-1.4,0.5-2.8,1.2-4.1l50.3-94.4
							c-2.3-8.5-8.4-30.1-15.3-50.7l-40.7,71.3c-2.2,3.8-6.5,5.7-10.8,4.8l-16.6-3.6c-4.2-0.9-7.4-4.4-7.8-8.7l-16.1-148.2
							c-7.3,2.4-18.3,8-29.4,21.2l19,141.9c0.4,2.9-0.5,5.9-2.6,8.1l-23.5,25.5c-2.1,2.3-5.1,3.4-8.1,3.2l-43.5-3.4l-2,33.5l52,25.2
							c2.3,1.1,4,3,5,5.4l15.1,38.8c0.8,2.1,0.9,4.3,0.3,6.5L3374.5,2917.8z"/>
					</g>
					<g>
						<path class="st0" d="M3443.2,2999.5c-69.9,0-124.7-117.4-124.7-267.2s54.8-267.2,124.7-267.2s124.7,117.4,124.7,267.2
							S3513.1,2999.5,3443.2,2999.5z M3443.2,2485c-56.7,0-104.7,113.2-104.7,247.2c0,134,47.9,247.2,104.7,247.2
							s104.7-113.2,104.7-247.2C3547.9,2598.3,3499.9,2485,3443.2,2485z"/>
					</g>
				</g>
			</g>
			<g>
				<g>
					<g>
						<path class="st7" d="M992,2782.2c0,174.4-57.8,315.7-129.2,315.7c-71.3,0-129.2-141.3-129.2-315.7
							c0-174.4,57.8-315.8,129.2-315.8C934.1,2466.4,992,2607.8,992,2782.2z"/>
					</g>
					<g>
						<path class="st0" d="M862.8,3106.6c-77.3,0-137.9-142.5-137.9-324.4c0-181.9,60.6-324.4,137.9-324.4
							c77.3,0,137.9,142.5,137.9,324.4C1000.7,2964.1,940.1,3106.6,862.8,3106.6z M862.8,2475.1c-65.3,0-120.5,140.6-120.5,307.1
							c0,166.4,55.2,307,120.5,307c65.3,0,120.5-140.6,120.5-307C983.3,2615.8,928.1,2475.1,862.8,2475.1z"/>
					</g>
				</g>
				<g>
					<g>
						<path class="st7" d="M862.8,3097.9H552.9c-71.3,0-129.2-141.3-129.2-315.7c0-174.4,57.8-315.8,129.2-315.8h309.9
							c-71.3,0-129.2,141.4-129.2,315.8C733.6,2956.6,791.5,3097.9,862.8,3097.9z"/>
					</g>
					<g>
						<g>
							<path class="st0" d="M587,3104.4c-76.1,0-135.7-141.5-135.7-322.2c0-180.7,59.6-322.3,135.7-322.3c3.6,0,6.5,2.9,6.5,6.5
								s-2.9,6.5-6.5,6.5c-66.5,0-122.6,141.6-122.6,309.2c0,167.6,56.2,309.2,122.6,309.2c3.6,0,6.5,2.9,6.5,6.5
								S590.6,3104.4,587,3104.4z"/>
						</g>
						<g>
							<path class="st0" d="M659.2,3104.4c-76.1,0-135.7-141.5-135.7-322.2c0-180.7,59.6-322.3,135.7-322.3c3.6,0,6.5,2.9,6.5,6.5
								s-2.9,6.5-6.5,6.5c-66.5,0-122.6,141.6-122.6,309.2c0,167.6,56.2,309.2,122.6,309.2c3.6,0,6.5,2.9,6.5,6.5
								S662.8,3104.4,659.2,3104.4z"/>
						</g>
						<g>
							<path class="st0" d="M731.4,3104.4c-76.1,0-135.7-141.5-135.7-322.2c0-180.7,59.6-322.3,135.7-322.3c3.6,0,6.5,2.9,6.5,6.5
								s-2.9,6.5-6.5,6.5c-66.5,0-122.6,141.6-122.6,309.2c0,167.6,56.2,309.2,122.6,309.2c3.6,0,6.5,2.9,6.5,6.5
								S735,3104.4,731.4,3104.4z"/>
						</g>
						<g>
							<path class="st0" d="M803.6,3104.4c-76.1,0-135.7-141.5-135.7-322.2c0-180.7,59.6-322.3,135.7-322.3c3.6,0,6.5,2.9,6.5,6.5
								s-2.9,6.5-6.5,6.5c-66.5,0-122.6,141.6-122.6,309.2c0,167.6,56.2,309.2,122.6,309.2c3.6,0,6.5,2.9,6.5,6.5
								S807.2,3104.4,803.6,3104.4z"/>
						</g>
					</g>
					<g>
						<path class="st0" d="M862.8,3106.6H552.9c-77.3,0-137.9-142.5-137.9-324.4c0-181.9,60.6-324.4,137.9-324.4h309.9
							c4.8,0,8.7,3.9,8.7,8.7s-3.9,8.7-8.7,8.7c-65.3,0-120.5,140.6-120.5,307.1c0,166.4,55.2,307,120.5,307c4.8,0,8.7,3.9,8.7,8.7
							S867.6,3106.6,862.8,3106.6z M552.9,2475.1c-65.3,0-120.5,140.6-120.5,307.1c0,166.4,55.2,307,120.5,307h264.4
							c-54.3-43.3-92.4-162.7-92.4-307c0-144.3,38.1-263.8,92.4-307.1H552.9z"/>
					</g>
				</g>
				<g>
					<g>
						<ellipse class="st0" cx="879.7" cy="2784.9" rx="86.7" ry="257.2"/>
					</g>
					<g>
						<polygon class="st8" points="882.1,2676.4 929,2572.1 940.1,2600.3 901.3,2690.4 						"/>
					</g>
					<g>
						<polygon class="st8" points="836.9,2803.9 807.4,2927 820.6,2967.2 853.7,2841.3 						"/>
					</g>
					<g>
						<polygon class="st8" points="875.6,2901.3 920,3012.7 934.1,2984.8 895.7,2887.3 876.5,2888.8 						"/>
					</g>
					<g>
						<path class="st8" d="M823.3,2589.3l15.5,136l14.8-21.2l-14.8-146.1C838.8,2557.9,826.6,2580.5,823.3,2589.3z"/>
					</g>
					<g class="st2">
						<polygon class="st0" points="882.1,2676.4 929,2572.1 940.1,2600.3 901.3,2690.4 						"/>
					</g>
					<g class="st2">
						<polygon class="st0" points="836.9,2803.9 807.4,2927 820.6,2967.2 853.7,2841.3 						"/>
					</g>
					<g class="st2">
						<polygon class="st0" points="875.6,2901.3 920,3012.7 934.1,2984.8 895.7,2887.3 876.5,2888.8 						"/>
					</g>
					<g class="st2">
						<path class="st0" d="M823.3,2589.3l15.5,136l14.8-21.2l-14.8-146.1C838.8,2557.9,826.6,2580.5,823.3,2589.3z"/>
					</g>
					<g>
						<path class="st8" d="M838.8,2557.9l14.8,146.1l-17.8,25.5l-40.6-4.2l-2.3,50.3l43.9,28.1l11.5,38.8l-28.6,128.2
							c0,0,7.2,28.4,24.4,48.8l33.8-127.2l17.9-2.5l37.8,96.3c0,0,14.5-36.3,20-66.9l-37.6-89.1l2.7-56.4l39.5-97.9
							c0,0-9-45.1-18.2-75.6l-38.8,90.1l-12.6-3.6l-13-158.9C875.6,2527.9,856.6,2527.6,838.8,2557.9z"/>
					</g>
					<g class="st2">
						<polygon class="st0" points="875.9,2799.2 858.8,2534.8 875.6,2533.3 888.7,2686.8 						"/>
					</g>
					<g class="st9">
						<polygon class="st0" points="875.9,2799.2 841.4,2819.3 852.7,2857.5 						"/>
					</g>
					<g class="st2">
						<polygon class="st0" points="875.9,2799.2 797.4,2755.5 797.4,2729.6 838.5,2734.4 						"/>
					</g>
					<g class="st2">
						<polygon class="st0" points="875.9,2799.2 878,2892.4 844.2,3019.6 832.8,3002.9 871.1,2829.9 						"/>
					</g>
					<g class="st2">
						<polygon class="st0" points="875.9,2799.2 944.9,2945.1 950.3,2919.1 916.3,2827 						"/>
					</g>
					<g class="st2">
						<polygon class="st0" points="950.8,2641.6 875.9,2799.2 918.8,2773.8 958.3,2672 						"/>
					</g>
					<g class="st9">
						<polygon class="st0" points="875.9,2799.2 902.6,2887.3 878,2892.4 						"/>
					</g>
					<g>
						<path class="st0" d="M844.2,3028.3c-2.5,0-5-1.1-6.6-3.1c-18.4-21.7-25.9-51.1-26.2-52.3c-0.3-1.3-0.4-2.7-0.1-4l28.1-126
							l-9.9-33.5l-41.1-26.3c-2.6-1.7-4.1-4.6-4-7.7l2.3-50.3c0.1-2.4,1.2-4.6,3-6.2s4.2-2.3,6.6-2.1l35.5,3.6l13-18.7l-14.5-142.9
							c-0.2-1.8,0.2-3.7,1.2-5.3c19.8-33.7,42-34.3,44.5-34.3c4.5,0.1,8.2,3.5,8.5,8l12.4,151.7l35.4-82c1.5-3.4,5-5.5,8.5-5.2
							c3.6,0.2,6.8,2.7,7.8,6.2c9.2,30.6,18,74.6,18.4,76.4c0.3,1.7,0.2,3.4-0.5,5l-38.9,96.5l-2.5,52.9l36.8,87.3
							c0.6,1.5,0.8,3.2,0.5,4.9c-5.5,31.1-19.8,67.1-20.5,68.6c-1.3,3.3-4.5,5.5-8.1,5.5c0,0,0,0,0,0c-3.6,0-6.8-2.2-8.1-5.5
							l-35.3-89.9l-5.4,0.8l-32.3,121.7c-0.8,3.1-3.3,5.5-6.5,6.3C845.5,3028.2,844.8,3028.3,844.2,3028.3z M828.7,2970.6
							c1.3,4.5,5.2,16.4,11.9,28.5l28.9-108.9c0.9-3.4,3.7-5.9,7.2-6.4l17.9-2.5c4-0.6,7.8,1.7,9.3,5.4l29.4,74.8
							c4-11.9,8.6-27.1,11.3-41.3l-36.6-86.7c-0.5-1.2-0.7-2.5-0.7-3.8l2.7-56.4c0-1,0.3-1.9,0.6-2.8l38.5-95.4
							c-1.5-7.1-5.8-27.9-11-48.5l-29,67.3c-1.7,4-6.2,6.1-10.4,4.9l-12.6-3.6c-3.5-1-6-4-6.3-7.7l-12.2-148.3
							c-5.2,2.8-12.6,8.7-20.1,20.7l14.6,143.2c0.2,2.1-0.3,4.1-1.5,5.9l-17.8,25.5c-1.8,2.6-4.9,4-8,3.7l-31.4-3.2l-1.6,36.1
							l39.7,25.4c1.8,1.1,3.1,2.9,3.7,4.9l11.5,38.8c0.4,1.4,0.5,2.9,0.2,4.4L828.7,2970.6z"/>
					</g>
					<g>
						<path class="st0" d="M879.7,3050.8c-62,0-95.4-137-95.4-265.9c0-128.9,33.4-265.9,95.4-265.9s95.4,137,95.4,265.9
							C975.1,2913.8,941.7,3050.8,879.7,3050.8z M879.7,2536.3c-36.9,0-78.1,102.1-78.1,248.5c0,146.5,41.1,248.5,78.1,248.5
							c36.9,0,78.1-102.1,78.1-248.5C957.7,2638.4,916.6,2536.3,879.7,2536.3z"/>
					</g>
				</g>
			</g>
			<g>
				<g>
					<path class="st10" d="M3658.6,2502.6c0,0,6.2-71.2-3.5-129.2c-9.6-56.6-41.3-102.1-42.7-104.2c-0.1-0.1-0.1-0.1-0.1-0.1
						l5.3-59.7c-11.5-16.4-29.6-39.4-45.8-59.4c-18.9-23.5-35.3-43-35.3-43s-9.8-65.9-24.1-74c-14.2-8-42.8-16.9-198.7,3.6
						c-155.9,20.5-298.5,23.3-298.5,23.3s-0.1,0-0.1-0.1c-0.1,0-0.1-0.1-0.1-0.1c-7.6-4.6-250.6-152.8-445.4-182.6
						c-197.8-30.3-472.2-46.4-787.7-21.4c-315.4,25-424.2,58.8-424.2,58.8c-217.1,118.6-434.1,332.6-460.6,359.1
						c-1.8,1.8-2.7,2.7-2.7,2.7c-172.9,1.8-188.9-39.2-342.2,46.3c-153.3,85.6-174.1,241.2-174.1,241.2l-25,9.5l-18.5,54.4l-0.5,1.5
						l10.1,20.8l23.8,194.2l-6.2,40.1c0,0-15.5,7.4-14.9,19.9c0.6,12.5,15.2,18.7,15.2,18.7l15.8,56l-18.3,23.9h1805.4
						c-0.3-8-0.6-16-0.7-23.9c-10.8-421.6,110-669.6,233-526.2c140.3,163.6,65.3,518,65.3,518c14.2-1.2,28.9-2.5,43.9-3.8
						c313.4-26.3,759.9-55.3,759.9-55.3l36.2-59.7c-16.6-144.9,17.8-402.8,90.3-471.7c66.5-63.2,144.9-20.2,180.6,137.8
						c35.7,158,9.2,303.6,9.2,303.6s36.6,2.7,58.8-79.3c22.2-82,35.6-216.6,35.6-216.6L3658.6,2502.6z M2316.7,2262.1l-3.5,0.1
						L939,2281.7c246-234.3,421.5-325.2,421.5-325.2c429.5-46.4,1041.7-15.1,1041.7-15.1C2379.1,2016.1,2316.7,2262.1,2316.7,2262.1
						z M2414.7,2251.4c0,0,32.6-166.3,77.6-311c0,0,115.6-4.5,220.6,24.1c17.7,4.9,34.3,13.1,48.9,24.4l8.8,6.8
						c33.1,25.9,53.6,65.5,53.1,107.5c-0.1,4-0.3,8-0.8,11.8c-2.4,21.7-14.5,40.2-28.3,54.7c-20.8,22-49,35.6-79,39.8L2414.7,2251.4
						z"/>
				</g>
				<g class="st2">
					<path class="st1" d="M1180.4,2570.4c0,0,80.9-166.3,191.4-255.4l-77.4,179L1180.4,2570.4z"/>
				</g>
				<g class="st2">
					<path class="st1" d="M2965.4,2223.8l49.9-163.9c0,0-172.3-70.2-294.1-92.8l102.3,164.6l67,76L2965.4,2223.8z"/>
				</g>
				<g class="st2">
					<path class="st1" d="M1165.6,2315c0,0-182.3,117.7-242.6,261.3l5.7-115.6C928.7,2460.8,1037.1,2354.5,1165.6,2315z"/>
				</g>
				<g class="st4">
					<path class="st1" d="M3015.1,2059.8c-322.4-161.1-586.2-188-955.1-184.4c-368.9,3.5-694.2,61.5-694.2,61.5
						c-172.9,81-466.5,348.4-466.5,348.4s-0.8-4.2-2.2-11.6c26.5-26.5,243.6-240.5,460.6-359.1c0,0,108.8-33.8,424.2-58.8
						c315.5-24.9,589.9-8.9,787.7,21.4C2764.5,1907,3007.6,2055.1,3015.1,2059.8z"/>
				</g>
				<g class="st2">
					<polygon class="st0" points="617.7,2672 555.3,2873.4 579.1,2868.6 639.9,2672 					"/>
				</g>
				<g class="st2">
					<path class="st0" d="M2165.2,3002.9H359.8l18.3-23.9h1786.4C2164.6,2986.9,2164.9,2994.8,2165.2,3002.9z"/>
				</g>
				<g class="st2">
					<path class="st1" d="M2965.4,2223.8c0,0,194.2-102.1,418.8-95.2c0,0,64.8,6.9,68.3,156.6c0,0,79-13.1,132.2,108.1l27.6-124.1
						l-44-32l3.6-87.1l-35.3-43c0,0,0.3-17.8-71-21.4s-181.8,0-181.8,0S3071.2,2154.1,2965.4,2223.8z"/>
				</g>
				<g class="st2">
					<polyline class="st0" points="666.1,2904.4 555.3,2915.5 351.8,2900.1 357.2,2920.1 587.7,2947.4 667.6,2904.9 					"/>
				</g>
				<g class="st2">
					<path class="st0" d="M1410.4,2911.7l222.8,15.1l68.6-21.4l-169.3-178.2l-55-66.1l69.2-9.9l39.2,61.8l-41.9,10.7l12,14.3
						l54.8,10.3l126.5,119.8c0,0,15.7,46.9,68.2,49.9c46.4,2.6,158,7.6,182.9,8.7c3.3,0.1,6.6-0.4,9.7-1.6l138-54.3
						c0,0-4,54.1,0,96.5H1619l-33-3.7L1410.4,2911.7z"/>
				</g>
				<g>
					<path class="st1" d="M3617.7,2209.5l-5.3,59.7l-44-32l-11.2-42.2l14.8-44.9C3588.1,2170.1,3606.2,2193.1,3617.7,2209.5z"/>
				</g>
				<g class="st2">
					<path class="st1" d="M2965.4,2223.8c0,0,213.8,5.6,375.4,61.4l-225.1,44.6C3115.7,2329.8,3004.6,2289.5,2965.4,2223.8z"/>
				</g>
				<g>
					<g>
						<path class="st1" d="M677.5,2545l-215-51l-21.6-5.2c-23.6-19.1-16.1-44.4-16.1-44.4c43.9-75.8,114.6-114.4,116.8-115.6l0,0
							c0,0,110.8,113.3,126.9,139.5C684.7,2494.6,677.5,2545,677.5,2545z"/>
					</g>
					<g>
						<path class="st11" d="M541.7,2328.8c-61,65-79.2,165.2-79.2,165.2l-21.6-5.2c-23.6-19.1-16.1-44.4-16.1-44.4
							C468.8,2368.6,539.5,2330,541.7,2328.8z"/>
					</g>
					<g class="st2">
						<path class="st0" d="M668.6,2468.3c-16-26.2-126.9-139.5-126.9-139.5l0,0c-1.9,1-56.2,30.7-99.2,88.7
							c37.7-41,76.2-62,77.8-62.9l0,0c0,0,110.8,113.3,126.8,139.6c7.7,12.6,10,30.7,10.4,46.1l19.9,4.7
							C677.5,2545,684.7,2494.6,668.6,2468.3z"/>
					</g>
					<g>
						<path class="st0" d="M462.6,2504c-0.6,0-1.2,0-1.8-0.2c-5.4-1-9-6.2-8.1-11.6c0.8-4.2,19.4-103.9,81.7-170.2
							c3.8-4,10.1-4.2,14.1-0.4c4,3.8,4.2,10.1,0.4,14.1c-58.4,62.1-76.5,159.1-76.6,160.1C471.5,2500.6,467.3,2504,462.6,2504z"/>
					</g>
					<g>
						<path class="st0" d="M677.5,2555c-0.8,0-1.5-0.1-2.3-0.3l-236.6-56.1c-1.5-0.3-2.8-1-4-2c-28.5-23.1-19.7-53.8-19.3-55.1
							c0.2-0.7,0.5-1.5,0.9-2.1C461.7,2360.9,534,2321.6,537,2320c3.9-2.1,8.8-1.3,11.9,1.8c4.6,4.7,111.8,114.4,128.2,141.3
							c17.7,29,10.6,81,10.3,83.2c-0.4,2.8-1.9,5.3-4.3,6.9C681.5,2554.4,679.5,2555,677.5,2555z M445.6,2479.7l223.1,52.9
							c1.1-17,0.6-44-8.6-59.1c-12-19.6-86.1-97.3-120-132.2c-18.2,11.2-70.9,47.2-105.8,106.8
							C433.5,2452.1,431.6,2467.1,445.6,2479.7z"/>
					</g>
				</g>
				<g class="st2">
					<path class="st0" d="M3302.8,2852l-36.2,59.7c0,0-446.5,29-759.9,55.3c128.5-34.3,475.7-83.8,475.7-83.8l-175.6-15.6l190.9-7.8
						L3302.8,2852z"/>
				</g>
				<g class="st4">
					<path class="st1" d="M2328.9,2266.8c0,0-14.1,30.9-312,27.4c-297.9-3.5-1007.5,13.4-1104.6,8.9c-97.2-4.4-216.5-8.9-216.5-8.9
						c-254.7,54.2-298.1,284.2-298.1,284.2l-28,8.5l-31.2,42.3l-3.6-1.5l18.5-54.4l25-9.5c0,0,20.8-155.6,174.1-241.2
						c153.3-85.5,169.3-44.5,342.2-46.3l44.5,5.3l1374.2-19.5C2323,2265,2328.9,2266.8,2328.9,2266.8z"/>
				</g>
				<g>
					<path class="st7" d="M2794.5,2169.8c-56.3-157.9-109.4-212-109.4-212s106.2,19.4,129,95.9
						C2837.1,2130.2,2794.5,2169.8,2794.5,2169.8z"/>
				</g>
				<g>
					<path class="st0" d="M2794.6,2179.8c-4.1,0-8-2.6-9.4-6.6c-54.7-153.2-106.6-207.9-107.1-208.4c-3.8-4-3.8-10.3,0.2-14.1
						c4-3.8,10.3-3.8,14.1,0.2c2.2,2.3,55.3,57.6,111.7,215.7c1.9,5.2-0.9,10.9-6.1,12.8C2796.8,2179.6,2795.7,2179.8,2794.6,2179.8
						z"/>
				</g>
				<g class="st9">
					<path class="st0" d="M2982.3,2347.6l-183.3-65.9c0,0,50.8,43.2,88.1,80.7h0l-472.5,105.1c0,0,84.2,149.5,67.9,317.4l61.3-2.7
						l421.5-165.6l0,0c5.3,4.8,11.6,8.7,18.6,11.2c25.1,9.1,65.9,20.2,121.3,23.4l26.5-66.4L2982.3,2347.6z"/>
				</g>
				<g class="st2">
					<polygon class="st1" points="2499.4,2449.2 2429,2462.6 2516.3,2293.3 2787,2262.1 2799.1,2281.7 2931.8,2349.8 					"/>
				</g>
				<g>
					<g>
						<path class="st7" d="M2799.1,2281.7l199,102.2l61.2,155.6l60,67.1l-14.9,36.8c0,0,26.7-0.6,42.8-11.9s68.9-104,68.9-104
							s-52.9-130.7-100.4-197.8c0,0-87.9-38-244.2-57.6C2871.5,2272.2,2827.6,2267.5,2799.1,2281.7z"/>
					</g>
					<g>
						<path class="st0" d="M3119.2,2616.6c-1.7,0-3.4-0.4-5-1.3c-4.8-2.7-6.5-8.8-3.7-13.6l35.8-62.7
							c-32.6-101.6-74.5-161.3-82.8-172.5c-82.9-35.3-225.4-54.6-226.8-54.8c-5.5-0.7-9.3-5.8-8.6-11.2c0.7-5.5,5.8-9.3,11.2-8.6
							c6.1,0.8,149.5,20.2,234.6,57.3c1.5,0.7,2.8,1.7,3.8,3c2.1,2.6,51.5,65.8,89,185c0.8,2.7,0.5,5.5-0.9,8l-38,66.5
							C3126.1,2614.8,3122.7,2616.6,3119.2,2616.6z"/>
					</g>
					<g>
						<path class="st0" d="M3104.4,2653.5c-3.3,0-6.4-1.6-8.2-4.3c-1.9-2.8-2.3-6.3-1-9.4l12.5-31.1l-55.9-62.5
							c-0.8-0.9-1.4-1.9-1.9-3l-59.8-152.1l-195.7-100.4c-3.4-1.7-5.5-5.2-5.4-9s2.2-7.2,5.5-8.9c30.8-15.4,76.1-10.7,78-10.5
							c156,19.6,243.4,56.8,247.1,58.4c1.7,0.7,3.1,1.9,4.2,3.4c47.6,67.3,99.3,194.5,101.5,199.8c1.1,2.8,0.9,6-0.6,8.7
							c-9,15.8-54.8,95.2-71.8,107.2c-18.3,12.9-47.1,13.7-48.3,13.7C3104.6,2653.5,3104.5,2653.5,3104.4,2653.5z M3067.9,2534.2
							l58.8,65.8c2.5,2.8,3.2,6.9,1.8,10.4l-8.5,21.1c7.4-1.5,15.6-4,21.4-8.1c9.4-6.6,42-59,63.6-96.5c-9.6-23.1-54.8-130-95.8-189
							c-15.5-6.2-100.5-38.5-238.9-55.8c-0.2,0-23-2.3-45.1,1.7l177.5,91.1c2.2,1.1,3.9,3,4.7,5.2L3067.9,2534.2z"/>
					</g>
				</g>
				<g>
					<g class="st9">
						<path class="st0" d="M2404.7,1939.3c-23.2,74.8-85.6,320.8-85.6,320.8l-1377.7,19.6c246-234.3,421.5-325.2,421.5-325.2
							C1792.5,1908.1,2404.7,1939.3,2404.7,1939.3z"/>
					</g>
					<g class="st9">
						<path class="st0" d="M2823.6,2103.2c-0.1,4-0.3,8-0.8,11.8c-2.4,21.7-14.5,40.2-28.3,54.7c-20.8,22-49,35.6-79,39.8
							l-300.8,41.9c0,0,32.6-166.3,77.6-311c0,0,115.6-4.5,220.6,24.1c17.7,4.9,34.3,13.1,48.9,24.4l8.8,6.8
							C2803.6,2021.6,2824.1,2061.2,2823.6,2103.2z"/>
					</g>
				</g>
				<g>
					<g class="st2">
						<path class="st1" d="M1953,1931.4l-490.2,334.5l-262.6,4.5l472.4-322.3C1749.9,1941.4,1844.6,1935.1,1953,1931.4z"/>
					</g>
					<g class="st2">
						<path class="st1" d="M2203.8,1928.7L1716,2261.5l-124.5,2.2l491.1-335.1h0.1C2121.7,1928.2,2162.2,1928.2,2203.8,1928.7z"/>
					</g>
				</g>
				<g>
					<g>
						<path class="st0" d="M1015.6,2693.8c-195.7,0-345.2-11.4-386-16.3c-81.1-9.7-294.4-38.1-296.6-38.3c-5.5-0.7-9.3-5.8-8.6-11.2
							c0.7-5.5,5.7-9.3,11.2-8.6c2.1,0.3,215.3,28.6,296.3,38.3c65,7.8,406.7,32.2,771.4,0c348.9-30.8,580.6-48.8,582.9-49
							c5.5-0.5,10.3,3.7,10.7,9.2c0.4,5.5-3.7,10.3-9.2,10.7c-2.3,0.2-233.9,18.2-582.7,49
							C1267.6,2689.6,1133.2,2693.8,1015.6,2693.8z"/>
					</g>
					<g>
						<g>
							<path class="st7" d="M601.1,2663.9l-69,204.7c0,0-69.2,17.8-170.2,15.7l6.2-40.1L344.4,2650l-10.1-20.8
								C334.3,2629.2,532,2656.4,601.1,2663.9z"/>
						</g>
						<g>
							<path class="st0" d="M378.5,2894.5c-5.5,0-11.1-0.1-16.8-0.2c-2.9-0.1-5.6-1.4-7.5-3.6c-1.9-2.2-2.7-5.1-2.2-8l6-38.7
								l-23.4-191.2l-9.4-19.3c-1.6-3.3-1.3-7.3,0.9-10.2c2.2-3,5.8-4.6,9.5-4c2,0.3,198.4,27.3,266.5,34.7c3,0.3,5.7,2,7.3,4.6
								c1.6,2.5,2,5.7,1.1,8.6l-69,204.7c-1.1,3.2-3.7,5.6-7,6.5C531.9,2879,470.5,2894.5,378.5,2894.5z M373.6,2874.5
								c77.1,0.6,133.9-10.6,150.8-14.4l63.2-187.7c-62.2-7.2-188.7-24.3-236.2-30.8l1.9,4c0.5,1,0.8,2.1,0.9,3.1l23.8,194.2
								c0.1,0.9,0.1,1.8,0,2.7L373.6,2874.5z"/>
						</g>
					</g>
					<g>
						<g>
							<path class="st7" d="M2078.8,2858.2l-53.6,19.8c-0.1,0-0.1,0-0.1,0l-38.1,14.1c-197,3.6-249.5-24.1-249.5-24.1L1618,2753
								l-85.5-25.8l53.5-14.3l-7.5-8.7l-37.9-43.9c0,0,0-0.1-0.1-0.2l-3.8-4.3l2.1-0.2l448.2-37.2L2078.8,2858.2z"/>
						</g>
						<g>
							<path class="st0" d="M1952.8,2902.4c-169.4,0-217.9-24.4-220-25.5c-0.8-0.4-1.6-1-2.3-1.7l-117.7-113.3l-83.2-25.2
								c-4.3-1.3-7.2-5.3-7.1-9.7c0.1-4.5,3.1-8.3,7.4-9.5l38.1-10.1l-38.8-45c-2.5-2.8-3.1-6.8-1.7-10.3c1.4-3.5,4.7-5.9,8.4-6.2
								l450.2-37.4c4.4-0.4,8.6,2.2,10.2,6.4l91.8,239.7c1,2.5,0.9,5.3-0.2,7.7c-1.1,2.4-3.1,4.3-5.6,5.2l-91.8,33.9
								c-1,0.4-2.2,0.6-3.3,0.6C1975.2,2902.3,1963.8,2902.4,1952.8,2902.4z M1743.2,2859.6c8.3,3.5,67.5,25.6,241.9,22.5l80.7-29.8
								l-85.5-223.2l-423.1,35.2l36.3,42.2c2.3,2.6,3,6.2,2,9.5s-3.7,5.8-7,6.7l-19.5,5.2l51.9,15.7c1.5,0.5,2.9,1.3,4,2.4
								L1743.2,2859.6z"/>
						</g>
					</g>
					<g>
						<g>
							<path class="st7" d="M640.9,2668.7l-61.8,197.6c0,0,27.9,19.6,88.5,38.6l-66.5,40.2l943.3,10.3l-165.1-40.4l190.1-72.5
								l-142.6-176.9c0,0-253.2,18.3-426.6,18.3C788.8,2683.8,640.9,2668.7,640.9,2668.7z"/>
						</g>
						<g>
							<path class="st0" d="M1544.4,2965.3c0,0-0.1,0-0.1,0L601,2955.1c-4.5,0-8.4-3.1-9.5-7.4c-1.2-4.3,0.6-8.9,4.5-11.2l48-29.1
								c-47.2-16.8-69.6-32.3-70.6-33.1c-3.6-2.5-5.1-7-3.8-11.2l61.8-197.6c1.4-4.5,5.8-7.5,10.6-7c1.5,0.2,149.7,15.1,357.9,15.1
								c0.1,0,0.3,0,0.4,0c171,0,423.3-18.1,425.8-18.3c3.3-0.2,6.4,1.2,8.5,3.7l142.6,176.9c2,2.5,2.7,5.8,1.9,8.9
								s-3.1,5.6-6.1,6.7l-160.1,61l134,32.8c4.9,1.2,8.2,5.9,7.5,11C1553.7,2961.6,1549.4,2965.3,1544.4,2965.3z M636.3,2935.5
								l821.3,8.9l-80.7-19.7c-4.2-1-7.3-4.7-7.6-9.1c-0.3-4.4,2.3-8.4,6.4-10l177.2-67.6l-130.6-162.2c-37.2,2.6-264,17.9-422,17.9
								c-0.1,0-0.3,0-0.4,0c-181.7,0-317.9-11.3-351.8-14.4l-57.1,182.5c11,6.4,37.1,20.1,79.7,33.5c3.8,1.2,6.5,4.4,6.9,8.3
								c0.5,3.9-1.4,7.7-4.8,9.8L636.3,2935.5z"/>
						</g>
					</g>
					<g>
						<path class="st0" d="M2164.2,2977.2H1605c-0.6,0-1.3-0.1-1.9-0.2l-59.7-11.7l-969.8-8c-0.4,0-0.7,0-1.1-0.1l-211.5-24.4
							c-5.5-0.6-9.4-5.6-8.8-11.1c0.6-5.5,5.5-9.4,11.1-8.8l210.9,24.3l970.2,8c0.6,0,1.2,0.1,1.8,0.2l59.6,11.7h558.2
							c5.5,0,10,4.5,10,10C2174.2,2972.7,2169.7,2977.2,2164.2,2977.2z"/>
					</g>
				</g>
				<g class="st6">
					<path class="st0" d="M2078.8,2858.2l-53.6,19.8c-0.1,0-0.1,0-0.1,0l-79.1-201.6l-367.5,27.8l-37.9-43.9c0,0,0-0.1-0.1-0.2
						c-0.2-0.4-0.8-2.1-1.7-4.5l448.2-37.2L2078.8,2858.2z"/>
				</g>
				<g class="st6">
					<path class="st0" d="M347.8,2677.9c0,0,99.2,24.7,238.3,30.5l15-44.5l-266.8-34.7l13.7,22L347.8,2677.9z"/>
				</g>
				<g class="st6">
					<path class="st0" d="M1461.3,2708.4l-34.5-42.9c0,0-515.6,31.9-785.9,3.1l-61.8,197.6l49.8,24.8l51.7-168
						C789,2731,1055.3,2742.3,1461.3,2708.4z"/>
				</g>
				<g class="st2">
					<path class="st0" d="M2543.9,2782.2c0,0,81.3,62.7,115.1,66.2c33.8,3.6,565.4-197.2,565.4-197.2L2652.6,2808L2543.9,2782.2z"/>
				</g>
				<g class="st2">
					<path class="st1" d="M2543.9,2782.2l421.5-165.6c0,0,27.6,25.4,139.9,34.6h119.1l-575.4,156L2543.9,2782.2z"/>
				</g>
				<g>
					<g>
						<path class="st0" d="M2499,2447.7c99.1-26.9,200.4-50.6,300.8-72c0,0,50.5-10.5,50.5-10.5c16.9-3.2,33.7-6.7,50.7-9.7
							c0.6-0.1,1.1,0.3,1.2,0.9c0.1,0.5-0.2,1.1-0.8,1.2c-16.5,4.7-33.2,9-49.8,13.4l-50,12.7c-66.7,16.7-133.7,32.2-200.9,46.6
							c-29.5,6.2-71.8,15.2-101.1,20.5c-0.8,0.2-1.6-0.4-1.8-1.2C2497.8,2448.7,2498.3,2447.9,2499,2447.7L2499,2447.7z"/>
					</g>
					<g>
						<path class="st0" d="M2547.7,2781.2c32.8,7.8,66,15.9,99.1,21.9c-11.8,1.6,580.2-152.7,577.5-152.5c0.7-0.2,1.1,1,0.3,1.2
							c-3.1,0.3-577,162.1-579.8,161.2c-33.2-8.1-65.5-18.1-98.1-28c-1-0.3-1.6-1.4-1.3-2.5
							C2545.7,2781.5,2546.7,2780.9,2547.7,2781.2L2547.7,2781.2z"/>
					</g>
					<g>
						<path class="st0" d="M2470.9,2910.8c56.1-11.7,198.6-41.5,252.7-53.4c27.4-6,57.7-12.9,83.6-18.7c12.9-6.6,25.8-13,38.8-19.3
							c-12.3,7.5-24.7,15-37.2,22.2c-76.7,21.8-173.6,42.4-251.6,60.7c0,0-84.1,18.4-84.1,18.4
							C2466.6,2922,2464.2,2912.3,2470.9,2910.8L2470.9,2910.8z"/>
					</g>
					<g>
						<path class="st0" d="M3302.9,2857.1c-146.3,2.2-351.9,9.2-496.1,10.4c123.5-12.8,247.8-14.5,371.8-18.4
							c41.4-1.1,82.7-1.6,124.1-2.2C3309.2,2846.9,3309.7,2856.9,3302.9,2857.1L3302.9,2857.1z"/>
					</g>
					<g>
						<path class="st0" d="M2461.8,2965.8c172.1-35.5,345.4-66.7,520.5-83.5c1-0.1,1.3,1.6,0.2,1.8c-125.6,19.8-265.2,43-389.4,66.7
							c-43.1,8.3-86.3,16.3-129.2,25C2457.6,2977,2455.1,2967.4,2461.8,2965.8L2461.8,2965.8z"/>
					</g>
					<g>
						<path class="st0" d="M3088.9,2324.9c-0.7,0-1.4-0.1-2-0.4c-87-38.4-118.4-83.8-124.7-94l-73.2-16.9c-1-0.2-2-0.8-2.7-1.6
							l-69.9-80.8c-1.8-2.1-1.6-5.3,0.5-7.2c2.1-1.8,5.3-1.6,7.2,0.5l68.8,79.5l73.7,17c1.4,0.3,2.7,1.3,3.3,2.6
							c0.3,0.5,27.9,50.4,121,91.6c2.6,1.1,3.7,4.1,2.6,6.7C3092.7,2323.8,3090.8,2324.9,3088.9,2324.9z"/>
					</g>
					<g>
						<path class="st0" d="M2965.4,2231.1c-1.5,0-2.9-0.6-3.9-1.8c-1.8-2.2-1.5-5.4,0.7-7.1c3.9-3.2,97.5-78.8,338.2-141.3
							c2.7-0.7,5.5,0.9,6.2,3.6c0.7,2.7-0.9,5.5-3.6,6.2c-238.2,61.9-333.3,138.6-334.3,139.4
							C2967.7,2230.7,2966.5,2231.1,2965.4,2231.1z"/>
					</g>
					<g>
						<path class="st0" d="M3164.4,2090.4c0,0,147.3-24.9,301.4-34.4c6.4-0.4,12,4,13.3,10.2l4.9,24.2c0,0-116.4-3.6-304.8,10.1
							L3164.4,2090.4z"/>
					</g>
					<g>
						<path class="st0" d="M3612.3,2279.2c-2,0-4.1-0.6-5.9-1.9l-44-32.1c-1.8-1.3-3.2-3.3-3.8-5.5l-11.3-42.2
							c-0.5-1.9-0.4-3.9,0.2-5.7l14.8-44.9c1.7-5.2,7.4-8.1,12.6-6.4c5.2,1.7,8.1,7.4,6.4,12.6l-13.9,42.1l9.6,35.9l41.1,30
							c4.5,3.3,5.4,9.5,2.2,14C3618.5,2277.8,3615.4,2279.2,3612.3,2279.2z"/>
					</g>
					<g>
						<polygon class="st0" points="3649.8,2502.7 3604,2558.5 3676.6,2533.1 						"/>
					</g>
					<g>
						<path class="st0" d="M2492.3,1950.4c-0.9,0-1.9-0.1-2.8-0.4c-5.3-1.5-8.4-7.1-6.8-12.4c7.7-26.3,7.8-46.4,0.4-56.4
							c-5.2-7-12.8-7.3-13.1-7.3c-5.5-0.1-9.9-4.6-9.9-10c0-5.5,4.3-9.9,9.8-10c6.7-0.1,19.9,2.9,29,14.9
							c11.9,15.6,12.9,40.6,3.1,74.4C2500.6,1947.6,2496.6,1950.4,2492.3,1950.4z"/>
					</g>
				</g>
				<g>
					<path class="st0" d="M1089.7,2507.9c-182.6,0-286.2-18.8-324.1-27.4c-14-3.2-24.2-15.5-24.9-30
						c-6.4-140.4,60.5-179.7,63.3-181.3c2.4-1.4,5.5-0.5,6.8,1.9c1.3,2.4,0.5,5.4-1.9,6.8l0,0c-0.6,0.4-64.4,38.4-58.3,172.1
						c0.5,10,7.5,18.5,17.1,20.7c62.1,14.2,301.9,55.7,780.2-4.5c2.8-0.4,5.4-1.2,7.9-2.5c44.1-24.2,281.1-146.2,614.1-175.1
						c8.9-0.8,17.3-5.2,22.8-12.1l13-16.2c1.7-2.1,4.9-2.5,7-0.8c2.1,1.7,2.5,4.9,0.8,7l-13,16.2c-7.3,9-18.1,14.7-29.7,15.7
						c-338,29.3-583.3,159.2-610.2,173.9c-3.5,1.9-7.4,3.2-11.4,3.7C1360.3,2500,1208.3,2507.9,1089.7,2507.9z"/>
				</g>
				<g>
					<g>
						<path class="st1" d="M1501.6,2534.8c0,0,288.4-150,542.4-211.2l147.9,23.2c0,0-87.3,70.4-217.4,125.6
							C1974.5,2472.4,1673.9,2524.1,1501.6,2534.8z"/>
					</g>
					<g>
						<path class="st11" d="M2192,2346.8c0,0-87.4,70.4-217.5,125.6c11.9-93.3,69.5-148.9,69.5-148.9L2192,2346.8z"/>
					</g>
					<g class="st2">
						<path class="st0" d="M2038.1,2360.9l110.2,17.3c27.9-18.7,43.6-31.4,43.6-31.4l-147.9-23.2c-254,61.2-542.4,211.2-542.4,211.2
							c26.1-1.6,55.2-4.2,85.7-7.4C1692.8,2478.2,1872.7,2400.7,2038.1,2360.9z"/>
					</g>
					<g>
						<path class="st0" d="M1974.5,2482.4c-0.4,0-0.8,0-1.3-0.1c-5.5-0.7-9.4-5.7-8.7-11.2c12.2-95.7,70-152.4,72.5-154.8
							c4-3.8,10.3-3.7,14.1,0.3s3.7,10.3-0.3,14.1c-0.9,0.9-55.3,54.7-66.5,142.9C1983.8,2478.7,1979.5,2482.4,1974.5,2482.4z"/>
					</g>
					<g>
						<path class="st0" d="M1501.6,2544.8c-4.5,0-8.4-3-9.6-7.3c-1.3-4.6,0.8-9.4,5-11.5c2.9-1.5,292.4-151.3,544.6-212.1
							c1.3-0.3,2.6-0.4,3.9-0.2l147.9,23.2c3.9,0.6,7.1,3.5,8.1,7.3c1,3.8-0.3,7.9-3.4,10.4c-0.9,0.7-89.9,71.9-219.8,127.1
							c-0.7,0.3-1.5,0.5-2.2,0.6c-3,0.5-303.1,51.9-473.9,62.5C1502.1,2544.7,1501.9,2544.8,1501.6,2544.8z M2044.4,2333.7
							c-189.9,46.1-401.1,142.9-492.2,187c166.4-15.2,400.9-54.9,419.4-58C2064,2423.4,2135,2376,2167,2353L2044.4,2333.7z"/>
					</g>
				</g>
				<g>
					<path class="st12" d="M3658.6,2502.6c0,0,6.2-71.2-3.5-129.2c-9.8-57.9-42.8-104.3-42.8-104.3l5.3-59.7
						c-25-35.6-81.1-102.4-81.1-102.4s-9.8-65.9-24.1-74c-14.2-8-42.8-16.9-198.7,3.6c-155.9,20.5-298.5,23.3-298.5,23.3
						s-247.8-152.4-445.6-182.7c-197.8-30.3-472.2-46.4-787.7-21.4c-315.4,25-424.2,58.8-424.2,58.8
						c-231.7,126.5-463.3,361.8-463.3,361.8c-172.9,1.8-188.9-39.2-342.2,46.3c-153.3,85.6-174.1,241.2-174.1,241.2l-25,9.5
						l-19,55.8l10.1,20.8l23.8,194.2l-6.2,40.1c0,0-15.5,7.4-14.9,19.9c0.6,12.5,15.2,18.7,15.2,18.7l15.8,56l-18.3,23.9h1805.4
						c-16-436,106.9-696.2,232.3-550.1c140.3,163.6,65.3,518,65.3,518c313.7-27.3,803.8-59.1,803.8-59.1l36.2-59.7
						c-16.6-144.9,17.8-402.8,90.3-471.7c66.5-63.2,144.9-20.2,180.6,137.8c35.7,158,9.2,303.6,9.2,303.6s36.6,2.7,58.8-79.3
						c22.2-82,35.6-216.6,35.6-216.6L3658.6,2502.6z M2316.7,2262.1L939,2281.7c246-234.3,421.5-325.2,421.5-325.2
						c429.5-46.4,1041.7-15.1,1041.7-15.1C2379.1,2016.1,2316.7,2262.1,2316.7,2262.1z M2822.8,2115.1
						c-2.4,21.7-14.5,40.2-28.3,54.7c-20.8,22-49,35.6-79,39.8l-300.8,41.9c0,0,32.6-166.3,77.6-311c0,0,115.6-4.5,220.6,24.1
						c17.7,4.9,34.3,13.1,48.9,24.4l8.8,6.8c33.1,25.9,53.6,65.5,53.1,107.5C2823.5,2107.2,2823.2,2111.2,2822.8,2115.1z"/>
				</g>
			</g>
			<g>
				<g>
					<path class="st10" d="M2791.4,2155.7l-4.4,5.4l-57.4,70.6l-216.8,27.3l-1.1,22c0,0-57.1,9.5-96.9-29.7
						c0,0,29.7-24.4,101.6-29.7c0,0-1.2-51.7,13.6-77.2c14.9-25.6,101.6-73.7,228.1-48.1c0,0,4.8,7.7,10.9,18.1
						c0,0.1,0.1,0.1,0.1,0.2C2776.4,2127.2,2785.8,2143.8,2791.4,2155.7z"/>
				</g>
				<g>
					<path class="st7" d="M2787,2161.1l-57.4,70.6l-216.8,27.3l-1.1,22c0,0-57.1,9.5-96.9-29.7c0,0,29.7-24.4,101.6-29.7
						c0,0,102.1-12.5,163.3-20.2c0,0,15.5-24.9,38-55.2c22-29.5,49.8-31.8,51.2-31.9c0,0,0,0,0,0l0.1,0.2L2787,2161.1z"/>
				</g>
				<g>
					<path class="st0" d="M2516.3,2231.7c-5,0-9.3-3.7-9.9-8.8c-0.7-5.5,3.2-10.5,8.7-11.1c1-0.1,97.7-11.9,158.6-19.6
						c5.3-8.3,18.4-28.4,35.9-51.9c25.1-33.7,57.4-35.8,58.7-35.8c5.4-0.3,10.2,3.9,10.5,9.5c0.3,5.5-3.9,10.2-9.5,10.5
						c-0.9,0.1-24.5,2-43.8,27.8c-22,29.6-37.4,54.3-37.5,54.5c-1.6,2.6-4.3,4.3-7.2,4.7c-60.5,7.6-162.4,20.1-163.4,20.2
						C2517.1,2231.7,2516.7,2231.7,2516.3,2231.7z"/>
				</g>
				<g>
					<path class="st0" d="M2495.6,2292.1c-21.5,0-58.7-4.8-87.9-33.6c-2-2-3.1-4.7-3-7.6c0.1-2.8,1.5-5.5,3.6-7.3
						c1.3-1,30.4-24.3,98-31.2c0.4-16.8,2.8-52.1,15-73.1c17.8-30.6,108.8-79.1,238.7-52.9c2.7,0.5,5.1,2.2,6.5,4.5
						c1,1.5,23.6,38.2,33.9,60.5c1.6,3.5,1.1,7.5-1.3,10.5l-61.8,76c-1.6,2-4,3.3-6.5,3.6l-208.5,26.3l-0.7,13.6
						c-0.3,4.7-3.7,8.5-8.3,9.3C2512.4,2291.1,2505.7,2292.1,2495.6,2292.1z M2431.7,2252.7c25.7,18.7,56.2,19.9,70.3,19.2l0.7-13.4
						c0.3-4.8,3.9-8.8,8.7-9.4l212.9-26.8l55.3-68c-8.5-17.1-22.3-40.2-27.7-49c-118.6-22.5-200.5,22.2-213.2,44.2
						c-11,18.9-12.6,58.4-12.3,72c0.1,5.3-3.9,9.8-9.3,10.2C2472.9,2234.9,2445.4,2245.7,2431.7,2252.7z"/>
				</g>
			</g>
		</g>
	</g>
</g>
<g id="Layer_2">
</g>
</svg>
